<?xml version="1.0" encoding="UTF-8"?>
<svg id="Layer_1" data-name="Layer 1" xmlns="http://www.w3.org/2000/svg" viewBox="0 0 619.55 723.84">
  <defs>
    <style>
      .cls-1 {
        fill: #1d423b;
      }

      .cls-2 {
        fill: #fff;
      }
    </style>
  </defs>
  <g>
    <g>
      <path class="cls-2" d="M242.57,327.48c-13.65-.21-17.7-.43-24.31-1.71-15.57-2.99-22.18-9.6-22.18-22.18,0-22.18,22.6-41.16,49.26-41.16,13.01,0,26.23,4.9,34.55,12.8l5.33-4.69,2.99,3.2c-12.58,10.02-18.98,17.27-29.22,33.48,14.07.21,19.62.64,27.51,2.35,15.99,3.2,23.88,12.58,23.88,28.15,0,11.3-2.99,18.77-12.58,32.2-2.99,4.26-6.18,8.32-13.22,17.06-14.29,17.7-19.41,24.74-24.95,34.76-14.71-10.45-26.44-14.71-40.94-14.71-12.58,0-23.46,3.41-34.33,10.88-2.99,2.13-5.55,3.63-6.19,3.63-.21,0-.21-.21-.21-.43.21-2.35,4.05-7.89,8.53-12.15,15.99-14.71,33.05-21.75,52.67-21.75,11.94,0,21.11,2.56,31.78,9.17l5.76-7.46c14.71-19.19,19.4-28.15,19.4-37.75,0-6.82-2.99-11.94-9.17-15.78-4.48-2.77-14.08-5.33-23.89-6.4-3.41-.43-8.53-.85-17.7-1.28l-4.9,9.38c4.05.21,7.68.43,10.88.64,22.6,1.07,31.99,6.61,31.99,18.98,0,6.18-2.56,12.8-6.82,18.13-1.71,1.92-2.77,2.77-3.63,2.77-.43,0-.64-.21-.64-.64,0-.21,0-.64.21-1.07.21-1.07.21-1.92.21-2.99,0-10.88-6.82-14.07-31.78-14.93l-10.24-.43c-9.81,20.05-18.13,28.58-27.51,28.58-7.46,0-12.8-5.33-12.8-12.8,0-6.4,4.27-11.52,9.81-11.52,5.12,0,9.38,4.48,9.38,9.81,0,3.2-1.28,6.4-3.84,8.96l.43.43c7.04-1.49,13.44-8.74,20.9-24.1-3.84-.21-7.25-.43-10.23-.64-23.67-1.07-33.05-7.04-33.05-21.11,0-4.9,1.49-10.66,4.05-15.14,1.28-1.92,1.92-2.77,2.56-2.77.43,0,.64.43.64,1.71,0,2.99.85,4.9,2.99,7.46,2.99,3.2,4.9,4.48,8.96,5.76,3.41,1.07,10.88,2.35,18.77,2.99,2.77.21,5.97.43,15.14.85l5.76-8.53ZM260.27,296.56c-5.33-11.52-9.38-16.85-15.57-20.69-4.05-2.56-10.45-4.26-16-4.26-10.66,0-22.18,9.17-22.18,17.91,0,5.33,3.62,9.81,9.81,12.16,4.9,1.92,10.24,2.99,18.55,3.63,4.9.43,8.74.64,18.55.64l6.82-9.38Z"/>
      <path class="cls-2" d="M319.5,316.93c-.43.85-1.07,1.49-1.49,1.49s-.64-.43-.64-1.28c0-8.1,4.9-16.85,11.73-21.11,3.63-2.35,7.89-3.41,12.58-3.41,5.97,0,10.45,1.07,17.7,4.48,4.9,2.35,7.46,3.2,10.02,3.2,2.77,0,5.33-1.07,7.46-2.99.64-.64,1.07-.85,1.28-.85s.43.43.43,1.07c0,1.92-1.71,4.48-4.48,7.04-8.1,7.46-15.57,10.88-23.46,10.88-3.2,0-6.82-.85-12.37-2.99-4.27-1.71-6.61-2.35-8.53-2.35-4.05,0-7.46,2.13-9.81,5.97l-.43.85ZM389.23,302.43c-1.28-.43-2.35-2.35-2.35-4.27,0-2.56,2.35-4.9,4.9-4.9s4.48,2.13,4.48,4.69c0,2.13-1.07,3.84-3.2,5.12v55.87h27.3v-43.08c-2.77-1.71-4.05-2.99-7.04-6.82l-7.25,4.48-2.13-2.99c12.37-7.25,18.13-11.3,25.8-17.91,6.4,9.81,11.3,13.65,17.27,13.65,1.49,0,2.99-.21,4.27-.85.43-.21.85-.21,1.07-.21s.43.21.43.64c0,3.63-4.9,8.32-11.73,11.3v110.04c2.99,1.07,4.69,2.35,7.89,5.97l.85.85,6.82-4.26.64,4.26c-8.96,5.33-15.35,10.02-24.95,17.91-6.4-7.68-8.32-9.6-12.16-12.15-1.92-1.28-3.63-1.71-6.82-1.92-1.71,0-2.35,0-4.48.43,2.13-5.12,4.9-7.89,11.3-11.3v-49.47h-27.3v52.89l8.74-6.61,2.13,2.77c-13.22,9.17-20.9,15.78-28.58,24.95-9.17-5.97-17.7-8.74-26.87-8.74-7.68,0-15.78,2.56-21.75,6.82-1.28.85-2.35,1.49-2.99,1.49-.43,0-.64-.21-.64-.64,0-1.71,3.84-6.61,7.68-9.81,14.08-12.16,24.95-16.85,38.81-16.85,7.68,0,13.01,1.71,18.98,6.18l.85-127.52ZM356.82,335.48c0-5.33,2.13-10.45,5.76-13.86,5.33-5.12,13.01-8.53,20.05-8.96.64,0,1.07.21,1.07.43s-.21.64-.64,1.07c-3.41,3.2-5.54,10.02-5.54,17.49v69.95c-.43,4.9-1.49,7.46-4.27,10.02-5.12,4.9-12.58,7.68-22.82,8.1-.85,0-1.49-.21-1.49-.43,0-.43.43-1.07,1.28-1.71,4.05-3.41,6.61-8.53,6.61-13.65v-26.44h-5.76c-7.04,0-11.09,2.77-12.16,8.32-.21,1.07-.43,1.71-.85,1.71-2.13,0-4.27-5.76-4.27-11.09,0-10.88,5.33-17.91,13.44-17.91h9.81l-.21-23.03Z"/>
    </g>
    <g id="white_bit" data-name="white bit">
      <g>
        <path class="cls-2" d="M62.15,239.82c.91.36,1.94,1.01,3.1,1.95,1.16.94,2.21,1.99,3.15,3.15.94,1.16,1.67,2.37,2.18,3.62.51,1.25.56,2.41.14,3.47-.46-.62-1.03-1.11-1.72-1.47-.69-.36-1.37-.67-2.05-.94-1.59-.63-3.08-.56-4.47.2-1.39.76-2.72,2.01-3.97,3.74-1.25,1.73-2.47,3.81-3.65,6.23-1.17,2.42-2.34,4.98-3.49,7.67,3.35,4.13,5.97,8.13,7.84,12.02,1.87,3.89,2.15,7.5.83,10.83-.9,2.27-2.24,3.84-4.03,4.71-1.79.87-3.81.85-6.08-.04-1.82-.72-3.05-1.75-3.69-3.1-.65-1.35-.58-3.01.2-4.97.51-1.29,1.46-2.31,2.85-3.07,1.4-.76,2.81-.86,4.25-.29.83.33,1.62.77,2.36,1.33.74.56,1.4,1.21,1.98,1.96.13-2.75-.53-5.5-1.98-8.26-1.45-2.76-3.34-5.6-5.67-8.54-1.41,3.12-2.87,6.15-4.38,9.09-1.51,2.94-3.15,5.49-4.92,7.63-1.77,2.14-3.72,3.65-5.85,4.51-2.13.86-4.52.77-7.17-.28-1.74-.69-3.41-1.76-5.02-3.23-1.61-1.47-2.48-3.23-2.62-5.3,2.62,1.12,4.89,1.17,6.83.14,1.94-1.03,3.71-2.69,5.32-4.98,1.61-2.29,3.08-5.03,4.43-8.22,1.35-3.18,2.72-6.42,4.11-9.72l-2.71-2.78c-1.39,3.3-2.87,6.47-4.43,9.53-1.56,3.06-3.28,5.64-5.16,7.73-1.88,2.1-4.03,3.55-6.44,4.34-2.41.8-5.21.56-8.38-.69-3.63-1.44-6.51-3.56-8.63-6.37s-3.58-5.92-4.38-9.34c-.79-3.42-1-6.98-.63-10.68.37-3.7,1.2-7.18,2.49-10.43,1.35-3.4,3.23-6.46,5.66-9.17,2.43-2.71,5.17-5.04,8.21-6.99l-.99-3.15,2.08-1.28c1.66,2.67,2.91,5.53,3.76,8.57.85,3.05,2.01,5.91,3.49,8.6.59.94,1.24,1.89,1.95,2.87.71.98,1.51,2,2.4,3.05,1.53-3.42,3.13-6.74,4.8-9.98,1.67-3.23,3.56-5.96,5.67-8.19,2.11-2.23,4.46-3.75,7.05-4.56,2.6-.81,5.59-.54,9,.8,4.01,1.59,7.39,3.77,10.13,6.57,2.75,2.79,5.18,5.88,7.3,9.25,2.12,3.38,4.08,6.88,5.87,10.52,1.8,3.64,3.74,7.14,5.82,10.5,1.07,1.73,2.28,3.35,3.66,4.86,1.37,1.51,2.52,3.19,3.45,5.04-2.32,1.44-4.36,2.78-6.11,4.01-1.75,1.23-3.32,2.58-4.69,4.05-1.37,1.47-2.62,3.14-3.75,5.01-1.13,1.87-2.21,4.09-3.22,6.66-.81,2.04-1.38,4.16-1.72,6.34-.34,2.18-.5,4.31-.49,6.37.02,2.06.22,4.02.62,5.89.4,1.86.94,3.5,1.61,4.9l-2.4.76c-4.13-6.36-6.5-13.13-7.11-20.33-.61-7.19.45-14.23,3.17-21.12.57-1.44,1.35-2.79,2.33-4.06.98-1.27,2.02-2.5,3.1-3.69,1.08-1.19,2.1-2.36,3.03-3.52.94-1.16,1.65-2.34,2.13-3.55.24-.6.07-1.57-.5-2.89-.57-1.32-1.39-2.78-2.46-4.39s-2.29-3.27-3.67-4.99c-1.37-1.72-2.73-3.33-4.06-4.82-1.33-1.49-2.6-2.76-3.81-3.8-1.21-1.04-2.11-1.69-2.71-1.93-2.72-1.08-5.15-1.18-7.29-.32-2.13.86-4.05,2.33-5.75,4.42-1.7,2.08-3.28,4.65-4.75,7.7-1.47,3.05-2.88,6.19-4.25,9.41.52.47.99.92,1.43,1.35.44.44.87.91,1.27,1.42,1.21-2.84,2.47-5.54,3.79-8.08,1.31-2.54,2.76-4.66,4.35-6.35,1.59-1.69,3.38-2.84,5.37-3.45,1.99-.61,4.23-.42,6.73.56ZM16.32,241.24c-2.53,1.1-4.87,2.75-7.01,4.97-2.14,2.21-3.63,4.38-4.47,6.5-.45,1.13-.74,2.48-.88,4.05-.14,1.57-.07,3.1.21,4.61.28,1.51.78,2.89,1.51,4.14.73,1.25,1.78,2.14,3.14,2.68,2.27.9,4.28.84,6.04-.17,1.76-1.01,3.39-2.61,4.92-4.81,1.52-2.2,2.96-4.82,4.3-7.88,1.34-3.05,2.71-6.23,4.1-9.53l-1.98-2.62c-1.4-1.78-2.83-2.78-4.32-3.02-1.48-.24-3.33.13-5.55,1.09Z"/>
        <path class="cls-2" d="M76.13,172.33c.99.02,1.95.07,2.86.13.91.07,1.77.07,2.57,0,.8-.06,1.59-.32,2.37-.75.78-.44,1.53-1.15,2.25-2.13.58-.79.97-1.56,1.17-2.32.21-.76.44-1.59.71-2.51.49.16.83.31,1.03.45,1.05.77,1.69,1.75,1.93,2.93.24,1.19.37,2.42.39,3.69.02,1.28.12,2.49.29,3.62.17,1.14.69,2.02,1.54,2.64l23.3,17.13c1.18.87,2.38,1.57,3.59,2.11,1.22.54,2.45,1.07,3.69,1.58,1.24.51,2.45,1.02,3.64,1.54,1.18.52,2.33,1.19,3.45,2,2.82,2.07,4.82,4.6,6,7.59,1.18,2.99,1.75,6.13,1.7,9.43-.05,3.29-.65,6.54-1.79,9.74s-2.63,6.04-4.46,8.53c-1.45,1.97-2.95,3.43-4.52,4.4-1.57.97-3.03,1.71-4.37,2.24-1.35.52-2.56.94-3.65,1.25-1.09.31-1.87.8-2.35,1.45-.68.92-.8,1.84-.36,2.76.43.92.72,1.84.86,2.75l-.36,1.1c-.43-.11-.8-.29-1.13-.53-.33-.24-.66-.48-.98-.72-2.36-1.73-3.91-3.78-4.65-6.14-.74-2.36-.19-4.78,1.64-7.27,1.4-1.9,3.03-3.09,4.91-3.59,1.87-.49,3.76-.79,5.66-.91s3.72-.32,5.45-.61c1.73-.29,3.15-1.19,4.26-2.7.87-1.18,1.51-2.5,1.93-3.96.42-1.46.58-2.92.51-4.4-.08-1.47-.42-2.86-1.03-4.16-.61-1.3-1.53-2.41-2.78-3.33-1.05-.77-2.18-1.4-3.39-1.88-1.21-.48-2.44-.91-3.68-1.27-1.25-.36-2.51-.73-3.79-1.12-1.28-.38-2.49-.9-3.64-1.54-1.08-.59-2.1-1.26-3.06-2.02-.96-.75-1.98-1.43-3.06-2.02.71,3.15,1.11,6.67,1.18,10.55.07,3.89.06,7.47-.02,10.74.17.33.08.72-.26,1.17-.1.13-.62.25-1.56.37-.94.12-2.05.36-3.34.73-1.28.37-2.59.88-3.91,1.51-1.33.64-2.42,1.55-3.29,2.73-.39.53-.61,1.17-.66,1.93-.06.77-.15,1.51-.27,2.22l-1.83.02c-1-1.24-1.66-2.3-1.97-3.19-.31-.88-.46-1.65-.44-2.29.02-.64.04-1.26.07-1.84.03-.58-.13-1.23-.47-1.94-.34-.7-.95-1.53-1.82-2.47-.87-.94-2.29-2.14-4.26-3.58-.46-.34-1.23-.93-2.32-1.78-1.09-.85-2.36-1.81-3.8-2.87-1.44-1.06-2.94-2.14-4.51-3.24-1.56-1.1-3.05-2.09-4.47-2.98-1.42-.89-2.65-1.57-3.72-2.05-1.06-.48-1.75-.63-2.08-.47-1.08.52-1.95,1.21-2.6,2.1s-1.48,1.67-2.48,2.34c-.5-.97-.65-1.99-.47-3.07.11-.83.08-1.83-.07-3-.15-1.17-.35-2.38-.6-3.62-.25-1.24-.5-2.44-.77-3.59-.26-1.15-.46-2.18-.6-3.09-.35-.35-.35-.76-.01-1.22,1.01-1.38,2.48-1.94,4.41-1.68,1.93.26,3.95.88,6.04,1.87,2.1.99,4.08,2.11,5.92,3.37,1.85,1.26,3.17,2.18,3.96,2.76,3.34,2.46,6.8,5.07,10.36,7.84,3.57,2.77,7.19,5.16,10.87,7.16,1.34-.73,2.56-1.35,3.64-1.87,1.08-.51,2.42-.89,4.02-1.14.25-2.95.23-5.26-.05-6.93-.29-1.67-.87-3.07-1.77-4.18-.9-1.11-2.11-2.18-3.63-3.2-1.52-1.02-3.37-2.32-5.53-3.91-2.03-1.49-4.15-3.1-6.37-4.83-2.21-1.73-4.45-3.12-6.7-4.17-.99.38-1.73.67-2.22.86-.49.19-.88.41-1.17.66-.28.25-.58.58-.89,1.01-.31.43-.76,1.03-1.34,1.82-.34.46-.64.74-.92.84l-.96-1.16c.03-.58-.03-1.84-.18-3.77-.15-1.93-.3-3.95-.45-6.08-.15-2.13-.27-4.06-.36-5.79s-.09-2.66,0-2.79Z"/>
        <path class="cls-2" d="M148.7,169.35c-.25,1.38-.56,2.87-.92,4.47-.37,1.61-.69,3.23-.97,4.86-.28,1.63-.46,3.2-.54,4.69-.08,1.5.08,2.85.46,4.06l-.79.77c-2.18-.03-3.95-.13-5.3-.29-1.35-.16-2.56-.09-3.63.21-1.07.3-2.14.92-3.22,1.85-1.08.94-2.41,2.51-3.99,4.73l-1.12-.27c-.61-1.68-.82-3.2-.63-4.58s.3-2.87.32-4.48c-.22-.46-.49-.88-.8-1.26-.31-.38-.64-.74-.98-1.09l-37.26-38.3c-1.59-1.63-3.05-2.73-4.4-3.3-1.34-.56-3.14-.89-5.38-.98-.22-.46-.16-.98.19-1.55.35-.57.65-1.08.88-1.54,1.12-1.65,1.89-3.22,2.31-4.71.42-1.49.72-2.94.88-4.35.16-1.41.33-2.75.49-4.05.16-1.29.57-2.59,1.22-3.91.23,0,.49-.02.78-.08.29-.05.52,0,.69.18.23.23.34.46.34.69.56.93,1.02,1.87,1.38,2.82.36.96.72,1.91,1.08,2.86.36.96.79,1.9,1.3,2.82.5.93,1.18,1.83,2.03,2.7l24.5,25.18c.96.99,2.18,2.25,3.66,3.76,1.48,1.52,3.01,3.12,4.59,4.81,1.59,1.69,3.15,3.35,4.68,4.98,1.53,1.63,2.83,3.06,3.91,4.28.53-.86,1.28-1.42,2.27-1.69.98-.27,1.96-.4,2.94-.39.98.01,1.85.07,2.63.17.78.1,1.28.09,1.51-.02l.44-.25c.29-.28.57-.93.85-1.93.27-1,.5-2.05.69-3.14l2.92,1.25Z"/>
        <path class="cls-2" d="M131.98,120.07c1.11.31,2.25.63,3.42.96,1.17.32,2.25.84,3.23,1.54,1.44,1.07,3.25,2.94,5.41,5.6,2.16,2.66,4.36,5.56,6.61,8.7,2.25,3.14,4.39,6.24,6.42,9.28,2.03,3.05,3.63,5.4,4.79,7.07,1.12,1.6,2.65,2.76,4.6,3.49,1.94.72,3.78.48,5.52-.73,1.46-1.02,2.48-2.06,3.04-3.1.56-1.04.72-2.31.46-3.82l-16.68-24.06c-.79-1.13-2.02-2.14-3.67-3.01-1.65-.88-3.2-1.21-4.64-1-.6.42-1.01,1-1.23,1.75-.22.75-.39,1.46-.51,2.14l-1.11.33-.66-.73c-.42-.6-.45-1.82-.1-3.65.35-1.83.87-3.79,1.56-5.86.69-2.07,1.42-3.97,2.19-5.7.77-1.73,1.43-2.78,1.96-3.16,1.65,1.23,2.99,2.15,4.02,2.77s2,.94,2.9.95c.9.01,1.88-.25,2.94-.79,1.06-.54,2.42-1.4,4.09-2.56l1.07-.6c.43.89.6,1.74.51,2.54-.08.8-.22,1.6-.42,2.38-.2.78-.42,1.56-.67,2.33-.25.77-.36,1.54-.32,2.31-.01.41.63,1.57,1.92,3.49,1.29,1.92,2.77,4.07,4.42,6.43,1.66,2.37,3.31,4.71,4.98,7.01,1.67,2.31,2.89,4.03,3.69,5.16,1.07,1.53,2.47,2.82,4.18,3.85,1.71,1.03,2.83,1.92,3.34,2.65.37.53.23,1.03-.44,1.5-1.07.75-2.2,1.39-3.41,1.94-1.21.55-2.34,1.19-3.41,1.94-2.07,1.45-3.88,3.29-5.44,5.52-1.56,2.24-2.92,4.42-4.05,6.55-1.14,2.13-2.05,3.99-2.74,5.56-.69,1.57-1.13,2.43-1.33,2.57-2.09.27-4.11-.05-6.05-.98-1.94-.93-3.81-2.22-5.62-3.89-1.81-1.66-3.53-3.56-5.17-5.69-1.64-2.13-3.21-4.3-4.71-6.53-1.5-2.22-2.88-4.36-4.12-6.42-1.24-2.06-2.38-3.82-3.4-5.29-.93-1.33-2.05-2.58-3.37-3.75-1.31-1.17-2.81-1.96-4.49-2.37l-1.92.45c-.51.55-.81,1.21-.92,1.98-.11.77-.31,1.51-.61,2.21-.31.12-.71.2-1.18.23-.47.03-.76-.16-.86-.59l-.31-.23c-.09-.13.1-1.14.58-3.01.48-1.87,1.07-3.93,1.79-6.17.72-2.24,1.45-4.31,2.2-6.23.75-1.91,1.32-3.01,1.72-3.29Z"/>
        <path class="cls-2" d="M203.04,79.59c.45-.2.93,0,1.45.57.52.57,1.14,1.19,1.87,1.85.73.66,1.59,1.17,2.6,1.53,1,.36,2.25.22,3.74-.43.9-.39,1.75-1.07,2.57-2.05.75,1.72,1,3.07.77,4.06-.24.99-.84,2.19-1.83,3.59.77,1.97,1.56,3.94,2.36,5.89.81,1.96,1.63,3.9,2.48,5.84.46,1.04.98,2.37,1.59,3.96.61,1.6,1.28,3.26,2.03,4.97.75,1.72,1.59,3.39,2.52,5.02.93,1.64,1.96,2.98,3.09,4.04,1.13,1.06,2.35,1.73,3.66,2,1.32.27,2.78-.08,4.4-1.05.42.35.74.79.97,1.31.13.3.1.53-.09.71-.18.61-.44,1.59-.78,2.94s-.75,2.72-1.2,4.12c-.46,1.4-.95,2.66-1.49,3.77-.53,1.12-1.02,1.78-1.47,1.97-1.12.49-2.29.6-3.51.33-1.23-.26-2.45-.73-3.67-1.4-1.22-.67-2.38-1.4-3.49-2.21-1.1-.8-2.04-1.57-2.8-2.31-.03.54-.31,1.58-.85,3.1-.54,1.52-1.18,3.11-1.92,4.76-.74,1.65-1.49,3.16-2.23,4.5-.75,1.35-1.34,2.11-1.79,2.31-1.64.71-3.61.88-5.9.5-2.29-.38-4.57-1.07-6.83-2.08-2.26-1.01-4.3-2.28-6.11-3.79-1.81-1.52-3.08-3.09-3.79-4.74-.94-2.16-1.45-4.2-1.53-6.12-.08-1.92.16-3.77.71-5.56.55-1.79,1.32-3.54,2.3-5.26.98-1.71,2.03-3.43,3.14-5.16-.7-.58-1.94-1.3-3.74-2.17-1.79-.86-3.61-1.73-5.46-2.61-1.85-.88-3.52-1.73-5.03-2.54-1.51-.81-2.39-1.51-2.65-2.11-.23-.52-.16-1.02.22-1.49.37-.47.68-.94.92-1.4,1.05-.64,1.88-1.48,2.48-2.54.6-1.06,1.1-2.12,1.48-3.17.38-1.05.71-2.04.98-2.95.27-.92.55-1.53.86-1.84.84-.1,1.61.28,2.29,1.13.68.86,1.43,1.71,2.24,2.55.81.84,1.79,1.51,2.93,1.99,1.14.48,2.61.33,4.4-.45.97-.42,1.77-1.24,2.4-2.44.63-1.2,1.2-2.54,1.72-4.01.51-1.46,1-2.9,1.46-4.29.46-1.4.98-2.44,1.56-3.14ZM182.36,101.77c.2.45,1.35,1.23,3.48,2.34,2.13,1.12,4.51,2.32,7.16,3.6,2.64,1.29,5.19,2.51,7.65,3.66,2.45,1.15,4.07,1.91,4.85,2.28.34.38.77.64,1.27.78.5.14.87.47,1.1.99.01.44-.13.77-.44.99-.3.22-.57.47-.8.75l-10.01-4.96c-.61.44-.95,1.13-1.04,2.05-.09.92-.04,1.9.14,2.93.18,1.03.42,2.04.71,3.02.29.98.57,1.77.83,2.37.84,1.94,1.93,3.53,3.27,4.76,1.34,1.24,2.84,2.16,4.53,2.75,1.68.6,3.45.85,5.31.75,1.86-.1,3.73-.56,5.59-1.37.72-1.2,1.09-2.18,1.11-2.95.02-.76-.24-1.78-.79-3.05l-9.25-21.25c-.36-.82-.68-1.61-.97-2.37-.29-.76-.68-1.52-1.19-2.28-.27-.42-.63-.68-1.08-.79-.45-.11-.9-.18-1.35-.21-.46-.02-.92-.07-1.39-.13-.47-.06-.92-.27-1.33-.62-.25-.16-.49-.41-.73-.75-.24-.34-.54-.43-.91-.27-1.57.68-3.06,1.78-4.49,3.29-1.43,1.51-3.08,2.67-4.94,3.48l-1.39.47-4.9-.26Z"/>
        <path class="cls-2" d="M238.52,67.98c-.03-.16.03-.25.19-.29.4-.08.68-.04.84.14.16.17.34.36.55.57,1.73,1.55,3.12,2.84,4.17,3.87,1.04,1.03,1.87,2.08,2.46,3.16.6,1.08,1.09,2.35,1.48,3.8.38,1.46.81,3.3,1.27,5.53.25-.38.87-1.22,1.85-2.5.98-1.28,2.1-2.78,3.36-4.5,1.26-1.71,2.6-3.49,4-5.32,1.41-1.83,2.73-3.54,3.98-5.13,1.25-1.59,2.29-2.88,3.12-3.89.83-1,1.32-1.52,1.48-1.55l1.05.28c1.58,1.58,2.58,2.72,3.02,3.42.44.7.84,1.13,1.21,1.31.37.17.97.19,1.82.06.84-.13,2.5-.25,4.97-.35-.53,1.85-1.05,3.13-1.57,3.82-.52.69-.97,1.32-1.35,1.9-.38.58-.6,1.33-.65,2.25-.06.93.16,2.58.66,4.97.18.88.43,2.15.73,3.83.31,1.68.68,3.56,1.11,5.63.43,2.07.94,4.21,1.52,6.41.58,2.21,1.21,4.23,1.89,6.09.67,1.85,1.41,3.38,2.2,4.59.79,1.21,1.66,1.88,2.6,2.01.94.14,1.82.06,2.63-.24s1.68-.2,2.61.27c-.81,2.08-1.91,4.01-3.28,5.79s-2.45,3.79-3.23,6.03c-.13.19-.22.46-.27.8-.05.34-.24.55-.56.61l-.38-.04c-2.71.56-4.93.15-6.67-1.23-1.74-1.38-3.14-3.21-4.19-5.48-1.05-2.27-1.85-4.68-2.38-7.23-.53-2.55-.98-4.7-1.34-6.45-.7-3.34-1.44-6.63-2.24-9.88-.8-3.24-1.47-6.55-2-9.93-.65-1.11-1.14-1.88-1.48-2.31-.34-.43-.72-.74-1.13-.95-.42-.2-.89-.4-1.43-.58-.54-.18-1.29-.58-2.25-1.21-1.26,1.92-2.6,3.76-4.03,5.51-1.42,1.75-2.97,3.38-4.65,4.89.09,1.23.26,2.44.51,3.63s.5,2.39.75,3.58c.15.72.43,2.09.86,4.12.42,2.03.92,4.11,1.48,6.23.57,2.12,1.13,4.06,1.71,5.81.57,1.75,1.12,2.7,1.65,2.83,1.54.6,2.96,1.05,4.27,1.36,1.31.31,2.62,1.03,3.94,2.17-2.11,1.44-3.88,3.13-5.3,5.09-1.42,1.96-2.74,4.02-3.95,6.18-2.41-1.58-4.17-2.68-5.3-3.32-1.13-.64-2.15-1.05-3.06-1.23-.91-.18-1.98-.25-3.22-.2-1.24.05-3.2-.02-5.9-.21-.06-1.07.21-1.99.79-2.78.58-.79,1.25-1.48,1.99-2.1.75-.61,1.4-1.14,1.97-1.59.57-.45.81-.87.73-1.27-.1-.48-.31-1.6-.63-3.36-.33-1.76-.73-3.79-1.21-6.1-.48-2.31-1.01-4.77-1.6-7.39-.59-2.62-1.22-5.04-1.88-7.27-.67-2.23-1.36-4.12-2.05-5.68-.7-1.56-1.37-2.48-2.01-2.76-.72-.26-1.52-.33-2.41-.18-.89.14-1.69.29-2.4.44l-.37-1.79c1.2-1,2.18-2.01,2.92-3.04.74-1.03,1.41-2.1,2.01-3.22.6-1.12,1.18-2.22,1.75-3.29.57-1.07,1.32-2.12,2.27-3.15Z"/>
        <path class="cls-2" d="M378.5,40.72c.12-.64.1-1.14-.04-1.5-.14-.36-.33-.7-.56-1.03-.23-.33-.42-.67-.56-1.03-.14-.35-.15-.85-.04-1.49.16-.88.57-1.57,1.24-2.07.67-.5,1.44-.67,2.32-.51.88.16,1.57.59,2.06,1.3s.66,1.5.5,2.38c-.12.64-.31,1.1-.56,1.39-.26.28-.55.54-.88.77-.33.23-.63.49-.88.77-.26.28-.45.75-.56,1.39l-5.52,30.37,15.48,2.81,4.67-25.69c-1.48-1.43-2.51-3.02-3.1-4.78-.86.17-1.8.58-2.83,1.22-1.03.64-1.91,1.18-2.65,1.63l-.81-2.38c.66-.46,1.7-1.03,3.1-1.73,1.41-.69,2.94-1.43,4.62-2.2,1.67-.77,3.43-1.46,5.28-2.08,1.85-.61,3.59-1.1,5.23-1.47.4,2.8,1.78,5.1,4.14,6.89,2.36,1.79,5.34,2.56,8.94,2.31-.55,2.55-1.69,4.41-3.43,5.58-1.74,1.17-3.7,1.81-5.86,1.91l-11.4,62.78c1,.84,1.93,1.76,2.79,2.74.85.98,1.5,2.09,1.94,3.33.86-.17,1.8-.58,2.83-1.22,1.02-.64,1.91-1.18,2.65-1.63l.81,2.38c-.74.44-1.8,1.02-3.16,1.72-1.37.7-2.89,1.44-4.56,2.21-1.67.77-3.43,1.48-5.29,2.14-1.86.66-3.6,1.13-5.22,1.41-.4-2.8-1.78-5.1-4.14-6.89-2.36-1.79-5.34-2.56-8.94-2.31.39-2.16,1.27-3.82,2.64-4.98,1.37-1.16,2.95-1.9,4.75-2.24l4.67-25.69-15.49-2.81-4.82,26.53c1.01-.56,1.93-1.05,2.75-1.48.82-.43,1.99-.71,3.5-.85l.85,2.14c-3.33,1.46-6.72,3.3-10.18,5.53-3.46,2.22-6.71,4.38-9.73,6.48-2.59-3.03-5.18-5.28-7.76-6.74-2.59-1.46-5.14-2.32-7.66-2.57-2.52-.25-4.95-.05-7.3.6-2.35.65-4.54,1.53-6.56,2.65l-.94-1.66c2.53-2.1,5.61-4.02,9.23-5.76,3.62-1.74,7.36-2.96,11.21-3.67,3.85-.71,7.59-.73,11.23-.07,3.64.66,6.76,2.26,9.36,4.8l12.65-69.62ZM374.04,34.57c-.86,1.08-2.1,2.12-3.73,3.1-1.63.99-3.33,1.83-5.11,2.54-1.78.71-3.53,1.24-5.25,1.59-1.72.35-3.14.42-4.26.22-1.2-.22-2.34-.57-3.4-1.05-1.07-.48-2.12-.98-3.14-1.5-1.02-.52-2.03-1.01-3.02-1.48-.99-.47-2.04-.81-3.16-1.01-2.32-.42-3.91-.21-4.76.62-.86.84-1.46,1.8-1.83,2.89l-1.8-.33.1-1.22c.32-1.76,1.01-3.41,2.08-4.96,1.06-1.54,2.34-2.86,3.82-3.96,1.48-1.09,3.11-1.89,4.9-2.4,1.78-.5,3.56-.59,5.32-.27,1.68.3,3.26.84,4.73,1.6,1.47.76,2.9,1.54,4.29,2.33,1.38.79,2.76,1.55,4.11,2.3,1.35.74,2.79,1.25,4.31,1.53.64.12,1.41-.05,2.32-.51.91-.46,1.76-1.06,2.56-1.83l.92,1.78ZM376.1,44.37c-.79.27-1.57.81-2.34,1.62-.77.81-1.47,1.72-2.11,2.72-.64,1-1.18,2.06-1.63,3.18-.45,1.12-.76,2.16-.94,3.12-.87,4.8-1.67,9.55-2.4,14.26s-1.53,9.46-2.4,14.26c-.52,2.88-1.25,5.6-2.17,8.16-.92,2.56-2.23,4.74-3.92,6.54-1.69,1.8-3.8,3.05-6.32,3.75-2.53.7-5.61.63-9.26-.2l.09-1.84c1.22-.36,2.27-.87,3.13-1.54.87-.67,1.63-1.71,2.3-3.12.67-1.41,1.3-3.28,1.89-5.61.59-2.33,1.22-5.38,1.91-9.14l-4.32-.78c-.96-.17-1.67-.16-2.12.05-.45.21-.78.52-.98.94-.2.42-.33.89-.38,1.42-.06.53-.13,1.07-.23,1.63-.77-.31-1.4-.83-1.88-1.58-.48-.75-.87-1.56-1.17-2.44-.3-.88-.47-1.76-.51-2.64-.05-.88,0-1.67.12-2.39.38-2.08,1.02-3.68,1.92-4.8.9-1.12,1.95-1.88,3.14-2.28,1.19-.4,2.52-.58,4-.51,1.48.06,3.01.24,4.62.53.25-1.85.43-3.27.52-4.25.09-.97.16-1.54.19-1.7.49-2.72,1.11-5.33,1.86-7.85.74-2.51,1.86-4.68,3.35-6.52,1.49-1.84,3.49-3.17,6-4,2.51-.83,5.77-.92,9.78-.27l.26,1.29Z"/>
        <path class="cls-2" d="M437.13,135.53c-1.26.41-2.77.88-4.54,1.42-1.77.54-3.51,1.04-5.24,1.5-1.73.46-3.33.92-4.78,1.37-1.46.45-2.47.82-3.05,1.09-.36.01-.75.04-1.17.07-.42.03-.81-.04-1.18-.2-.22-.1-.43-.58-.62-1.42-.2-.85-.54-1.86-1.04-3.02-.5-1.17-1.19-2.35-2.06-3.56-.88-1.21-2.1-2.16-3.65-2.87-1.11-.51-2.27-.81-3.47-.91-1.21-.1-2.36-.41-3.47-.92l.35-.78c.44-.96,1.01-1.68,1.72-2.16.71-.48,1.49-.82,2.34-1.01.85-.19,1.7-.34,2.55-.45.85-.1,1.69-.28,2.52-.53.5-.13.84-.42,1.01-.88.17-.46.41-.84.72-1.14l11.4-24.97c.68-1.48,1.04-3.01,1.09-4.6.05-1.59-.26-3.11-.93-4.58l.43-1.82c.97.62,1.95,1.25,2.96,1.89,1,.64,2.03,1.19,3.06,1.67,1.85.84,3.73,1.43,5.63,1.77,1.9.33,3.83.52,5.78.56,1.95.04,3.88-.02,5.78-.18,1.9-.16,3.84-.33,5.8-.51-.25,2.12-.38,4.1-.36,5.94,0,1.84.1,3.65.27,5.42.17,1.78.45,3.56.84,5.35.39,1.79.89,3.67,1.51,5.65l-.27,1.48c-.32.3-1.17.61-2.56.91-1.39.3-3.05.62-4.99.94-1.94.32-4.05.65-6.35.99-2.3.34-4.51.67-6.62,1-2.12.33-4.03.64-5.73.94-1.7.3-2.93.59-3.68.87-.39.45-.65.93-.79,1.45-.15.52-.34,1.03-.57,1.55-.3.67-.64,1.3-1,1.89-.36.6-.64,1.3-.83,2.1.58.89,1.29,1.68,2.13,2.38.84.7,1.55,1.49,2.13,2.38.31.5.61,1.11.91,1.82.3.72.74,1.21,1.34,1.48.37.17,1.18,0,2.44-.5,1.25-.5,2.42-.86,3.51-1.08l.73,2.21ZM433.76,105.02l-5.11,11.48c.33.06,1.25,0,2.78-.21,1.52-.2,3.16-.46,4.91-.77,1.75-.32,3.4-.64,4.93-.97,1.53-.33,2.43-.57,2.68-.72.37-.81.54-2.12.52-3.92-.03-1.8-.14-3.71-.34-5.72-.2-2.01-.42-3.99-.65-5.93-.23-1.94-.37-3.45-.41-4.54-.59-.09-1.28-.29-2.07-.61-.79-.32-1.42-.18-1.87.42-.49.67-.98,1.5-1.47,2.48-.49.98-.97,2.02-1.42,3.11-.45,1.09-.89,2.14-1.31,3.16-.42,1.02-.81,1.93-1.19,2.75Z"/>
        <path class="cls-2" d="M481.24,104.6l1.04,1.09c.13,1.92.28,3.35.44,4.32.16.97.44,1.73.86,2.28.42.55,1.05,1.08,1.9,1.57.85.49,2.06,1.23,3.64,2.24l-.33.51c-.52.82-1.17,1.47-1.95,1.94-.78.47-1.62.8-2.52,1-.9.2-1.83.33-2.78.4-.96.07-1.85.08-2.69.03-.65,1.03-1.58,2.37-2.77,4.02-1.19,1.65-2.46,3.45-3.79,5.4-1.33,1.95-2.65,3.98-3.94,6.1-1.3,2.12-2.45,4.16-3.45,6.12-1.01,1.96-1.75,3.78-2.23,5.45-.48,1.67-.54,3.05-.18,4.15.27.94.73,1.55,1.38,1.81.65.27,1.35.64,2.11,1.12l.45.43-.48,1.43c-.59.01-1.63.17-3.12.48-1.49.3-3.06.64-4.68,1-1.63.36-3.68.82-6.15,1.37-.62-.39-1.06-.91-1.32-1.56-.26-.65-.53-1.3-.79-1.95-.99-2.08-1.46-4.01-1.38-5.79.07-1.78.43-3.53,1.08-5.24.65-1.71,1.5-3.36,2.56-4.95,1.06-1.59,2.11-3.21,3.16-4.86l10.34-14.24c1.39-2.2,2.14-4.01,2.23-5.45.09-1.43-.83-3.2-2.78-5.3-.5-.12-1.01-.23-1.53-.32-.52-.09-1.02-.29-1.5-.59l-.45-.43c.04-.36.1-.61.19-.75.3-.48.75-.73,1.34-.74.58-.01,1.12-.01,1.59,0,2.93-.06,5.7-.33,8.31-.79,2.61-.46,5.34-.9,8.2-1.3ZM490.86,89.46l.93.59c.27,1.24.45,2.36.53,3.37.08,1.01.49,2.14,1.24,3.39l2.36,1.06.34,1.52c-1.47,1.09-3.32,1.74-5.57,1.95-2.25.21-4.17-.19-5.75-1.19-1.51-.96-2.71-2.22-3.59-3.79-.88-1.57-1.86-3.03-2.92-4.39l.17-1.63c.35-.26.72-.38,1.11-.38.38,0,.79.04,1.22.12,1.76.25,3.44.23,5.02-.06,1.58-.3,3.22-.48,4.91-.57Z"/>
        <path class="cls-2" d="M531.92,143.03c-.19,1.57-.42,2.94-.69,4.11-.27,1.17-.38,2.24-.31,3.22.06.98.41,1.93,1.05,2.87.64.94,1.77,1.96,3.4,3.07l-.93,1.62c-.89.52-1.65.74-2.29.67-.64-.08-1.31-.12-2-.13-.69-.01-1.42.13-2.18.44-.76.31-1.65,1.04-2.67,2.2l-19.73,22.45-.29.88c.22.74.45,1.45.7,2.16.25.7.43,1.38.56,2.04.13.65.11,1.32-.04,1.99-.16.67-.56,1.38-1.2,2.11-.25.65-.56,1.19-.93,1.62-.43.49-.87.92-1.3,1.29-.44.37-.9.78-1.39,1.21-.6.56-1.87.98-3.81,1.28-1.94.3-4.19.49-6.75.57-2.56.08-5.27.05-8.13-.08-2.86-.13-5.51-.29-7.94-.48-2.43-.19-4.51-.42-6.22-.68-1.72-.27-2.73-.53-3.03-.8-.06-.05-.19-.49-.39-1.32-.2-.82-.58-1.89-1.16-3.21-.58-1.32-1.44-2.83-2.58-4.54-1.15-1.71-2.73-3.46-4.75-5.23-.49-.43-1.26-.76-2.31-.97-1.05-.22-1.88-.49-2.47-.79-.07-.17-.14-.34-.21-.5-.07-.17-.05-.31.06-.44.91-1.04,2.35-1.59,4.3-1.66,1.95-.07,3.99.15,6.09.64,2.11.5,4.14,1.17,6.1,2.03,1.96.85,3.39,1.68,4.31,2.49,1.71,1.5,3.13,3.18,4.26,5.04,1.13,1.86,1.77,3.93,1.91,6.23l.29.41c.61.54,1.5.85,2.65.95,1.16.1,2.37.05,3.62-.15,1.25-.2,2.44-.53,3.57-1.01,1.12-.48,1.95-1.02,2.49-1.63,1.13-1.28,1.71-2.53,1.75-3.74.04-1.21-.01-2.42-.15-3.62-.14-1.2-.14-2.45-.03-3.76.12-1.3.79-2.66,2.03-4.06l1.28-1.64c-3.93-.21-7.73-.6-11.4-1.17-3.67-.57-7.51-.73-11.53-.47-.76-1.1-1.08-2.19-.95-3.27.13-1.07.1-2.24-.1-3.5-.2-1.25-.8-2.63-1.82-4.12-1.02-1.49-3-3.21-5.95-5.15,1.52-1.48,3.36-2.41,5.53-2.78,2.17-.37,4.25-.22,6.25.46,2.59-2.7,5.12-5.43,7.6-8.18,2.47-2.75,4.94-5.53,7.42-8.34,1.56-1.77,2.69-3.18,3.4-4.24.71-1.05,1.28-2.01,1.72-2.88.43-.86.87-1.76,1.3-2.68.43-.92,1.11-2.16,2.05-3.72,1.17,1.25,2.39,2.45,3.65,3.61,1.25,1.16,2.53,2.3,3.81,3.43,1.71,1.5,3.55,2.77,5.52,3.79,1.97,1.03,4,1.92,6.09,2.68,2.09.76,4.24,1.4,6.43,1.92,2.19.52,4.34,1,6.45,1.44ZM508.72,137.27c-.48.66-1.36,1.76-2.64,3.28-1.29,1.52-2.77,3.25-4.46,5.17-1.69,1.92-3.45,3.95-5.27,6.09-1.82,2.13-3.5,4.1-5.02,5.9-1.53,1.8-2.8,3.31-3.81,4.53-1.02,1.22-1.58,1.95-1.67,2.18.44,1.47.9,2.77,1.38,3.89.47,1.12.71,2.55.71,4.28,1.05.28,2.19.52,3.42.73,1.22.21,2.45.32,3.7.32,1.24,0,2.41-.18,3.51-.57,1.1-.39,2.02-1.01,2.78-1.86,2.74-3.12,5.43-6.27,8.08-9.47s5.34-6.35,8.08-9.47c-.25-1.19-.53-2.17-.84-2.93-.31-.76-.54-1.51-.71-2.25-.16-.74-.23-1.53-.2-2.37.03-.84.21-1.93.52-3.28-.37-.32-.88-.69-1.54-1.11-.66-.42-1.37-.82-2.11-1.2-.75-.38-1.46-.74-2.14-1.07-.68-.33-1.26-.6-1.74-.8Z"/>
        <path class="cls-2" d="M533.83,231.7l-1.1.37c-.54-.71-.88-1.45-1-2.22-.13-.77-.46-1.51-1-2.23-.49-.65-1.15-1.37-1.97-2.18-.82-.81-1.7-1.49-2.64-2.05-.94-.56-1.92-.91-2.95-1.05-1.03-.14-1.96.11-2.8.75-.58.44-.98,1.23-1.19,2.36-.21,1.13-.47,2.4-.78,3.81-.31,1.41-.79,2.85-1.46,4.33-.66,1.48-1.77,2.81-3.32,3.99-1.88,1.43-4.06,1.99-6.54,1.68-2.48-.31-4.44-1.4-5.87-3.27-.2-.26-.36-.54-.49-.85-.13-.31-.26-.62-.4-.92l.8-.15c.95.3,1.75.48,2.41.54.66.06,1.27.03,1.84-.1.57-.13,1.14-.38,1.71-.77.57-.39,1.28-.9,2.12-1.54,1.04-.79,1.96-1.7,2.76-2.72.81-1.02,1.57-2.07,2.29-3.13.72-1.06,1.46-2.08,2.2-3.05.74-.97,1.6-1.83,2.57-2.57.65-.49,1.33-.81,2.04-.94.71-.14,1.44-.25,2.18-.36.74-.1,1.47-.22,2.18-.36.71-.14,1.36-.42,1.95-.87,4.72-3.6,9.44-7.17,14.16-10.71,4.71-3.54,9.48-7.05,14.3-10.52-.35-1.67-.51-3.22-.46-4.63.04-1.42,0-2.94-.12-4.59-.16-.08-.69-.24-1.59-.48-.9-.24-1.86-.5-2.9-.78-1.04-.28-2.02-.53-2.95-.75-.93-.21-1.48-.3-1.66-.27-.23-.03-.92.34-2.07,1.11-1.15.77-2.57,1.75-4.27,2.95-1.7,1.19-3.52,2.5-5.45,3.92-1.93,1.42-3.79,2.78-5.56,4.08-1.77,1.3-3.35,2.45-4.73,3.45-1.38,1-2.3,1.68-2.75,2.02.47,1.69.85,3.39,1.14,5.12.29,1.72.23,3.45-.18,5.2-1.27-.46-2.51-.98-3.71-1.55-1.2-.57-2.44-1.08-3.71-1.54-1.27-.46-2.57-.78-3.88-.96-1.31-.18-2.64-.47-3.97-.88.18-1.37.48-2.49.89-3.36.41-.87.7-1.73.87-2.58.17-.85.12-1.75-.16-2.72-.28-.97-.98-2.19-2.11-3.68-.39-.52-.83-.92-1.31-1.22-.48-.3-.96-.62-1.43-.98l1.38-1.21c.58-.44,1.28-.7,2.1-.76.82-.06,1.65,0,2.5.16.85.17,1.69.4,2.52.69.83.29,1.58.53,2.25.74,2.17-1.45,4.32-2.96,6.44-4.53,2.13-1.57,4.23-3.14,6.3-4.72,5.63-4.29,11.46-8.58,17.5-12.87,6.03-4.29,11.58-8.82,16.63-13.6.6-.56,1.08-1.36,1.46-2.42.37-1.05.9-1.94,1.58-2.66.24-.08,1.04.26,2.39,1.02,1.35.76,2.91,1.57,4.68,2.42,1.77.85,3.63,1.61,5.57,2.28,1.94.67,3.62.87,5.05.6l.82,1.68-.39.3c-.91.69-1.92,1.08-3.03,1.16-1.11.08-2.17.35-3.15.79-4.08,1.89-8.03,4.33-11.83,7.33-3.8,3-7.51,5.88-11.13,8.64-1.04.79-2.04,1.55-3.01,2.29s-1.95,1.54-2.93,2.39c3.8,1.09,7.62,1.99,11.48,2.68,3.85.69,7.72,1.45,11.62,2.27-.42.93-.86,1.89-1.34,2.87s-.86,1.99-1.15,3.02c-.29,1.03-.36,2.08-.21,3.15.14,1.06.59,2.08,1.33,3.05.64.84,1.42,1.4,2.34,1.67.92.27,1.88.38,2.87.34-.16.33-.31.67-.44,1.03-.14.36-.37.66-.69.91-1.29.99-2.87,1.37-4.72,1.15-1.86-.22-3.49-.51-4.89-.88-2.41,1.94-5.06,3.93-7.95,5.98-2.89,2.05-5.73,4.16-8.52,6.33-2.79,2.18-5.39,4.47-7.8,6.87-2.42,2.4-4.27,4.96-5.57,7.69Z"/>
        <path class="cls-2" d="M610.49,217.66l.04,1.64c-2.27.75-4.46,1.36-6.56,1.84-2.1.47-4.26,1.3-6.48,2.49l-4.79,2.69,2.07,3.87c.46.86,1.11,1.55,1.94,2.08.83.52,1.48,1.22,1.94,2.08-1.84.52-3.27,1.12-4.29,1.81-1.02.68-2.32,1.44-3.9,2.29l-.7.24c-.28-.87-.41-1.72-.4-2.55.01-.84.21-1.68.59-2.53-.67-.56-1.24-1.2-1.72-1.92-.47-.71-.92-1.47-1.34-2.26-4.6,2.27-9.17,4.59-13.71,6.97-4.54,2.38-9.07,4.77-13.59,7.18-1.15.61-2.32,1.26-3.52,1.95-1.2.69-2.34,1.41-3.41,2.17-.15,1.28-.23,2.54-.25,3.8s-.09,2.56-.2,3.91c.27.5.65.83,1.15.98.5.15.95.35,1.35.59l.86,1.62-.8.84c-.44-.13-1.54-.51-3.31-1.14-1.76-.63-3.63-1.27-5.59-1.92-1.96-.66-3.75-1.27-5.34-1.85-1.6-.58-2.42-.9-2.46-.97l-.04-1.36c.3-.99.55-2.07.76-3.24.21-1.17.32-2.38.34-3.64s-.06-2.48-.23-3.68c-.18-1.2-.5-2.22-.96-3.09-.46-.86-1.03-1.62-1.7-2.27-.67-.66-1.22-1.38-1.64-2.17,1-.54,2.06-.75,3.18-.66,1.11.1,2.21.34,3.29.73,1.08.39,2.12.87,3.12,1.44,1,.57,1.92,1.05,2.77,1.43.25-.04,1.16-.46,2.72-1.25,1.56-.79,3.48-1.77,5.76-2.94,2.28-1.17,4.75-2.45,7.43-3.83,2.67-1.38,5.19-2.7,7.56-3.97,2.37-1.26,4.43-2.36,6.19-3.3,1.76-.94,2.92-1.56,3.5-1.87l1.23-.8-.75-1.67c-.84-1.58-1.76-2.68-2.74-3.31-.98-.63-2.02-1.53-3.1-2.7.18-.19.52-.41,1.02-.68,1.36-.73,2.76-1.38,4.21-1.97,1.44-.58,2.88-1.26,4.31-2.03.12.58.18,1.42.18,2.53,0,1.11.08,1.84.28,2.2l2.41,4.52c1.58-.84,2.71-1.56,3.41-2.16.69-.6,1.24-1.17,1.65-1.71.4-.54.77-1.1,1.1-1.69.33-.59.94-1.26,1.83-2.01,1.35,1.49,2.57,2.71,3.67,3.64,1.1.94,2.19,1.73,3.28,2.4,1.09.66,2.29,1.22,3.59,1.68,1.3.46,2.89.97,4.76,1.54Z"/>
        <path class="cls-2" d="M617.29,285.55l.37,2.19c-2.38.83-4.93,1-7.63.51-2.71-.48-5.31-1.17-7.82-2.07-2.51-.9-4.77-1.77-6.78-2.62-2.02-.85-3.5-1.29-4.45-1.3.31,2.13.99,4.22,2.04,6.26,1.05,2.04,1.92,4.07,2.62,6.07-1.08.37-2.17.49-3.29.37-1.12-.13-2.26,0-3.41.41l-16.26,5.63c-1.54.53-2.78,1.35-3.73,2.45-.95,1.11-2.12,1.9-3.5,2.38-.38-1.59-.66-3.15-.84-4.68-.19-1.53-.54-3.06-1.08-4.6-1.25-3.61-2.82-6.66-4.72-9.15-1.89-2.49-4.75-4.27-8.57-5.36-.24-.69-.18-1.47.17-2.32.35-.85.75-1.76,1.18-2.73.44-.97.81-1.96,1.1-2.96.3-1.01.29-1.97-.03-2.89-.85-2.46-1.76-3.97-2.73-4.54-.97-.57-2.7-.72-5.2-.46l-.72-2.08c.33-.29.88-.56,1.65-.83,1.54-.53,3.62-.54,6.25-.03,2.63.51,5.33,1.28,8.09,2.3,2.76,1.02,5.39,2.16,7.89,3.4,2.5,1.24,4.41,2.28,5.73,3.12-.77-1.97-1.43-3.57-1.98-4.8-.55-1.23-1.03-2.42-1.43-3.57-.4-1.15-.66-2.27-.77-3.35.98-.17,2.09-.06,3.34.33,1.25.38,2.26.44,3.03.18,1.31-.45,2.73-.93,4.29-1.42,1.55-.49,3.12-1,4.71-1.5,1.59-.51,3.12-1.06,4.59-1.65,1.47-.6,2.78-1.22,3.93-1.88.64-.39,1.19-1.1,1.65-2.12.46-1.02.89-1.6,1.27-1.73.38-.13.72-.08,1.02.16.3.24.51.55.65.94.29.84.44,1.76.44,2.75,0,.99.16,1.95.48,2.87,1.25,3.61,2.99,6.78,5.22,9.49s4.9,5.08,8.01,7.1c.47.35.77.72.9,1.11.11.31.02.68-.26,1.12-.28.44-.56.92-.85,1.46-.29.53-.54,1.11-.75,1.75-.21.63-.21,1.25,0,1.87.61,1.77,1.32,2.94,2.12,3.53.8.58,2.16.89,4.06.92ZM557,266.91c1.28,1.45,2.52,2.74,3.73,3.87,1.21,1.13,2.16,2.69,2.85,4.69.64,1.84.9,3.41.79,4.7-.12,1.29-.35,2.4-.71,3.34-.36.94-.69,1.79-.99,2.54-.3.75-.33,1.47-.09,2.16.21.61.51,1.16.89,1.63.38.47.67,1.01.89,1.63,3.28-.96,6.52-1.98,9.73-3.04,3.2-1.07,6.43-2.12,9.69-3.16.89-.65,1.22-1.58.97-2.79-.25-1.21-.47-2.12-.69-2.73-.03-.08-.65-.44-1.86-1.1-1.22-.66-2.76-1.43-4.62-2.34-1.86-.9-3.9-1.88-6.11-2.92-2.21-1.04-4.32-2.03-6.32-2.97-2-.94-3.75-1.74-5.22-2.39-1.47-.65-2.44-1.03-2.91-1.12ZM600.18,277.53c-.37-1.08-.46-2.06-.25-2.95.21-.89.49-1.7.84-2.42.35-.72.67-1.44.94-2.13.27-.7.28-1.43.01-2.2-.24-.69-.53-1.35-.87-1.96-.34-.61-.7-1.2-1.06-1.76-1.1.55-2.21,1.07-3.34,1.54-1.13.47-2.27.91-3.42,1.31-.77.27-1.77.61-3,1.04-1.23.43-2.49.84-3.77,1.24-1.28.4-2.52.74-3.71,1.03-1.19.28-2.17.43-2.95.44-.02.44-.01.84.03,1.21.04.37.13.75.26,1.14.16.46.89,1.07,2.18,1.83,1.29.76,2.9,1.6,4.81,2.53,1.91.93,3.98,1.87,6.21,2.82,2.22.95,4.38,1.79,6.49,2.53,2.1.73,3.98,1.36,5.62,1.86,1.64.51,2.8.77,3.5.79-.96-1.04-1.83-1.69-2.61-1.94-.78-.25-1.49-.52-2.15-.8-.66-.29-1.3-.76-1.91-1.41-.61-.65-1.24-1.9-1.88-3.74Z"/>
      </g>
      <g>
        <path class="cls-2" d="M110.14,458.18c-.29-.33-.78-.67-1.47-1.02-.69-.35-1.42-.74-2.17-1.16l1.32-2.43c1.22.51,2.58,1.14,4.06,1.9,1.49.76,2.99,1.49,4.5,2.19,1.51.71,3.01,1.31,4.49,1.81,1.48.5,2.82.75,4.03.74-.13.83-.3,1.68-.49,2.58-.2.89-.33,1.85-.39,2.87-.06,1.02-.03,2.11.09,3.28.12,1.17.45,2.48.97,3.93.64,1.76,1.47,3.14,2.48,4.16,1.02,1.01,2.46,1.83,4.33,2.45l.29,2.23c-1.68.61-3.45.88-5.29.82-1.84-.07-3.64-.43-5.39-1.09-1.75-.66-3.42-1.57-5.01-2.72-1.59-1.16-2.93-2.53-4.03-4.12l-51.14,18.58-20.21,7.6c-.45-2.43-.71-4.52-.79-6.27-.07-1.75.11-3.33.55-4.74.44-1.42,1.15-2.78,2.15-4.09.99-1.31,2.36-2.8,4.09-4.47l16.15-15.21c.18-1.88.16-3.91-.06-6.08-.23-2.17-.73-4.26-1.5-6.27-.78-2.01-1.79-3.85-3.04-5.51-1.25-1.67-2.77-2.91-4.54-3.74l-12.73,4.62c1.59,2.71,2.63,5.71,3.13,8.99.5,3.28.19,6.59-.93,9.94l3.31,1.26-.87,2.26c-1.22-.25-2.59-.53-4.13-.83-1.54-.31-3.12-.66-4.74-1.07-1.62-.41-3.22-.89-4.8-1.44-1.58-.55-2.94-1.18-4.06-1.9,1.24-1.58,2-3.78,2.27-6.6.27-2.82.03-5.68-.71-8.57-.75-2.89-2.03-5.47-3.86-7.75-1.82-2.28-4.25-3.65-7.27-4.11l-.62-1.72c1.94-.62,3.96-.83,6.06-.64,2.1.19,4.12.73,6.04,1.63,1.93.9,3.77,2.09,5.52,3.58,1.75,1.48,3.28,3.2,4.59,5.15l20.87-7.58-1.5-4.13c-.33-.92-.7-1.52-1.11-1.8-.41-.29-.84-.41-1.3-.37-.46.04-.94.16-1.42.38-.49.22-.99.43-1.53.62-.13-.82.01-1.63.42-2.42.4-.79.91-1.54,1.52-2.24.61-.7,1.28-1.29,2.02-1.77.73-.48,1.44-.85,2.13-1.1,2.06-.75,3.79-1.01,5.17-.78s2.55.78,3.52,1.64c.96.86,1.79,1.95,2.48,3.25.69,1.31,1.31,2.72,1.87,4.25l23.74-8.62-.29-.8c-1.46-3.54-3.4-5.97-5.83-7.29-2.43-1.33-4.84-1.47-7.23-.42l-1.41-2.08c2.21-2.02,4.75-3.37,7.61-4.06,2.86-.7,5.66-.78,8.41-.26,2.74.52,5.23,1.67,7.48,3.45,2.25,1.78,3.9,4.12,4.96,7.03.86,2.37,1.26,4.6,1.2,6.7-.06,2.1-.46,4.1-1.19,6.01-.73,1.91-1.71,3.74-2.94,5.48-1.23,1.74-2.59,3.41-4.09,4.99l-14.89,14.75c-.67,1.72-.93,3.46-.77,5.21.16,1.76.59,3.46,1.28,5.12.69,1.65,1.56,3.17,2.63,4.56,1.06,1.39,2.18,2.6,3.34,3.65l15.82-5.75c-1.19-2.08-1.92-4.34-2.21-6.79-.29-2.45.06-5.06,1.04-7.84ZM66.28,463.22l27.11-25.43c.47-.61,1.03-1.15,1.67-1.65.64-.49,1.21-1.08,1.69-1.78.48-.69.84-1.5,1.08-2.4.23-.91.23-2.05-.01-3.43l-40.48,14.71c3.78,2.78,6.32,5.86,7.64,9.23,1.31,3.37,1.75,6.96,1.31,10.75ZM84.98,463.95l-16.46,16.5c-1.6,1.79-3.04,3.55-4.32,5.27-1.28,1.72-2.13,3.43-2.54,5.14l30.96-11.25c-2.57-1.83-4.47-4.21-5.71-7.14-1.24-2.92-1.88-5.76-1.93-8.52Z"/>
        <path class="cls-2" d="M79.27,538.46c-1.28-.32-2.81-.73-4.59-1.22-1.78-.49-3.52-1-5.23-1.53-1.71-.53-3.3-1-4.78-1.39-1.48-.4-2.53-.63-3.16-.7-.32-.18-.66-.37-1.03-.57-.37-.19-.67-.46-.89-.8-.13-.21-.06-.72.23-1.54.29-.82.53-1.86.73-3.11.2-1.25.25-2.62.15-4.11-.1-1.49-.62-2.95-1.56-4.38-.67-1.02-1.49-1.89-2.45-2.62-.97-.73-1.78-1.6-2.45-2.62l.71-.47c.88-.58,1.76-.88,2.61-.91.86-.03,1.7.1,2.52.39.82.29,1.62.61,2.4.98.77.37,1.58.67,2.41.9.49.16.93.09,1.32-.21.38-.3.79-.5,1.22-.58l22.96-15.05c1.36-.89,2.49-2,3.38-3.31.89-1.31,1.44-2.77,1.66-4.37l1.33-1.31c.49,1.04.99,2.1,1.5,3.18.51,1.07,1.08,2.09,1.7,3.04,1.12,1.7,2.39,3.2,3.82,4.5,1.43,1.3,2.96,2.48,4.59,3.55,1.63,1.07,3.29,2.05,4.99,2.93,1.69.88,3.42,1.77,5.17,2.66-1.35,1.66-2.5,3.27-3.47,4.83-.97,1.56-1.86,3.14-2.66,4.73-.8,1.59-1.51,3.25-2.14,4.97-.62,1.72-1.2,3.58-1.73,5.59l-1.02,1.11c-.43.09-1.31-.11-2.65-.6-1.34-.49-2.91-1.11-4.72-1.86-1.81-.76-3.78-1.61-5.9-2.55-2.13-.94-4.17-1.84-6.14-2.69-1.97-.85-3.75-1.6-5.35-2.26-1.6-.66-2.79-1.07-3.58-1.23-.57.18-1.05.44-1.44.8-.4.36-.83.69-1.31,1-.61.4-1.23.76-1.85,1.07-.62.31-1.23.76-1.82,1.34.01,1.06.19,2.11.53,3.15.34,1.04.52,2.09.54,3.15,0,.59-.07,1.26-.2,2.03-.13.77-.02,1.42.34,1.97.22.34,1,.63,2.33.88,1.33.25,2.51.57,3.54.96l-.56,2.26ZM92.68,510.85l-10.44,6.99c.24.23,1.07.66,2.46,1.3,1.39.64,2.92,1.3,4.57,1.96,1.65.67,3.22,1.27,4.69,1.81,1.47.54,2.36.81,2.65.82.75-.49,1.59-1.5,2.53-3.04.94-1.54,1.86-3.21,2.76-5.02.91-1.81,1.78-3.6,2.61-5.36.83-1.77,1.53-3.12,2.08-4.06-.45-.39-.92-.93-1.43-1.62-.5-.69-1.1-.9-1.81-.64-.77.31-1.62.75-2.56,1.32-.94.57-1.89,1.19-2.86,1.87-.96.68-1.89,1.34-2.79,1.98-.9.64-1.72,1.2-2.47,1.69Z"/>
        <path class="cls-2" d="M131.1,527.64c.65.62,1.01,1.56,1.1,2.82.09,1.26-.01,2.6-.29,4.02-.28,1.42-.68,2.75-1.2,4-.52,1.25-1,2.17-1.45,2.75-3.25,3.87-6.78,7.67-10.6,11.38-3.83,3.71-7.54,7.34-11.13,10.88-.22.46-.5.88-.83,1.23-.34.35-.64.73-.92,1.14.02.8.14,1.54.35,2.19.22.66.42,1.33.61,2.01s.32,1.4.4,2.15c.08.75.04,1.55-.12,2.42,1.11.49,2.22.85,3.35,1.09,1.13.23,2.27.51,3.43.83.34-.24.79-.65,1.35-1.24l6.4-6.71c.5-.53,1.29-1.32,2.36-2.39,1.07-1.06,2.23-2.25,3.5-3.58,1.26-1.33,2.52-2.74,3.78-4.23,1.26-1.5,2.32-2.93,3.18-4.3.86-1.37,1.42-2.64,1.68-3.79.26-1.16.04-2.07-.67-2.75-.88-.84-1.97-1.29-3.27-1.35-1.3-.06-2.38-.5-3.27-1.35.45-.24.85-.57,1.18-.98.33-.41.79-.62,1.37-.64.46-.01,1.66.09,3.59.3,1.93.21,3.98.48,6.14.8,2.16.32,4.16.65,5.98.98,1.82.33,2.82.58,3,.75.47.45.66,1.08.56,1.89-.23,2.59-.88,4.98-1.95,7.17s-2.37,4.23-3.91,6.13c-1.54,1.91-3.22,3.76-5.05,5.56-1.83,1.8-3.58,3.58-5.27,5.34-.84.88-2.16,2.18-3.96,3.89-1.8,1.71-3.46,3.56-4.96,5.55-1.51,1.99-2.57,3.96-3.18,5.9-.62,1.94-.16,3.64,1.37,5.1.06.17.21.37.45.59.12.11.42.32.92.63.5.3,1.08.64,1.75.99.67.36,1.29.7,1.88,1.03.58.33,1.02.58,1.31.75l11.12-11.65c.45-.47,1.36-1.43,2.74-2.87,1.38-1.44,2.79-2.99,4.25-4.63,1.46-1.65,2.76-3.19,3.9-4.62,1.14-1.44,1.71-2.33,1.71-2.67-.08-.86-.17-1.74-.28-2.62-.11-.89-.23-1.74-.36-2.54-.65-.62-1.39-.99-2.23-1.11-.84-.12-1.66-.24-2.47-.33l-1.06-1.01c.22-.47.48-.89.79-1.27.31-.38.63-.75.97-1.1.29.05,1.43.24,3.42.57,1.99.33,4.14.66,6.45,1.01,2.31.35,4.42.67,6.32.97,1.91.3,2.92.51,3.04.62-.54,1.74-.97,3.26-1.32,4.56-.34,1.3-.46,2.51-.34,3.63.11,1.12.54,2.2,1.28,3.25.74,1.05,1.93,2.13,3.57,3.24-1.12,1.18-2.06,1.89-2.8,2.14-.74.25-1.46.32-2.15.22-.69-.1-1.36-.26-2-.47-.64-.21-1.42-.26-2.33-.12-.45.36-.85.71-1.18,1.06s-.7.74-1.09,1.15l-16.67,17.65c-.67.71-1.23,1.5-1.67,2.37-.44.88-.82,1.69-1.15,2.45-.33.75-.62,1.47-.86,2.13-.24.67-.5,1.15-.79,1.44l-.25.26c-.82-.79-1.49-1.62-2-2.5-.51-.88-1.18-1.71-2-2.5-5.41-5.17-11.88-8.4-19.39-9.72-.75-.16-1.6-.12-2.54.1-.95.22-1.74.03-2.39-.59-.41-.39-.72-.83-.94-1.32-.21-.48-.44-.95-.68-1.41-.06-2.42.21-4.38.81-5.89.6-1.51,1.36-3.28,2.29-5.32-.71-.67-1.91-1.15-3.62-1.42-1.7-.28-3.56-.45-5.58-.51-2.02-.07-3.96-.09-5.83-.08-1.87.01-3.27-.02-4.19-.12-.21-1.43-.27-2.75-.18-3.97.09-1.21.07-2.38-.04-3.49-.11-1.12-.4-2.21-.85-3.26-.46-1.05-1.33-2.2-2.63-3.43-.59-.56-1.27-.93-2.05-1.12-.78-.18-1.49-.47-2.13-.86.22-.47.41-.79.58-.96.79-.82,1.65-1.38,2.59-1.66.94-.28,1.9-.43,2.88-.46.98-.02,1.96.07,2.94.28.98.21,1.93.36,2.86.45l8.51-8.74c1.12-1.18,2.46-2.55,4-4.11,1.54-1.56,2.97-3.24,4.28-5.02,1.31-1.79,2.3-3.59,2.98-5.42.67-1.83.67-3.63,0-5.39-.71-.67-1.45-1.3-2.25-1.89-.79-.59-1.54-1.21-2.24-1.89l.59-.79c.23-.12.81-.18,1.76-.17.95,0,2.09.08,3.41.22,1.32.14,2.75.32,4.28.55,1.53.22,2.96.43,4.29.63,1.33.2,2.44.39,3.33.57.9.18,1.43.36,1.61.52Z"/>
        <path class="cls-2" d="M265.7,576.6c.45.93.72,1.84.8,2.73.08.89.25,1.72.5,2.49s.69,1.49,1.33,2.13c.63.65,1.69,1.23,3.15,1.73s2.55.64,3.28.42c.72-.22,1.42-.44,2.09-.64l.69,1.01c-.45,1.31-1.24,2.41-2.37,3.31-1.13.9-2.39,1.63-3.78,2.18-1.4.55-2.82.94-4.28,1.17-1.46.23-2.76.28-3.92.13l-19.57,56.87c1.88-.21,3.72-.57,5.53-1.07,1.8-.5,3.47-1.02,4.99-1.57,1.52-.55,2.85-1.1,3.99-1.66,1.14-.55,2.03-1.02,2.67-1.4l.95,1.36c-3.33,3.67-6.91,6.51-10.73,8.5-3.83,2-7.79,3.32-11.88,3.97-4.1.65-8.31.71-12.64.17-4.33-.54-8.69-1.57-13.07-3.08-4.62-1.59-8.46-4.24-11.52-7.96-3.06-3.72-5.34-7.92-6.82-12.61-1.49-4.68-2.22-9.54-2.21-14.57,0-5.03.73-9.62,2.16-13.77,1.64-4.77,3.99-9.34,7.04-13.71,3.05-4.37,6.62-8.24,10.7-11.61,4.08-3.37,8.51-6.12,13.29-8.26,4.78-2.14,9.74-3.31,14.89-3.52l.25,1.89c-3.74.86-7.19,2.34-10.36,4.43-3.17,2.09-6.02,4.57-8.56,7.44-2.54,2.87-4.73,5.99-6.57,9.35-1.85,3.36-3.34,6.7-4.48,10.01-1.51,4.38-2.45,8.88-2.83,13.48-.38,4.6.02,8.93,1.21,12.99,1.18,4.06,3.21,7.73,6.08,11,2.88,3.27,6.77,5.75,11.7,7.44.54.19,1.26.46,2.17.81.91.36,1.97.7,3.19,1.03,1.22.33,2.57.61,4.04.81,1.48.21,3.01.24,4.61.1l19.73-57.33c-1.77-.61-3.13-1.4-4.09-2.37-.96-.97-1.7-2-2.23-3.09-.53-1.08-.87-2.15-1.03-3.19-.16-1.04-.29-1.92-.38-2.65l-2.59.79c-2.25,6.54-4.58,13.37-6.99,20.5-2.41,7.13-4.74,13.96-6.99,20.5-.93,2.69-2,4.82-3.23,6.37-1.23,1.56-2.64,2.79-4.24,3.7-1.6.91-3.42,1.58-5.46,1.99-2.04.42-4.37.82-6.99,1.21l-.76-1.55c1.32-.58,2.3-1.12,2.95-1.63.65-.51,1.22-1.49,1.73-2.95l15.75-44.64-9.9,2.14-.56-2.13c1.24-.35,2.94-.8,5.11-1.34,2.17-.54,4.54-1.13,7.12-1.74,2.58-.62,5.25-1.25,8-1.89,2.76-.64,5.39-1.24,7.91-1.79,2.51-.55,4.77-1.05,6.77-1.48,2-.43,3.55-.76,4.66-.98Z"/>
        <path class="cls-2" d="M307.28,611.34c.49.04.82.43,1,1.18s.44,1.59.77,2.51c.33.93.85,1.79,1.56,2.58.71.79,1.87,1.26,3.5,1.39.97.08,2.05-.12,3.23-.59-.15,1.87-.57,3.18-1.24,3.94-.67.76-1.78,1.53-3.31,2.3-.25,2.1-.49,4.2-.7,6.31-.22,2.1-.41,4.21-.58,6.32-.09,1.14-.25,2.55-.47,4.25-.22,1.7-.41,3.48-.56,5.34-.15,1.87-.21,3.74-.16,5.62.05,1.88.32,3.56.81,5.02.49,1.47,1.25,2.63,2.28,3.49,1.03.86,2.49,1.25,4.37,1.16.2.51.28,1.04.24,1.61-.03.33-.17.52-.42.58-.45.45-1.14,1.19-2.08,2.22-.94,1.02-1.94,2.04-3,3.06-1.06,1.01-2.1,1.89-3.09,2.62-1,.73-1.74,1.08-2.23,1.04-1.22-.1-2.3-.56-3.25-1.37-.96-.81-1.81-1.8-2.57-2.97-.76-1.16-1.44-2.36-2.03-3.59-.59-1.23-1.05-2.35-1.38-3.36-.28.47-1.02,1.24-2.21,2.33-1.19,1.09-2.51,2.18-3.94,3.29-1.44,1.11-2.8,2.08-4.09,2.91-1.29.83-2.18,1.23-2.67,1.19-1.78-.15-3.6-.93-5.44-2.34-1.84-1.42-3.52-3.1-5.03-5.07-1.51-1.96-2.71-4.04-3.59-6.23-.88-2.19-1.25-4.18-1.1-5.97.19-2.35.71-4.39,1.54-6.12.83-1.72,1.92-3.25,3.25-4.57,1.33-1.32,2.84-2.5,4.51-3.55,1.68-1.04,3.41-2.06,5.21-3.06-.34-.84-1.1-2.07-2.27-3.67-1.17-1.61-2.37-3.23-3.58-4.89-1.21-1.65-2.29-3.19-3.23-4.61-.94-1.42-1.39-2.46-1.33-3.11.05-.57.34-.97.89-1.21.55-.24,1.04-.5,1.47-.8,1.23-.06,2.36-.42,3.39-1.07,1.03-.65,1.97-1.35,2.8-2.1.84-.75,1.59-1.46,2.26-2.14.67-.68,1.21-1.08,1.63-1.21.79.31,1.28,1,1.48,2.08.2,1.08.45,2.18.77,3.31.31,1.13.86,2.17,1.64,3.13.78.96,2.14,1.52,4.09,1.68,1.05.09,2.14-.25,3.27-1.02,1.12-.76,2.26-1.67,3.41-2.72s2.25-2.08,3.32-3.09c1.06-1.01,2.01-1.69,2.86-2.03ZM278.57,621.09c-.04.49.61,1.72,1.96,3.71,1.35,1.99,2.88,4.17,4.6,6.56,1.72,2.39,3.39,4.67,5.01,6.84,1.62,2.17,2.68,3.61,3.2,4.3.12.5.37.93.75,1.29.38.36.54.82.5,1.39-.2.39-.48.62-.85.67-.37.05-.73.14-1.06.28l-6.47-9.1c-.74.1-1.37.54-1.88,1.31-.51.77-.93,1.66-1.26,2.65-.33,1-.59,1.99-.8,3-.21,1-.33,1.83-.39,2.48-.17,2.11.04,4.02.63,5.74.59,1.72,1.49,3.24,2.68,4.57,1.2,1.32,2.64,2.38,4.33,3.17,1.69.79,3.55,1.27,5.58,1.44,1.2-.72,1.99-1.41,2.37-2.07.38-.66.63-1.68.74-3.06l1.9-23.1c.07-.89.16-1.74.27-2.55.11-.81.12-1.66.03-2.57-.04-.49-.23-.9-.57-1.21-.34-.31-.71-.59-1.1-.83-.39-.23-.77-.49-1.16-.77-.39-.28-.68-.67-.88-1.17-.14-.26-.24-.59-.29-1-.05-.41-.27-.63-.68-.67-1.7-.14-3.54.12-5.51.77-1.97.65-3.97.9-6,.73l-1.45-.24-4.2-2.55Z"/>
        <path class="cls-2" d="M365.92,607.02l2.22.12c.28,2.51-.11,5.03-1.17,7.56s-2.31,4.93-3.73,7.17c-1.43,2.25-2.77,4.26-4.05,6.04-1.27,1.78-2.02,3.13-2.25,4.06,2.15.17,4.33-.04,6.56-.62,2.22-.58,4.39-.99,6.49-1.22.13,1.13,0,2.23-.37,3.29-.37,1.07-.49,2.2-.35,3.42l1.93,17.09c.18,1.62.71,3.01,1.58,4.18.87,1.17,1.38,2.48,1.55,3.94-1.63.02-3.22-.04-4.75-.2-1.53-.15-3.11-.14-4.72.04-3.8.43-7.12,1.29-9.96,2.59-2.84,1.3-5.21,3.7-7.11,7.19-.73.08-1.47-.14-2.22-.67-.76-.53-1.56-1.11-2.41-1.75-.85-.64-1.73-1.22-2.65-1.73-.92-.51-1.86-.71-2.83-.6-2.59.29-4.26.85-5.03,1.67-.77.82-1.3,2.48-1.59,4.97l-2.18.25c-.21-.39-.36-.98-.45-1.79-.18-1.62.26-3.65,1.34-6.1,1.07-2.45,2.41-4.92,4.02-7.39,1.6-2.47,3.28-4.79,5.05-6.95,1.76-2.16,3.19-3.8,4.3-4.9-2.09.32-3.8.61-5.12.88s-2.59.48-3.8.61c-1.21.14-2.36.14-3.43.02.05-.99.4-2.05,1.05-3.19.65-1.14.93-2.11.84-2.92-.16-1.37-.3-2.87-.44-4.49-.14-1.62-.29-3.26-.43-4.92-.15-1.66-.35-3.28-.61-4.84-.26-1.57-.58-2.98-.97-4.25-.25-.71-.81-1.4-1.71-2.08-.9-.68-1.37-1.22-1.41-1.62-.04-.4.08-.72.38-.96.3-.24.65-.38,1.06-.43.89-.1,1.82-.04,2.78.18.97.22,1.93.27,2.9.16,3.8-.43,7.27-1.43,10.4-3.01,3.14-1.58,6.03-3.67,8.69-6.26.45-.38.87-.59,1.28-.64.32-.04.67.13,1.04.5.37.37.78.75,1.23,1.15.46.4.97.77,1.54,1.12.57.35,1.18.48,1.83.41,1.86-.21,3.16-.64,3.91-1.3.74-.66,1.34-1.91,1.79-3.76ZM334.52,661.75c1.69-.93,3.23-1.86,4.6-2.79,1.37-.93,3.1-1.52,5.21-1.75,1.94-.22,3.52-.13,4.75.26,1.23.39,2.27.87,3.11,1.43.84.56,1.59,1.07,2.26,1.53.66.46,1.36.64,2.09.56.65-.07,1.24-.24,1.79-.51.54-.26,1.14-.44,1.79-.51-.22-3.41-.5-6.8-.84-10.16-.34-3.36-.66-6.74-.96-10.14-.44-1.01-1.28-1.53-2.51-1.56-1.23-.02-2.17,0-2.82.07-.08,0-.57.54-1.48,1.58-.91,1.04-2,2.37-3.29,3.99s-2.69,3.39-4.19,5.32c-1.5,1.93-2.93,3.77-4.29,5.52-1.36,1.75-2.52,3.27-3.48,4.57-.96,1.29-1.54,2.16-1.73,2.59ZM354.35,621.95c-1.13.13-2.11,0-2.93-.41-.82-.4-1.55-.85-2.18-1.35-.63-.5-1.26-.96-1.87-1.38-.62-.42-1.34-.59-2.14-.5-.73.08-1.43.22-2.1.42-.67.2-1.33.42-1.95.65.3,1.19.56,2.39.77,3.6.22,1.2.39,2.41.53,3.62.09.81.21,1.86.35,3.15.15,1.29.27,2.61.38,3.95.11,1.34.17,2.62.19,3.85.02,1.23-.06,2.22-.22,2.97.42.12.82.2,1.19.23.37.04.76.04,1.17,0,.48-.05,1.24-.63,2.26-1.73,1.02-1.1,2.2-2.48,3.52-4.14,1.33-1.66,2.7-3.47,4.11-5.44,1.42-1.96,2.71-3.88,3.89-5.78,1.18-1.89,2.19-3.58,3.05-5.07.85-1.49,1.37-2.57,1.54-3.24-1.23.71-2.05,1.42-2.46,2.12-.41.7-.83,1.34-1.26,1.92-.43.58-1.02,1.1-1.79,1.55-.77.46-2.12.79-4.06,1.01Z"/>
        <path class="cls-2" d="M384.12,582.04l1.61.31c.25,2.38.38,4.65.39,6.8.01,2.15.36,4.44,1.04,6.87l1.61,5.25,4.23-1.19c.94-.26,1.75-.75,2.44-1.45.69-.7,1.5-1.18,2.44-1.45.12,1.91.4,3.44.85,4.58.45,1.14.92,2.58,1.4,4.3l.08.74c-.91.09-1.76.03-2.58-.16-.82-.19-1.6-.56-2.34-1.11-.7.53-1.44.96-2.24,1.26-.8.31-1.63.59-2.49.83,1.23,4.98,2.52,9.94,3.87,14.88,1.35,4.94,2.72,9.88,4.11,14.81.35,1.25.74,2.54,1.15,3.86.41,1.32.87,2.58,1.38,3.79,1.21.42,2.44.77,3.66,1.06,1.22.29,2.48.63,3.78,1.03.55-.15.95-.46,1.2-.91.25-.45.54-.85.87-1.2l1.76-.5.65.96c-.22.4-.83,1.4-1.82,2.99-.99,1.59-2.01,3.27-3.08,5.05-1.06,1.78-2.05,3.39-2.95,4.82-.91,1.44-1.4,2.17-1.47,2.19l-1.34-.26c-.9-.51-1.91-.99-3-1.44-1.1-.45-2.26-.82-3.48-1.11s-2.44-.47-3.64-.56c-1.21-.08-2.28,0-3.22.27-.94.26-1.8.66-2.58,1.17-.79.52-1.61.9-2.47,1.14-.31-1.09-.3-2.18.04-3.24.33-1.06.81-2.08,1.42-3.06.61-.98,1.31-1.89,2.08-2.74.77-.85,1.44-1.65,1.99-2.4,0-.26-.2-1.23-.63-2.93-.44-1.69-.98-3.78-1.64-6.26-.66-2.48-1.37-5.17-2.15-8.08-.78-2.91-1.53-5.65-2.26-8.24-.73-2.58-1.36-4.83-1.9-6.75-.54-1.92-.9-3.19-1.07-3.82l-.51-1.38-1.79.38c-1.72.49-3,1.14-3.82,1.96-.83.82-1.93,1.64-3.3,2.45-.15-.21-.29-.59-.45-1.14-.42-1.49-.76-3-1.02-4.53-.26-1.53-.61-3.08-1.05-4.65.59,0,1.43.13,2.51.37,1.08.25,1.82.31,2.21.2l4.93-1.39c-.48-1.72-.95-2.99-1.38-3.79-.44-.81-.88-1.46-1.32-1.97-.44-.51-.91-.99-1.42-1.44-.51-.45-1.03-1.19-1.58-2.22,1.75-1,3.2-1.93,4.34-2.81,1.15-.87,2.16-1.77,3.04-2.7.88-.92,1.68-1.97,2.41-3.15.73-1.17,1.57-2.61,2.52-4.32Z"/>
        <path class="cls-2" d="M448.1,631.16c-.73,1.2-1.55,2.47-2.48,3.84-.92,1.37-1.81,2.76-2.66,4.18-.85,1.42-1.58,2.82-2.2,4.18-.61,1.37-.96,2.69-1.03,3.96l-1.01.43c-2.03-.81-3.64-1.54-4.84-2.18-1.2-.64-2.35-1.01-3.46-1.11-1.11-.1-2.33.09-3.67.57-1.34.48-3.15,1.48-5.43,2.98l-.94-.66c.04-1.78.39-3.28,1.07-4.5.67-1.22,1.31-2.57,1.92-4.06-.04-.51-.14-1-.29-1.47-.16-.46-.33-.92-.52-1.37l-20.95-49.16c-.89-2.09-1.86-3.65-2.91-4.66-1.05-1.01-2.61-1.96-4.66-2.85-.04-.51.21-.97.74-1.38.54-.4,1-.78,1.38-1.12,1.64-1.14,2.92-2.33,3.85-3.56.93-1.24,1.73-2.48,2.39-3.74.66-1.25,1.3-2.45,1.92-3.6.62-1.14,1.46-2.21,2.55-3.21.21.09.46.16.75.21.29.05.48.19.58.42.13.3.15.56.06.77.19,1.07.28,2.11.27,3.13,0,1.02-.01,2.04-.02,3.06,0,1.02.06,2.05.19,3.1.14,1.05.44,2.13.92,3.25l13.77,32.32c.54,1.27,1.23,2.88,2.06,4.83.83,1.95,1.68,3.99,2.55,6.14.87,2.15,1.73,4.26,2.56,6.33.84,2.08,1.54,3.88,2.1,5.4.8-.61,1.71-.86,2.72-.76,1.01.1,1.98.33,2.88.7.91.37,1.71.73,2.39,1.1.69.37,1.16.55,1.42.52l.5-.08c.37-.16.87-.66,1.49-1.5.62-.84,1.21-1.73,1.78-2.68l2.27,2.21Z"/>
        <path class="cls-2" d="M481.63,610.56c-.36,1.27-.82,2.79-1.36,4.55-.54,1.76-1.1,3.49-1.68,5.19-.58,1.7-1.09,3.27-1.53,4.73-.44,1.46-.7,2.51-.79,3.14-.19.31-.39.65-.6,1.01-.21.37-.48.66-.83.87-.21.13-.72.04-1.53-.28-.81-.31-1.84-.59-3.08-.83-1.24-.24-2.61-.33-4.1-.27-1.49.06-2.97.53-4.42,1.42-1.04.64-1.94,1.43-2.7,2.37-.76.94-1.66,1.73-2.7,2.37l-.45-.73c-.55-.9-.83-1.78-.83-2.64,0-.86.15-1.69.47-2.51.31-.81.66-1.6,1.05-2.36.39-.76.71-1.56.97-2.38.18-.49.12-.93-.17-1.33-.29-.39-.47-.81-.55-1.24l-14.36-23.4c-.85-1.39-1.92-2.54-3.21-3.47-1.29-.93-2.72-1.52-4.32-1.79l-1.27-1.37c1.06-.46,2.13-.92,3.22-1.4,1.09-.48,2.12-1.01,3.09-1.61,1.73-1.06,3.27-2.29,4.61-3.69,1.34-1.39,2.57-2.89,3.69-4.48,1.12-1.59,2.15-3.23,3.08-4.9.93-1.67,1.87-3.37,2.82-5.09,1.62,1.39,3.19,2.6,4.72,3.61,1.53,1.02,3.08,1.95,4.65,2.8,1.57.85,3.21,1.61,4.91,2.28,1.7.67,3.54,1.31,5.53,1.9l1.08,1.06c.07.43-.15,1.31-.67,2.63-.53,1.32-1.19,2.88-2,4.67-.81,1.79-1.72,3.73-2.73,5.82-1,2.1-1.96,4.12-2.87,6.05-.91,1.94-1.71,3.7-2.42,5.28-.7,1.58-1.15,2.76-1.33,3.54.16.57.41,1.06.76,1.47.34.41.67.86.97,1.34.38.62.72,1.25,1.01,1.88.29.63.72,1.25,1.28,1.86,1.06.02,2.12-.13,3.17-.44,1.05-.31,2.1-.46,3.17-.44.59.02,1.26.11,2.02.26.76.15,1.42.06,1.97-.28.35-.21.66-.98.95-2.3.29-1.32.64-2.49,1.06-3.52l2.25.63ZM454.43,596.34l6.68,10.65c.23-.24.69-1.05,1.38-2.42.68-1.37,1.38-2.88,2.1-4.51.72-1.63,1.37-3.18,1.95-4.63.59-1.46.88-2.33.89-2.62-.47-.76-1.46-1.63-2.97-2.62-1.51-.98-3.16-1.95-4.94-2.91-1.78-.96-3.54-1.88-5.28-2.77-1.74-.89-3.07-1.62-4-2.2-.4.44-.95.9-1.66,1.38-.71.48-.94,1.08-.69,1.79.29.78.7,1.65,1.24,2.6.54.96,1.14,1.93,1.79,2.91.65.98,1.28,1.93,1.89,2.85.61.91,1.15,1.75,1.62,2.52Z"/>
        <path class="cls-2" d="M509.17,617.36c.44-2.21.54-3.86.29-4.96-.24-1.1-.69-1.87-1.33-2.29-.64-.42-1.41-.65-2.31-.67-.9-.02-1.86-.09-2.88-.22-1.03-.12-2.01-.39-2.95-.79-.94-.4-1.73-1.22-2.4-2.46-.91-1.56-1.12-3.18-.63-4.85.49-1.68,1.48-2.95,2.98-3.81,1.67-.9,3.33-1.12,4.99-.66,1.65.46,2.94,1.47,3.85,3.03,1.03,1.57,1.86,3.29,2.51,5.17.55,1.63.9,3.48,1.02,5.55.13,2.07-.18,4.28-.93,6.62l-2.21.34Z"/>
        <path class="cls-2" d="M500.36,497.56c-.53-.38-.99-.57-1.37-.59-.38-.02-.77,0-1.17.07-.4.07-.79.09-1.17.07-.38-.02-.84-.22-1.37-.59-.73-.51-1.18-1.18-1.35-2-.17-.82,0-1.59.51-2.32.51-.73,1.2-1.17,2.05-1.32.85-.15,1.64.04,2.37.55.53.38.87.74,1.02,1.09.15.35.26.73.33,1.12.07.4.18.77.33,1.13.15.35.49.72,1.02,1.09l2.69,1.9-.09-24.68c.52-.03,1.19-.1,2.02-.22.83-.11,1.71-.31,2.66-.59.94-.28,1.88-.69,2.81-1.23.93-.54,1.74-1.31,2.45-2.31.65-.93,1.06-1.86,1.22-2.79.16-.93.48-1.88.95-2.84,1.68,1.58,2.81,2.83,3.41,3.74.6.92.94,1.7,1.02,2.36.09.66.09,1.25,0,1.79-.08.54.04,1.15.36,1.82.32.67.98,1.51,1.97,2.5.99,1,2.65,2.31,4.98,3.95,2,1.4,4.31,3.06,6.95,4.96,2.64,1.91,5.44,3.9,8.4,5.98,2.96,2.08,6.01,4.21,9.16,6.37,3.15,2.17,6.21,4.17,9.19,6.02,2.98,1.85,5.78,3.45,8.41,4.8,2.63,1.35,4.93,2.32,6.9,2.92-1.43,2.88-2.76,5.27-4,7.18-1.24,1.91-2.22,3.79-2.92,5.63-.7,1.84-1.07,3.89-1.12,6.15-.04,2.26.47,5.16,1.56,8.7-1,.29-2.02.65-3.05,1.06-1.04.41-2.33,1.37-3.88,2.86l-.07.1-56.18-39.52-.11,2.91c.09.86.14,1.57.15,2.12,0,.55.11,1.08.31,1.57.2.49.55.98,1.05,1.48.5.5,1.24,1.1,2.24,1.8,8.72,6.13,17.47,12.17,26.27,18.11,8.8,5.94,17.56,11.98,26.27,18.11.73.51,1.79,1.16,3.18,1.94,1.39.78,2.96,1.44,4.72,1.98,1.76.54,3.57.82,5.45.85,1.87.02,3.59-.51,5.15-1.6l2.3,1.61c-1,.99-2.08,1.89-3.25,2.71-1.17.82-2.35,1.53-3.52,2.15-1.18.61-2.27,1.14-3.27,1.58-1,.44-1.81.74-2.43.9.29,2.69.45,4.91.46,6.66.01,1.75-.42,3.46-1.3,5.13-1.75-2.32-3.31-4.17-4.69-5.53-1.38-1.36-3-2.71-4.86-4.01-2-1.4-4-2.79-6.02-4.16-2.02-1.37-4.07-2.69-6.16-3.96-1.07,2.23-1.44,4.28-1.12,6.15.32,1.87,1.52,3.53,3.58,4.98l-.33,1.11c-1.78-.16-3.25-.4-4.42-.72-1.17-.32-2.48-1-3.94-2.03-3.13-2.2-5-4.88-5.6-8.04-.61-3.16-.49-6.48.37-9.96l-7.19-5.05-7.35-5.03-2.04,2.89c-.56.8-.84,1.45-.84,1.94,0,.5.15.92.44,1.28.3.36.67.67,1.13.94.46.27.92.57,1.38.9-.6.57-1.34.92-2.23,1.04-.88.12-1.79.14-2.71.03-.92-.1-1.79-.32-2.61-.64-.82-.32-1.52-.7-2.12-1.12-1.66-1.17-2.82-2.36-3.46-3.56-.65-1.2-.93-2.42-.86-3.66.08-1.24.41-2.49,1.01-3.77.6-1.27,1.34-2.54,2.23-3.8l-5.19-3.65c-1-.7-2.38-1.67-4.14-2.91-1.76-1.24-3.6-2.33-5.52-3.29-1.92-.95-3.75-1.52-5.51-1.71-1.75-.19-3.12.41-4.11,1.81-.66.93-.98,1.85-.97,2.75.01.9.2,1.76.58,2.57.38.81.89,1.6,1.55,2.36.66.76,1.27,1.44,1.84,2.04l-1.95.86c-1.85-.2-3.53-.84-5.06-1.92-3.66-2.57-5.94-5.69-6.84-9.36-.9-3.67-.02-7.4,2.65-11.19,1.73-2.46,3.61-4.07,5.64-4.83,2.03-.76,4.1-.99,6.23-.69,2.13.3,4.25,1.03,6.38,2.17,2.13,1.15,4.15,2.4,6.08,3.76l-.02-7.18-3.89-2.74ZM509.54,487.91c-.91.16-1.42.54-1.55,1.15-.13.61-.31,1.22-.55,1.85l-.09,9.04,11.07,7.79c2.62-1.04,4.78-2.66,6.47-4.85,1.69-2.19,2.72-4.75,3.09-7.67l-7.45-5.09c-1.26-.89-2.23-1.57-2.89-2.04-.67-.47-1.33-.76-1.99-.88-.66-.12-1.42-.1-2.27.04s-2.12.37-3.83.67ZM546.2,507.88l-15.94-11.06c-.41,2.7-1.38,5.17-2.91,7.42-1.54,2.25-3.75,3.95-6.64,5.1l16.86,11.86c.15-3.18,1-5.88,2.57-8.11,1.57-2.23,3.59-3.96,6.05-5.21ZM567.27,522.26l-18.7-12.86c-2.7,1.29-4.79,3.14-6.3,5.56-1.5,2.42-2.27,5.07-2.3,7.93l10.68,7.51c1.18-1.26,2.39-2.27,3.63-3.04,1.24-.77,2.54-1.42,3.91-1.95,1.37-.53,2.81-1.03,4.34-1.5,1.52-.47,3.11-1.02,4.75-1.66Z"/>
        <path class="cls-2" d="M520.46,434.59c.45-1.48,1.17-2.85,2.16-4.12.99-1.27,1.99-2.47,3.02-3.6.25-.26,1.38-.54,3.38-.81,2-.28,4.6-.59,7.81-.92,3.21-.33,6.87-.68,10.97-1.04,4.11-.35,8.34-.71,12.71-1.08,4.37-.36,8.71-.73,13.04-1.11,4.33-.37,8.35-.73,12.07-1.08,3.72-.34,6.95-.67,9.68-.99,2.73-.31,4.69-.58,5.87-.82,1.28-.29,2.33-.94,3.16-1.97s1.42-2.12,1.77-3.28c.26-.85.35-1.68.25-2.48-.1-.79-.01-1.62.25-2.48.36-.06.65-.05.89.02,1.32.4,2.46,1.39,3.43,2.96.97,1.57,1.88,3.3,2.75,5.18.87,1.88,1.76,3.69,2.68,5.42.92,1.73,1.99,2.95,3.21,3.67-.14.47-.44,1.01-.89,1.64-.45.63-.97,1.23-1.58,1.81-.6.58-1.24,1.07-1.91,1.46-.67.39-1.27.59-1.78.6-5.03.33-9.94.84-14.71,1.55-4.77.71-9.72,1.12-14.87,1.25l-9.15,28.58,11.9,8.63c.76-2.49,1.72-4.71,2.87-6.65,1.15-1.94,2.76-3.92,4.82-5.92-.24-.58-.43-1.17-.54-1.76-.12-.59-.16-1.22-.12-1.89l1.87-.7c.19,1.59.7,3.04,1.53,4.36.83,1.32,1.79,2.55,2.89,3.69,1.1,1.15,2.21,2.23,3.34,3.26,1.13,1.03,2.11,2.01,2.93,2.94.11.2.06.49-.13.85-.2.37-.32.63-.37.78-.07.23-.45.69-1.12,1.38-.68.68-1.49,1.61-2.44,2.76-.95,1.16-1.95,2.55-3.01,4.18-1.05,1.64-1.94,3.49-2.66,5.56-1.06,3.17-1.43,5.97-1.11,8.4.32,2.44.75,4.42,1.3,5.95-2.64-.81-4.73-2.17-6.27-4.09-1.54-1.92-2.66-4.02-3.36-6.32-.7-2.3-1.12-4.6-1.27-6.9-.14-2.3-.17-4.16-.08-5.58-.19-.23-1.08-.99-2.68-2.29-1.6-1.3-3.51-2.84-5.73-4.63s-4.61-3.69-7.18-5.71c-2.57-2.02-4.96-3.88-7.16-5.58-2.2-1.7-4.06-3.12-5.58-4.26-1.52-1.15-2.36-1.74-2.51-1.79-.54-.17-1.12-.11-1.71.17-.6.29-1.17.69-1.71,1.2-.54.52-1.01,1.08-1.41,1.67-.4.6-.67,1.13-.81,1.6-.69,2.26-.87,4.09-.54,5.51.33,1.42,1.54,2.45,3.64,3.09-3.06,1.1-5.67,1.24-7.84.4-2.17-.83-3.85-2.2-5.06-4.1-1.21-1.9-1.96-4.07-2.28-6.5-.32-2.44-.17-4.67.46-6.69.41-1.32,1.05-2.46,1.94-3.42.89-.96,1.5-1.98,1.84-3.07.14-.47.16-.8.05-1-.5-.32-.97-.64-1.43-.95-.46-.31-1-.56-1.62-.75-.93-.29-1.83-.2-2.7.26-.86.46-1.66,1.11-2.38,1.95-.72.84-1.35,1.76-1.86,2.75-.52.99-.89,1.88-1.13,2.65-.43,1.4-.62,2.6-.59,3.58.04.99.21,1.94.53,2.84.32.91.72,1.8,1.22,2.67.5.88.95,1.89,1.37,3.04-2.9.05-5.32-.76-7.23-2.41-1.92-1.65-3.36-3.69-4.32-6.11-.96-2.42-1.5-5.03-1.62-7.83-.12-2.8.17-5.33.86-7.58ZM565.32,454.73l5.8-18.89-27.39,1.93c.16.31.76.93,1.78,1.89,1.03.95,2.31,2.05,3.84,3.28,1.54,1.24,3.2,2.54,4.99,3.89,1.8,1.36,3.47,2.62,5.03,3.78,1.56,1.16,2.88,2.12,3.97,2.88,1.09.76,1.75,1.17,1.98,1.24Z"/>
      </g>
    </g>
    <g id="green_bit" data-name="green bit">
      <path class="cls-1" d="M370.6,212.25c5.18-.75,9.96.77,14.35,4.55,4.7,3.93,7.53,9.19,8.48,15.78,1.06,7.34-.85,13.89-5.73,19.64-4.88,5.75-11.56,9.24-20.03,10.47-6.78.98-14.6,0-23.49-2.94-3.13-1.08-12.17-4.77-27.12-11.06-8.8-3.72-15.32-6.24-19.54-7.55-13.98-4.32-23.83-6.3-29.55-5.95-3.24.18-5.06.25-5.45.21-1.26-.1-1.98-.77-2.16-1.99-.25-1.69.67-2.69,2.74-2.99.94-.14,8.67.76,23.17,2.7.69.09,1.26.1,1.73.04,1.04-.15,1.5-.6,1.39-1.35-.08-.56-.39-1.36-.92-2.39-.53-1.03-.83-1.78-.9-2.25-.18-1.22.49-1.95,1.99-2.16,3.77-.55,7.64,1.3,11.61,5.53,6.01,6.34,9.63,9.42,10.85,9.24s1.72-1.06,1.49-2.67c-.1-.66-.44-1.57-1.04-2.73-.6-1.16-.94-2.03-1.02-2.59-.3-2.07.73-3.28,3.08-3.62,2.45-.35,5.12,1.18,8.02,4.6,5.76,6.57,8.96,10.14,9.63,10.71,3.1,2.82,7.67,5.52,13.71,8.1,9.53,4.1,16.74,5.79,21.64,5.08,8.09-1.17,14.05-3.84,17.87-7.99,3.82-4.16,5.28-9.34,4.38-15.55-.82-5.65-2.96-10-6.43-13.05-3.47-3.05-7.56-4.24-12.26-3.56-10.07,1.46-14.53,6.14-13.39,14.05l.12.85c.16.46.48.65.95.58.38-.05,1.45-1.27,3.22-3.64,1.77-2.37,4.02-3.75,6.75-4.15,2.73-.4,5.14.36,7.25,2.27,2.1,1.91,3.39,4.51,3.87,7.8.37,2.54-.58,4.94-2.85,7.19-2.27,2.25-5.19,3.63-8.77,4.15-3.58.52-7-.55-10.26-3.2-3.27-2.65-5.17-5.86-5.72-9.62-.74-5.08.66-9.56,4.18-13.43,3.53-3.87,8.25-6.24,14.18-7.1Z"/>
      <path class="cls-1" d="M247.95,502.5c-5.19.61-9.94-1.03-14.23-4.93-4.59-4.06-7.28-9.39-8.06-16-.87-7.37,1.22-13.86,6.25-19.48,5.04-5.62,11.8-8.93,20.31-9.93,6.8-.8,14.6.39,23.4,3.56,3.1,1.17,12.04,5.09,26.81,11.78,8.7,3.95,15.15,6.64,19.34,8.07,13.86,4.69,23.66,6.93,29.38,6.74,3.24-.1,5.06-.12,5.45-.07,1.26.14,1.96.82,2.11,2.05.2,1.7-.74,2.67-2.82,2.92-.95.11-8.64-.99-23.09-3.32-.68-.11-1.26-.14-1.73-.08-1.04.12-1.51.56-1.42,1.32.07.57.35,1.37.86,2.41.51,1.04.79,1.8.84,2.27.14,1.23-.54,1.93-2.05,2.11-3.78.44-7.6-1.5-11.46-5.83-5.84-6.49-9.38-9.67-10.6-9.52s-1.75,1.02-1.56,2.63c.08.66.4,1.58.97,2.76.57,1.18.89,2.05.96,2.62.24,2.08-.82,3.26-3.18,3.53-2.46.29-5.09-1.32-7.89-4.82-5.58-6.72-8.69-10.37-9.34-10.97-3.02-2.9-7.52-5.72-13.49-8.47-9.42-4.35-16.58-6.23-21.5-5.66-8.12.96-14.15,3.46-18.08,7.51-3.93,4.05-5.53,9.2-4.79,15.43.67,5.67,2.69,10.07,6.08,13.22,3.39,3.14,7.44,4.44,12.17,3.88,10.1-1.19,14.69-5.75,13.76-13.69l-.1-.85c-.15-.46-.46-.66-.93-.61-.38.04-1.48,1.23-3.32,3.55-1.83,2.32-4.12,3.65-6.86,3.97-2.74.32-5.13-.5-7.18-2.46-2.05-1.96-3.27-4.6-3.66-7.9-.3-2.55.71-4.92,3.04-7.11,2.33-2.19,5.29-3.5,8.88-3.92s6.98.73,10.18,3.47c3.19,2.73,5.01,5.99,5.46,9.77.6,5.1-.91,9.54-4.54,13.32-3.63,3.78-8.41,6.02-14.36,6.72Z"/>
      <polygon class="cls-1" points="609.73 363.23 594.68 384.23 579.62 363.23 594.68 342.22 609.73 363.23"/>
      <polygon class="cls-1" points="60.6 363.23 45.54 384.23 30.49 363.23 45.54 342.22 60.6 363.23"/>
    </g>
  </g>
  <path class="cls-1" d="M169.84,36.3c.79-.36,1.65-.74,2.58-1.11.92-.38,1.9-.79,2.94-1.22,4.12-1.77,9.2-3.72,15.03-5.94,1.47-.52,2.98-1.06,4.54-1.62.78-.28,1.57-.56,2.37-.85.4-.14.8-.29,1.21-.43.41-.13.82-.27,1.24-.4,1.66-.55,3.36-1.11,5.1-1.68.87-.29,1.75-.58,2.64-.87.89-.29,1.8-.55,2.72-.82,1.83-.55,3.71-1.11,5.62-1.68.48-.14.96-.29,1.44-.43.49-.13.97-.26,1.46-.39.98-.26,1.97-.53,2.97-.79,1-.27,2-.54,3.01-.81,1.01-.27,2.03-.57,3.06-.81,2.07-.5,4.17-1.01,6.3-1.53,2.12-.54,4.3-.98,6.5-1.44,1.1-.23,2.21-.47,3.32-.7,1.11-.23,2.23-.48,3.36-.67,2.26-.41,4.55-.83,6.85-1.25.58-.11,1.15-.21,1.73-.32.58-.09,1.17-.18,1.75-.27,1.17-.18,2.34-.36,3.52-.54,4.71-.79,9.54-1.31,14.41-1.96,2.44-.24,4.9-.48,7.37-.72,2.47-.28,4.96-.43,7.46-.61,1.25-.09,2.5-.18,3.76-.26.63-.04,1.25-.1,1.88-.12l1.88-.08c2.51-.11,5.03-.21,7.55-.32,2.54-.06,5.11-.08,7.67-.12l1.92-.03h.96s.24-.02.24-.02h.2s.48.01.48.01l3.82.07c10.18.05,20.34.74,30.32,1.66,2.49.26,4.97.53,7.44.79,2.47.29,4.91.65,7.34.97,1.22.16,2.43.33,3.64.49,1.2.2,2.4.4,3.6.6,2.39.4,4.77.79,7.12,1.18,2.34.46,4.67.92,6.97,1.37,1.15.23,2.3.46,3.43.68,1.13.25,2.26.51,3.38.76,2.24.51,4.46,1.01,6.65,1.5,2.18.56,4.33,1.12,6.45,1.66,1.06.27,2.12.55,3.16.82,1.04.28,2.07.6,3.09.89,2.05.59,4.06,1.17,6.04,1.75,1,.27,1.97.58,2.93.89.97.31,1.92.61,2.87.92,1.9.61,3.76,1.19,5.58,1.79,3.61,1.28,7.08,2.48,10.36,3.68,3.26,1.25,6.37,2.41,9.27,3.55,2.88,1.2,5.57,2.33,8.07,3.35.31.13.62.26.93.38.3.13.6.27.89.4.59.26,1.17.52,1.73.77,1.13.5,2.21.99,3.23,1.44,2.05.91,3.88,1.72,5.45,2.49,1.57.75,2.91,1.39,4,1.91,2.18,1.03,3.34,1.58,3.34,1.58,0,0-1.11-.64-3.19-1.85-1.04-.6-2.33-1.34-3.84-2.21-.76-.43-1.56-.92-2.45-1.38-.89-.47-1.83-.97-2.82-1.49-1-.53-2.04-1.08-3.14-1.66-.55-.29-1.11-.59-1.69-.89-.29-.15-.58-.31-.87-.46-.3-.15-.6-.29-.9-.44-2.43-1.2-5.08-2.47-7.9-3.83-2.85-1.31-5.91-2.65-9.12-4.09-.8-.37-1.63-.7-2.47-1.04-.84-.34-1.68-.68-2.54-1.02-1.72-.69-3.47-1.4-5.27-2.12-1.81-.68-3.66-1.35-5.55-2.05-.94-.35-1.9-.7-2.86-1.05-.96-.36-1.93-.71-2.92-1.03-1.98-.65-4-1.31-6.04-1.98-1.03-.33-2.05-.68-3.1-1-1.05-.31-2.11-.61-3.17-.92-2.13-.62-4.29-1.25-6.47-1.89-2.2-.57-4.44-1.15-6.69-1.73-1.13-.29-2.26-.58-3.4-.88-1.15-.28-2.3-.51-3.46-.77-2.32-.51-4.67-1.03-7.03-1.55-2.38-.45-4.78-.9-7.2-1.35-1.21-.22-2.42-.44-3.64-.67-1.22-.19-2.45-.37-3.69-.56-2.47-.36-4.94-.77-7.44-1.11-2.5-.29-5.02-.59-7.55-.88-2.52-.33-5.07-.5-7.63-.72-1.28-.11-2.56-.22-3.84-.32l-1.92-.16-1.93-.1c-2.57-.13-5.15-.25-7.73-.38-1.29-.08-2.58-.08-3.87-.11l-3.88-.07-3.88-.06h-.48s-.28,0-.28,0h-.24s-.96.02-.96.02l-1.92.03c-2.56.05-5.12.07-7.68.14-2.58.12-5.16.25-7.73.37l-1.93.1c-.64.04-1.28.1-1.91.14-1.27.1-2.54.2-3.81.3-5.08.33-10.09.99-15.04,1.54-4.93.73-9.82,1.33-14.58,2.25-1.19.21-2.38.42-3.56.63-.59.1-1.18.21-1.77.31-.59.12-1.17.24-1.75.36-2.33.49-4.63.98-6.91,1.46-1.14.23-2.27.52-3.39.79-1.12.27-2.23.54-3.34.81-2.21.54-4.4,1.05-6.53,1.67-2.14.59-4.25,1.17-6.32,1.74-1.04.27-2.06.6-3.07.91-1.01.32-2.02.63-3.01.94-.99.31-1.98.62-2.96.93-.49.15-.98.31-1.46.46-.48.17-.96.33-1.43.5-1.9.66-3.77,1.31-5.59,1.94-.91.32-1.82.62-2.71.95-.88.34-1.76.67-2.62,1-1.73.66-3.41,1.3-5.06,1.93-.41.16-.82.32-1.22.48-.4.17-.8.34-1.19.5-.79.33-1.57.66-2.34.98-1.54.65-3.03,1.27-4.47,1.88-.36.15-.72.3-1.07.46-.35.16-.7.32-1.04.48-.69.31-1.37.62-2.04.93-1.33.61-2.61,1.2-3.85,1.77-.62.28-1.22.56-1.81.84-.58.29-1.15.57-1.71.85-1.11.55-2.17,1.08-3.18,1.58-4.05,1.95-7.12,3.71-9.24,4.84-2.11,1.15-3.24,1.77-3.24,1.77,0,0,1.17-.52,3.38-1.49,1.1-.49,2.45-1.09,4.05-1.8Z"/>
  <path class="cls-1" d="M169.84,687.54c.79.36,1.65.74,2.58,1.11.92.38,1.9.79,2.94,1.22,4.12,1.77,9.2,3.72,15.03,5.94,1.47.52,2.98,1.06,4.54,1.62.78.28,1.57.56,2.37.85.4.14.8.29,1.21.43.41.13.82.27,1.24.4,1.66.55,3.36,1.11,5.1,1.68.87.29,1.75.58,2.64.87.89.29,1.8.55,2.72.82,1.83.55,3.71,1.11,5.62,1.68.48.14.96.29,1.44.43.49.13.97.26,1.46.39.98.26,1.97.53,2.97.79,1,.27,2,.54,3.01.81,1.01.27,2.03.57,3.06.81,2.07.5,4.17,1.01,6.3,1.53,2.12.54,4.3.98,6.5,1.44,1.1.23,2.21.47,3.32.7,1.11.23,2.23.48,3.36.67,2.26.41,4.55.83,6.85,1.25.58.11,1.15.21,1.73.32.58.09,1.17.18,1.75.27,1.17.18,2.34.36,3.52.54,4.71.79,9.54,1.31,14.41,1.96,2.44.24,4.9.48,7.37.72,2.47.28,4.96.43,7.46.61,1.25.09,2.5.18,3.76.26.63.04,1.25.1,1.88.12l1.88.08c2.51.11,5.03.21,7.55.32,2.54.06,5.11.08,7.67.12l1.92.03h.96s.24.02.24.02h.2s.48-.01.48-.01l3.82-.07c10.18-.05,20.34-.74,30.32-1.66,2.49-.26,4.97-.53,7.44-.79,2.47-.29,4.91-.65,7.34-.97,1.22-.16,2.43-.33,3.64-.49,1.2-.2,2.4-.4,3.6-.6,2.39-.4,4.77-.79,7.12-1.18,2.34-.46,4.67-.92,6.97-1.37,1.15-.23,2.3-.46,3.43-.68,1.13-.25,2.26-.51,3.38-.76,2.24-.51,4.46-1.01,6.65-1.5,2.18-.56,4.33-1.12,6.45-1.66,1.06-.27,2.12-.55,3.16-.82,1.04-.28,2.07-.6,3.09-.89,2.05-.59,4.06-1.17,6.04-1.75,1-.27,1.97-.58,2.93-.89.97-.31,1.92-.61,2.87-.92,1.9-.61,3.76-1.19,5.58-1.79,3.61-1.28,7.08-2.48,10.36-3.68,3.26-1.25,6.37-2.41,9.27-3.55,2.88-1.2,5.57-2.33,8.07-3.35.31-.13.62-.26.93-.38.3-.13.6-.27.89-.4.59-.26,1.17-.52,1.73-.77,1.13-.5,2.21-.99,3.23-1.44,2.05-.91,3.88-1.72,5.45-2.49,1.57-.75,2.91-1.39,4-1.91,2.18-1.03,3.34-1.58,3.34-1.58,0,0-1.11.64-3.19,1.85-1.04.6-2.33,1.34-3.84,2.21-.76.43-1.56.92-2.45,1.38-.89.47-1.83.97-2.82,1.49-1,.53-2.04,1.08-3.14,1.66-.55.29-1.11.59-1.69.89-.29.15-.58.31-.87.46-.3.15-.6.29-.9.44-2.43,1.2-5.08,2.47-7.9,3.83-2.85,1.31-5.91,2.65-9.12,4.09-.8.37-1.63.7-2.47,1.04-.84.34-1.68.68-2.54,1.02-1.72.69-3.47,1.4-5.27,2.12-1.81.68-3.66,1.35-5.55,2.05-.94.35-1.9.7-2.86,1.05-.96.36-1.93.71-2.92,1.03-1.98.65-4,1.31-6.04,1.98-1.03.33-2.05.68-3.1,1-1.05.31-2.11.61-3.17.92-2.13.62-4.29,1.25-6.47,1.89-2.2.57-4.44,1.15-6.69,1.73-1.13.29-2.26.58-3.4.88-1.15.28-2.3.51-3.46.77-2.32.51-4.67,1.03-7.03,1.55-2.38.45-4.78.9-7.2,1.35-1.21.22-2.42.44-3.64.67-1.22.19-2.45.37-3.69.56-2.47.36-4.94.77-7.44,1.11-2.5.29-5.02.59-7.55.88-2.52.33-5.07.5-7.63.72-1.28.11-2.56.22-3.84.32l-1.92.16-1.93.1c-2.57.13-5.15.25-7.73.38-1.29.08-2.58.08-3.87.11l-3.88.07-3.88.06h-.48s-.28,0-.28,0h-.24s-.96-.02-.96-.02l-1.92-.03c-2.56-.05-5.12-.07-7.68-.14-2.58-.12-5.16-.25-7.73-.37l-1.93-.1c-.64-.04-1.28-.1-1.91-.14-1.27-.1-2.54-.2-3.81-.3-5.08-.33-10.09-.99-15.04-1.54-4.93-.73-9.82-1.33-14.58-2.25-1.19-.21-2.38-.42-3.56-.63-.59-.1-1.18-.21-1.77-.31-.59-.12-1.17-.24-1.75-.36-2.33-.49-4.63-.98-6.91-1.46-1.14-.23-2.27-.52-3.39-.79-1.12-.27-2.23-.54-3.34-.81-2.21-.54-4.4-1.05-6.53-1.67-2.14-.59-4.25-1.17-6.32-1.74-1.04-.27-2.06-.6-3.07-.91-1.01-.32-2.02-.63-3.01-.94-.99-.31-1.98-.62-2.96-.93-.49-.15-.98-.31-1.46-.46-.48-.17-.96-.33-1.43-.5-1.9-.66-3.77-1.31-5.59-1.94-.91-.32-1.82-.62-2.71-.95-.88-.34-1.76-.67-2.62-1-1.73-.66-3.41-1.3-5.06-1.93-.41-.16-.82-.32-1.22-.48-.4-.17-.8-.34-1.19-.5-.79-.33-1.57-.66-2.34-.98-1.54-.65-3.03-1.27-4.47-1.88-.36-.15-.72-.3-1.07-.46-.35-.16-.7-.32-1.04-.48-.69-.31-1.37-.62-2.04-.93-1.33-.61-2.61-1.2-3.85-1.77-.62-.28-1.22-.56-1.81-.84-.58-.29-1.15-.57-1.71-.85-1.11-.55-2.17-1.08-3.18-1.58-4.05-1.95-7.12-3.71-9.24-4.84-2.11-1.15-3.24-1.77-3.24-1.77,0,0,1.17.52,3.38,1.49,1.1.49,2.45,1.09,4.05,1.8Z"/>
</svg>