<?xml version="1.0" encoding="UTF-8"?>
<svg id="Layer_1" data-name="Layer 1" xmlns="http://www.w3.org/2000/svg" viewBox="0 0 986.47 211.5">
  <defs>
    <style>
      .cls-1 {
        fill: #fff;
      }
    </style>
  </defs>
  <g>
    <path class="cls-1" d="M53.01,54.7c-10.8-.17-14-.34-19.23-1.35-12.31-2.36-17.54-7.59-17.54-17.54C16.23,18.26,34.11,3.25,55.2,3.25c10.29,0,20.75,3.88,27.33,10.12l4.22-3.71,2.36,2.53c-9.95,7.93-15.01,13.66-23.11,26.48,11.13.17,15.52.51,21.76,1.86,12.65,2.53,18.89,9.95,18.89,22.27,0,8.94-2.36,14.84-9.95,25.47-2.36,3.37-4.89,6.58-10.46,13.49-11.3,14-15.35,19.57-19.74,27.5-11.64-8.27-20.92-11.64-32.39-11.64-9.95,0-18.56,2.7-27.16,8.6-2.36,1.69-4.39,2.87-4.89,2.87-.17,0-.17-.17-.17-.34.17-1.86,3.21-6.24,6.75-9.61,12.65-11.64,26.15-17.21,41.67-17.21,9.45,0,16.7,2.02,25.13,7.25l4.55-5.9c11.64-15.18,15.35-22.27,15.35-29.86,0-5.4-2.36-9.45-7.25-12.48-3.54-2.19-11.13-4.22-18.89-5.06-2.7-.34-6.75-.67-14-1.01l-3.88,7.42c3.21.17,6.07.34,8.6.51,17.88.84,25.3,5.23,25.3,15.01,0,4.89-2.02,10.12-5.4,14.34-1.35,1.52-2.19,2.19-2.87,2.19-.34,0-.51-.17-.51-.51,0-.17,0-.51.17-.84.17-.84.17-1.52.17-2.36,0-8.6-5.4-11.13-25.13-11.81l-8.1-.34c-7.76,15.86-14.34,22.6-21.76,22.6-5.9,0-10.12-4.22-10.12-10.12,0-5.06,3.37-9.11,7.76-9.11,4.05,0,7.42,3.54,7.42,7.76,0,2.53-1.01,5.06-3.04,7.08l.34.34c5.57-1.18,10.63-6.92,16.53-19.06-3.04-.17-5.74-.34-8.1-.51-18.72-.84-26.15-5.57-26.15-16.7,0-3.88,1.18-8.43,3.21-11.98,1.01-1.52,1.52-2.19,2.02-2.19.34,0,.51.34.51,1.35,0,2.36.67,3.88,2.36,5.9,2.36,2.53,3.88,3.54,7.08,4.55,2.7.84,8.6,1.86,14.84,2.36,2.19.17,4.72.34,11.98.67l4.55-6.75ZM67.01,30.24c-4.22-9.11-7.42-13.33-12.31-16.36-3.21-2.02-8.27-3.37-12.65-3.37-8.43,0-17.54,7.25-17.54,14.17,0,4.22,2.87,7.76,7.76,9.62,3.88,1.52,8.1,2.36,14.68,2.87,3.88.34,6.92.51,14.67.51l5.4-7.42Z"/>
    <path class="cls-1" d="M124.53,85.57c0-7.08-.17-15.86-.34-18.22-.51-5.06-3.21-6.92-10.63-7.25v-1.52c4.55-1.86,7.08-4.05,12.65-10.96,1.86-2.19,2.53-3.04,3.88-4.55,6.24,3.37,9.11,9.45,9.11,19.06v44.36c4.55,1.86,6.75,3.54,9.28,7.08l12.48-10.12v-39.81c-2.19-1.01-3.54-1.86-6.41-4.39l-4.22,2.19-1.01-2.36c6.07-3.54,9.45-6.41,15.69-13.16l2.02-2.19c5.4,7.08,8.1,9.11,12.48,9.11,1.86,0,3.37-.34,6.41-1.69-1.01,4.55-4.72,8.77-10.12,11.64v52.29c2.03,4.55,2.7,7.59,2.7,11.81,0,16.87-15.69,30.7-34.75,30.7-6.24,0-11.64-1.86-17.88-6.24-2.87-2.02-4.39-2.7-5.9-2.7-2.19,0-3.71,1.18-4.72,3.71-.34.84-.67,1.18-1.01,1.18-.51,0-.67-.51-.67-1.69,0-8.77,4.55-14.84,11.13-14.84,4.05,0,7.76,2.36,12.99,8.27,5.23,5.9,9.28,8.6,13.16,8.6,2.7,0,6.58-1.35,9.45-3.37,4.22-2.87,6.41-6.75,6.41-11.13,0-2.36-.67-5.23-2.53-10.29-2.02-5.57-2.87-8.94-2.87-11.81v-9.45l-24.29,20.41c-6.24-6.75-11.13-9.95-15.01-9.95-2.02,0-3.88.84-7.42,3.21,1.18-4.89,4.22-8.94,9.95-12.82v-23.11Z"/>
    <path class="cls-1" d="M200.78,36.82c0-9.62-.51-11.3-4.72-16.03.51-1.01,1.01-1.35,3.04-1.69,3.04-.51,5.06-1.18,8.77-3.04,4.72-2.53,7.76-4.72,9.78-6.92.84-1.01,1.52-1.35,2.03-1.35s.84.34.84.67v.84c0,.17-.17.34-.34.51-1.01,1.18-2.7,5.06-3.71,8.43-.84,2.7-1.35,6.07-1.35,9.28v80.29c5.4,1.69,7.25,2.87,10.46,6.58l4.55-2.7,1.18,2.19c-.17.34-.67.67-1.35,1.01-.84.51-2.36,1.69-4.39,3.54l-3.88,3.37c-1.86,1.69-3.71,3.54-7.25,7.59-5.57-6.92-9.95-9.45-16.19-9.45-1.52,0-3.04.17-4.55.51-.51.17-1.01.17-1.35.17s-.51-.17-.51-.51c0-2.53,3.21-6.41,8.43-10.12l.51-73.21Z"/>
    <path class="cls-1" d="M281.75,65.16c-2.7-2.02-4.05-3.37-6.75-6.41l-6.07,4.22v-3.21c8.94-6.07,12.31-8.77,17.54-14.34h2.02c3.04,8.94,6.07,12.31,10.96,12.31,1.86,0,3.37-.51,6.41-2.02-1.52,5.4-3.88,7.93-9.45,10.63v40.99c0,2.7.68,4.72,2.19,7.25.51.84.84,1.35.84,1.69s-.17.51-.51.51c-.51,0-1.18,0-2.03-.17-1.86-.34-4.55-.51-6.75-.51-5.57,0-11.98,1.18-17.71,3.37-6.41,2.36-9.62,4.55-14,9.11-7.25-2.87-10.96-9.78-10.96-20.41v-39.64c0-4.05-2.36-8.1-6.07-10.46l-4.89,3.21v-3.71c8.1-5.57,12.31-9.11,16.53-13.83h2.02c5.74,6.24,7.42,13.33,7.42,32.39,0,6.24,0,9.78-.17,18.22v4.89c0,10.96,1.52,14.17,8.43,17.38l10.96-2.7v-48.75Z"/>
    <path class="cls-1" d="M355.8,43.57c3.04,7.93,5.06,10.29,8.94,10.29,1.01,0,2.02-.17,3.21-.67.67-.34,1.18-.51,1.52-.51s.51.17.51.51c0,2.19-1.69,4.22-6.41,7.93-.68,14.84-.68,28,0,39.47.34,6.58,3.37,10.63,8.1,10.63h1.86c.84,0,1.18.17,1.18.67,0,.84-1.18,2.53-3.04,4.39-2.53,2.7-5.9,7.08-8.77,11.64-7.25-2.36-11.47-7.76-13.16-16.7l-15.18,16.53c-16.03-7.25-22.94-14.84-22.94-24.97,0-10.96,6.07-20.24,17.37-26.48l-13.66-16.87c-1.01-1.18-1.35-2.02-1.52-3.54,0-.51,0-.67.17-1.18,6.24-2.36,9.62-4.72,15.18-11.13l1.18,2.7c3.37,7.76,5.74,10.63,8.94,10.63,4.72,0,9.62-3.71,15.69-11.98l.84-1.35ZM349.39,65.33c-3.21-2.36-4.72-3.71-6.92-6.24l-1.35.51c-6.07,2.19-9.28,3.04-12.65,3.04s-5.23-.51-8.27-2.19c-1.01-.51-1.35-.67-1.69-1.01l-.34.34,24.8,30.36-2.02,1.69-10.29-12.82c-3.21,4.39-4.89,9.62-4.89,15.01,0,11.81,5.9,17.88,18.89,19.57l4.72-4.55v-43.69Z"/>
    <path class="cls-1" d="M440.99,99.06c0,8.1,3.04,12.48,8.77,12.48h2.87v2.02c-5.57,4.22-8.6,7.59-13.16,14.68-9.11-2.53-12.99-9.28-12.99-22.44v-42c-3.38-1.35-4.39-2.02-5.9-3.71l-16.03,13.66v34.75c5.06,1.69,8.43,3.71,11.3,6.92-6.07,3.21-8.6,5.4-14.51,12.48-6.07-7.76-11.3-11.3-16.87-11.3h-3.37c0-2.36,3.37-5.57,8.6-8.1v-39.47c0-5.73-3.04-8.27-9.78-8.27h-1.35v-1.69c6.07-2.87,10.96-7.25,13.83-12.31.84-1.52,2.02-2.7,2.53-2.7.67,0,2.19,1.18,3.21,2.36,4.05,4.55,6.07,10.96,6.07,18.39v4.72l29.35-25.3c2.7,6.41,6.07,9.61,10.29,9.61.84,0,1.69-.17,2.53-.51.51-.17,1.01-.34,1.35-.34s.51.17.51.51-.34,1.01-1.18,2.19c-1.86,2.7-3.71,4.55-6.24,6.58l.17,36.77Z"/>
    <path class="cls-1" d="M498.01,21.98c-.34.67-.84,1.18-1.18,1.18s-.51-.34-.51-1.01c0-6.41,3.88-13.33,9.28-16.7,2.87-1.86,6.24-2.7,9.95-2.7,4.72,0,8.27.84,14,3.54,3.88,1.86,5.9,2.53,7.93,2.53,2.19,0,4.22-.84,5.9-2.36.51-.51.84-.67,1.01-.67s.34.34.34.84c0,1.52-1.35,3.54-3.54,5.57-6.41,5.9-12.31,8.6-18.55,8.6-2.53,0-5.4-.67-9.78-2.36-3.37-1.35-5.23-1.86-6.75-1.86-3.21,0-5.9,1.69-7.76,4.72l-.34.67ZM553.17,10.5c-1.01-.34-1.86-1.86-1.86-3.37,0-2.02,1.86-3.88,3.88-3.88s3.54,1.69,3.54,3.71c0,1.69-.84,3.04-2.53,4.05v44.2h21.59V21.13c-2.19-1.35-3.21-2.36-5.57-5.4l-5.74,3.54-1.69-2.36c9.78-5.74,14.34-8.94,20.41-14.17,5.06,7.76,8.94,10.8,13.66,10.8,1.18,0,2.36-.17,3.37-.67.34-.17.67-.17.84-.17s.34.17.34.51c0,2.87-3.88,6.58-9.28,8.94v87.04c2.36.84,3.71,1.86,6.24,4.72l.67.67,5.4-3.37.51,3.37c-7.08,4.22-12.14,7.93-19.74,14.17-5.06-6.07-6.58-7.59-9.61-9.61-1.52-1.01-2.87-1.35-5.4-1.52-1.35,0-1.86,0-3.54.34,1.69-4.05,3.88-6.24,8.94-8.94v-39.14h-21.59v41.83l6.92-5.23,1.69,2.19c-10.46,7.25-16.53,12.48-22.6,19.74-7.25-4.72-14-6.92-21.25-6.92-6.07,0-12.48,2.02-17.21,5.4-1.01.67-1.86,1.18-2.36,1.18-.34,0-.51-.17-.51-.51,0-1.35,3.04-5.23,6.07-7.76,11.13-9.62,19.74-13.33,30.7-13.33,6.07,0,10.29,1.35,15.01,4.89l.67-100.87ZM527.53,36.65c0-4.22,1.69-8.27,4.55-10.96,4.22-4.05,10.29-6.75,15.86-7.08.51,0,.84.17.84.34s-.17.51-.51.84c-2.7,2.53-4.39,7.93-4.39,13.83v55.33c-.34,3.88-1.18,5.9-3.37,7.93-4.05,3.88-9.95,6.07-18.05,6.41-.67,0-1.18-.17-1.18-.34,0-.34.34-.84,1.01-1.35,3.21-2.7,5.23-6.75,5.23-10.8v-20.92h-4.55c-5.57,0-8.77,2.19-9.62,6.58-.17.84-.34,1.35-.67,1.35-1.69,0-3.37-4.55-3.37-8.77,0-8.6,4.22-14.17,10.63-14.17h7.76l-.17-18.22Z"/>
    <path class="cls-1" d="M621.83,67.69c0-3.37-.84-5.57-3.21-8.27-1.18-1.18-1.52-1.86-1.52-2.53s1.18-1.01,3.21-.84h2.53c3.71,0,8.27-.51,13.5-1.69,7.08-1.86,9.62-3.21,15.18-8.6.67-.51,1.18-1.01,1.52-1.35l.51-.51c1.86,5.23,3.37,9.28,4.05,10.46l6.24,10.46c1.69,2.87,3.54,5.06,5.57,6.58.84.67,1.18,1.18,1.18,1.69,0,.67-1.18,1.69-4.55,3.71-2.02,1.18-3.71,2.36-6.41,4.22l-22.6,16.19v10.96c5.4,1.01,8.94,3.04,12.65,6.92l5.23-4.22,1.52,2.19-2.7,2.36c-3.2,2.7-5.74,5.06-7.59,6.75-4.39,4.22-7.93,7.08-8.77,7.08-.34,0-1.01-.67-1.69-1.52-3.21-4.72-8.6-7.76-13.83-7.76-2.19,0-4.55.67-6.24,1.69-.51.34-1.01.51-1.35.51-.17,0-.34-.17-.34-.67,0-5.06,2.7-9.28,7.93-12.15v-41.67ZM655.4,80l-14.17-23.78-4.72,1.18v36.27l18.89-13.66Z"/>
    <path class="cls-1" d="M701.96,96.87c0,9.62,3.37,15.01,9.28,15.01.67,0,1.52,0,2.7-.17l.34,1.69c-6.75,5.57-9.28,8.43-12.82,14.34-9.28-1.01-14.17-8.77-14.17-22.1v-40.99c-3.04-1.01-4.22-1.86-7.08-4.55l-5.74,2.7-.17-3.21c8.94-4.89,14-8.94,20.24-16.19,3.88,6.58,7.08,9.45,10.29,9.45,1.52,0,3.21-.67,4.72-1.69.51-.34.84-.51,1.01-.51s.34.17.34.67c0,3.88-3.21,8.27-8.77,11.98l-.17,33.57ZM680.37,29.57c7.59-3.54,10.46-5.57,14.68-10.46,2.53,5.74,4.22,7.42,7.25,7.42,1.18,0,2.53-.34,3.71-.84.34-.17.51-.34.67-.34s.17.17.17.34c0,5.23-6.41,10.63-12.65,10.63-2.53,0-4.72-1.01-8.43-3.88-1.01-.67-1.35-.84-2.03-1.35l-2.19,1.18-1.18-2.7Z"/>
    <path class="cls-1" d="M730.64,84.05c0-6.75-.17-12.82-.34-18.05-.17-4.39-1.18-7.25-3.21-9.45-.51-.51-.67-.84-.67-1.18s.34-.51,1.18-.51l1.52.17c2.7.17,4.05.17,6.24.17,14.68,0,26.65-3.37,37.96-10.8,5.06,8.27,7.59,10.46,12.31,10.46h2.36c.67,0,1.01.34,1.01.84,0,1.52-3.04,4.72-6.92,7.25v46.89c6.24,3.37,8.94,6.92,8.94,11.81,0,4.39-2.19,8.43-7.08,13.16-4.22,4.22-15.18,12.99-26.65,21.25l-3.54,2.53c-5.73-5.57-11.13-8.1-17.21-8.1-2.87,0-6.24.67-8.6,1.69-.84.34-1.52.51-2.02.51-.34,0-.51-.17-.51-.51,0-1.01,2.02-3.88,4.05-5.74,5.9-5.74,12.65-8.6,20.07-8.6,6.41,0,10.46,1.69,16.7,6.92,7.76-5.4,10.96-9.45,10.96-14,0-5.06-3.88-10.12-9.78-12.82v-9.45c-10.8,7.42-15.69,11.13-25.98,19.57-5.4-6.92-10.12-9.95-15.18-9.95-1.86,0-3.71.51-4.89,1.35-.34.17-.68.34-.84.34-.34,0-.51-.34-.51-1.18,0-3.71,4.55-8.94,9.95-11.3l.67-23.28ZM744.81,106.66c4.05,1.69,6.24,3.21,9.95,6.92l12.48-8.27v-40.82c-5.23-2.02-7.42-3.88-10.96-9.28l-11.3,2.53-.17,48.92Z"/>
    <path class="cls-1" d="M822.57,109.35c.84.51,1.52.84,1.86,1.01,4.22,2.36,7.76,4.72,8.6,5.74.17.17.17.34.17.51,0,.67-.67,1.18-2.36,1.69-2.87.84-5.23,2.02-8.43,4.39-2.7,2.19-4.39,4.22-6.07,7.08-3.04-6.92-7.93-11.81-11.64-11.81-1.52,0-3.71.67-5.06,1.52-.51.34-1.01.51-1.35.51-.17,0-.34-.17-.34-.51,0-2.87,4.89-8.27,9.62-10.63V32.77c0-5.57-.67-8.1-2.53-10.63-.67-1.01-.84-1.35-.84-2.02,0-1.01.51-1.35,2.36-1.69,1.52-.34,3.71-1.18,6.41-2.36,5.73-2.7,9.78-5.4,12.14-8.1.68-.67,1.18-1.01,1.52-1.01.67,0,1.18.67,1.18,1.52,0,.51-.34,1.69-1.01,3.21-2.87,6.58-4.22,13.5-4.22,20.92v32.56c2.36-1.86,4.05-3.21,5.23-4.22l4.55-3.88c1.52-1.35,2.87-2.53,4.39-3.71,2.36-1.86,2.7-2.19,3.04-2.53,3.21-2.87,7.09-5.9,7.59-5.9.34,0,1.01,1.01,1.69,2.36,2.87,5.4,6.92,8.43,10.96,8.43,1.69,0,3.38-.67,5.06-2.19.51-.34,1.01-.67,1.18-.67s.34.17.34.67c0,2.53-3.37,7.76-7.42,11.3v47.06c0,1.35,1.01,3.88,2.36,6.07.51.84.84,1.52.84,1.86s-.17.51-.51.51-.67-.17-1.18-.34c-1.69-.67-4.39-1.01-6.92-1.01-6.92,0-10.96,2.53-10.96,6.92,0,2.02,1.01,3.71,3.71,6.75,4.05,4.55,5.57,7.93,5.57,12.15,0,7.25-5.9,13.49-12.82,13.49-.51,0-.84-.17-.84-.51,0-.51.51-1.18,1.35-1.86l.84-.67c2.19-1.69,3.54-5.23,3.54-9.11s-1.01-8.77-3.04-14.17c-1.01-2.87-1.35-4.22-1.35-5.57,0-3.54,1.18-5.57,4.89-8.77v-52.46c-3.88-1.69-6.07-3.54-8.77-7.59l-13.16,10.46-.17,41.33Z"/>
    <path class="cls-1" d="M902.19,107.16c3.21,1.35,5.74,2.87,9.62,5.74l4.22-3.71,1.69,2.7c-7.76,5.9-11.98,9.78-17.54,16.19-8.94-7.42-13.5-9.78-18.39-9.78-2.36,0-4.55.51-7.25,1.86,2.36-6.75,6.24-10.63,12.48-12.65v-53.64h-6.75c-1.86,0-3.04.51-4.55,1.86-.84.67-1.35.84-1.86.84-.17,0-.34,0-.34-.17s.17-.51.34-.84c.68-1.18,1.18-3.54,1.18-5.57,0-1.18-.17-2.7-.51-3.88-.17-.84-.34-1.52-.34-1.86s.17-.51.34-.51c.34,0,1.01.17,1.86.51,2.02.84,3.37,1.18,4.55,1.18h6.07v-6.92c0-2.36-1.01-4.55-2.87-5.9-.51-.34-.68-.51-.68-.67,0-.67,1.01-1.18,2.87-1.52,4.39-.84,8.27-2.7,13.33-6.58,1.86-1.52,2.36-2.02,2.87-2.7,1.01-1.01,2.02-1.69,2.36-1.69.17,0,.34.34.34.67s-.17.67-.34,1.18c-1.35,3.21-3.04,10.63-3.04,13.49v11.3l5.4-.17c2.02,0,4.05-.67,6.07-1.86.51-.34.84-.51,1.01-.51.34,0,.51.34.51.84,0,.67-.17,1.52-.34,2.53-.34,1.69-.51,2.87-.51,3.88,0,.67.17,1.52.34,2.7.17.84.17,1.52.17,2.02s-.17.84-.51.84c-.51,0-.84-.17-1.69-.67-1.69-1.18-3.04-1.52-5.23-1.52h-5.4l.51,52.97Z"/>
    <path class="cls-1" d="M931.21,93.83c-.51,0-.67-.17-.67-.51s.34-1.01.84-1.86c1.35-2.19,2.19-4.39,2.19-6.07.84-5.57.84-13.33,0-23.11-.17-3.04-.84-4.89-2.36-6.58-.34-.51-.51-.84-.51-1.18,0-.67.51-1.01,1.69-1.01h1.52q2.53.17,3.88.17c6.07,0,12.82-1.01,17.88-2.7,5.4-1.69,8.1-3.21,12.31-7.08,3.37,4.22,5.9,5.9,8.94,5.9,2.87,0,4.72-1.52,5.74-4.55.34-1.01.67-1.35,1.01-1.35.84,0,1.18.84,1.18,2.87,0,7.42-3.71,13.49-17.54,29.18h15.18c1.01,0,1.52.34,1.52,1.01,0,.51-.17,1.18-.51,2.02-.51,1.18-.84,2.19-.84,2.87v28.34c0,2.19.51,4.22,1.52,6.24.34.84.51,1.18.51,1.52,0,.51-.17.67-.51.67-.51,0-1.18-.17-2.02-.34-2.7-.67-5.9-1.01-9.45-1.01-11.47,0-18.39,3.04-25.47,11.13-4.89-6.07-8.94-8.6-13.5-8.6-3.88,0-6.24,2.02-7.25,6.24-.34,1.69-.67,2.36-1.35,2.36-.84,0-1.18-.51-1.18-2.02,0-7.08,3.88-13.83,16.19-27.83l4.22-4.72h-13.16ZM960.22,83.55l-2.02,1.86-2.02,1.86c-12.99,12.48-17.21,17.04-23.45,24.97l.34.34c5.9-3.37,9.28-4.39,13.5-4.39,5.9,0,10.29,2.36,13.66,7.59l6.92-1.52v-30.7h-6.92ZM948.58,85.91h3.71c7.42-7.25,10.46-10.29,14.84-15.18,7.76-8.6,11.3-13.66,13.16-18.22l-.34-.34c-5.23,7.25-8.77,9.61-13.83,9.61-4.05,0-6.07-1.35-10.8-6.92l-6.75,1.69v29.35Z"/>
  </g>
  <g>
    <path class="cls-1" d="M172.77,181.51c.36-.04.71-.12.95-.28h.47l-.36,6.69h-.47c-1.74-5.19-8.83-6.73-13.86-6.73-7.92,0-15.76,4.36-15.76,13.07s7.25,13.23,15.24,13.23c3.17,0,7.09-.67,9.74-2.06v-4.47c0-2.38-1.35-3.05-2.97-3.52v-.51h11.28v.51c-1.86.55-3.05,1.15-3.05,3.56v5.39c-3.96,2.26-10.77,3.41-15.05,3.41-11.8,0-21.34-6.02-21.34-15.48,0-7.8,7.21-15.44,21.9-15.44,6.89,0,11.17,1.98,13.26,2.65Z"/>
    <path class="cls-1" d="M233.19,183.92c8.75,0,17.34,4.44,17.34,12.63s-8.79,13.19-17.98,13.19-17.42-4.63-17.42-12.67,8.71-13.15,18.06-13.15ZM233,207.6c6.65,0,11.6-4.2,11.6-10.53s-5.03-10.93-12.04-10.93-11.48,4.16-11.48,10.45,4.91,11.01,11.92,11.01Z"/>
    <path class="cls-1" d="M300.15,184.52v.48c-1.62.4-2.5,1.07-2.5,3.05v17.7c0,.91.48,1.15,1.11,1.19h11.48c2.26,0,4.16-1.74,4.87-3.44h.48l-1.43,5.58h-24.11v-.44c1.5-.4,2.46-1.03,2.46-2.77v-17.82c0-1.98-.83-2.65-2.46-3.05v-.48h10.1Z"/>
    <path class="cls-1" d="M361.69,195.84h9.66c1.62,0,2.53-1.15,2.97-2.49h.4v7.13h-.44c-.24-1.31-1.23-2.46-2.89-2.46h-9.7v7.56c0,1.98.91,2.61,2.53,3.05v.44h-10.14v-.44c1.78-.51,2.46-1.07,2.42-3.48v-17.11c0-1.94-.79-2.65-2.46-3.05v-.48h23.96c.32-.08.55-.2.79-.4h.55l-.71,5.46h-.44c-.12-.95-.55-2.1-1.62-2.49-.55-.16-1.19-.32-1.94-.32h-12.95v9.07Z"/>
    <path class="cls-1" d="M489.5,207.52c5.11,0,11.29-1.7,13.9-6.81h.52l-.71,6.02c-4.47,1.9-9.38,3.05-14.73,3.05-14.1,0-21.46-7.48-21.46-15.44s7.21-15.48,21.82-15.48c5.23,0,9.42.99,13.23,2.38.24,0,.59-.2.83-.48h.44l-.59,7.36h-.44c-1.54-4.79-7.21-6.97-12.71-6.97-8.12,0-16.39,4.4-16.39,13.23s8.16,13.15,16.31,13.15Z"/>
    <path class="cls-1" d="M560.74,183.92c8.75,0,17.34,4.44,17.34,12.63s-8.79,13.19-17.98,13.19-17.42-4.63-17.42-12.67,8.71-13.15,18.06-13.15ZM560.54,207.6c6.65,0,11.6-4.2,11.6-10.53s-5.03-10.93-12.04-10.93-11.48,4.16-11.48,10.45,4.91,11.01,11.92,11.01Z"/>
    <path class="cls-1" d="M646.23,198.1c0,8.63-6.73,11.68-13.66,11.68-8.43,0-13.98-3.05-13.98-11.72v-10.02c0-1.98-.87-2.65-2.46-3.05v-.48h10.37v.48c-1.5.48-2.46,1.03-2.46,3.05v10.02c0,7.33,3.68,9.38,9.27,9.38,4.24,0,9.46-1.46,9.46-9.34v-10.06c0-1.98-.87-2.65-2.42-3.05v-.48h8.31v.48c-1.54.4-2.45,1.07-2.45,3.05v10.06Z"/>
    <path class="cls-1" d="M690.69,188.04c0-1.98-.87-2.65-2.46-3.05v-.48h17.54c7.05,0,10.49,2.89,10.49,6.69s-3.37,6.53-9.86,6.69l8.95,8.08c2.18,1.86,3.48,2.46,4.24,2.61v.48h-7.76l-14.02-12.87v-.48h6.26c4.43,0,6.26-2.1,6.26-4.51s-1.82-4.44-6.26-4.44h-6.65c-.91,0-1.58.04-1.58,1.11v17.7c0,1.98.87,2.61,2.46,3.05v.44h-10.06v-.44c1.58-.44,2.46-1.07,2.46-3.05v-17.54Z"/>
    <path class="cls-1" d="M757.26,201.31h.47c1.94,4.83,7.64,5.98,12.83,5.98,4.87,0,9.54-.99,9.54-4.32,0-7.01-21.82-.44-21.82-11.64,0-6.38,7.09-7.4,12.35-7.4,5.58,0,8.08.95,9.9,1.9l.67-.67h.4v6.22h-.4c-.83-3.72-5.5-5.03-10.25-5.03s-8.55.83-8.55,3.76c0,7.05,21.74.4,21.74,11.8,0,6.81-7.76,7.88-13.5,7.88s-10.33-1.11-12.71-2.18l-.67-6.3Z"/>
    <path class="cls-1" d="M831.82,195.41h9.34c1.82,0,3.25-.75,3.64-2.49h.44l-.59,7.21h-.48c-.28-1.66-1.07-2.49-3.01-2.49h-9.34v8.43c0,.51.2.79.63.79h13.3c2.69,0,4.36-1.74,5.03-3.44h.44l-1.39,5.66h-25.78v-.44c1.58-.44,2.46-1.07,2.46-3.05v-17.54c0-1.98-.87-2.65-2.46-3.05v-.48h24.75c.32-.08.63-.16.87-.4h.48l-.71,5.86h-.48c-.12-1.19-.79-3.21-4.08-3.21h-13.07v8.63Z"/>
  </g>
</svg>