<?xml version="1.0" encoding="UTF-8"?>
<svg id="Layer_1" data-name="Layer 1" xmlns="http://www.w3.org/2000/svg" viewBox="0 0 227.85 244.61">
  <path d="M51.11,98.36c-10.8-.17-14-.34-19.23-1.35-12.31-2.36-17.54-7.59-17.54-17.54,0-17.54,17.88-32.56,38.97-32.56,10.29,0,20.75,3.88,27.33,10.12l4.22-3.71,2.36,2.53c-9.95,7.93-15.01,13.66-23.11,26.48,11.13.17,15.52.51,21.76,1.86,12.65,2.53,18.89,9.95,18.89,22.27,0,8.94-2.36,14.84-9.95,25.47-2.36,3.37-4.89,6.58-10.46,13.49-11.3,14-15.35,19.57-19.74,27.5-11.64-8.27-20.92-11.64-32.39-11.64-9.95,0-18.56,2.7-27.16,8.6-2.36,1.69-4.39,2.87-4.89,2.87-.17,0-.17-.17-.17-.34.17-1.86,3.21-6.24,6.75-9.61,12.65-11.64,26.15-17.21,41.67-17.21,9.45,0,16.7,2.02,25.13,7.25l4.55-5.9c11.64-15.18,15.35-22.27,15.35-29.86,0-5.4-2.36-9.45-7.25-12.48-3.54-2.19-11.13-4.22-18.89-5.06-2.7-.34-6.75-.67-14-1.01l-3.88,7.42c3.21.17,6.07.34,8.6.51,17.88.84,25.3,5.23,25.3,15.01,0,4.89-2.02,10.12-5.4,14.34-1.35,1.52-2.19,2.19-2.87,2.19-.34,0-.51-.17-.51-.51,0-.17,0-.51.17-.84.17-.84.17-1.52.17-2.36,0-8.6-5.4-11.13-25.13-11.81l-8.1-.34c-7.76,15.86-14.34,22.6-21.76,22.6-5.9,0-10.12-4.22-10.12-10.12,0-5.06,3.37-9.11,7.76-9.11,4.05,0,7.42,3.54,7.42,7.76,0,2.53-1.01,5.06-3.04,7.08l.34.34c5.57-1.18,10.63-6.92,16.53-19.06-3.04-.17-5.73-.34-8.1-.51-18.72-.84-26.15-5.57-26.15-16.7,0-3.88,1.18-8.43,3.21-11.98,1.01-1.52,1.52-2.19,2.02-2.19.34,0,.51.34.51,1.35,0,2.36.68,3.88,2.36,5.9,2.36,2.53,3.88,3.54,7.08,4.55,2.7.84,8.6,1.86,14.84,2.36,2.19.17,4.72.34,11.98.67l4.55-6.75ZM65.11,73.91c-4.22-9.11-7.42-13.33-12.31-16.36-3.21-2.02-8.27-3.37-12.65-3.37-8.43,0-17.54,7.25-17.54,14.17,0,4.22,2.87,7.76,7.76,9.62,3.88,1.52,8.1,2.36,14.68,2.87,3.88.34,6.92.51,14.68.51l5.4-7.42Z"/>
  <path d="M118.88,90.01c-.34.67-.84,1.18-1.18,1.18s-.51-.34-.51-1.01c0-6.41,3.88-13.33,9.28-16.7,2.87-1.86,6.24-2.7,9.95-2.7,4.72,0,8.27.84,14,3.54,3.88,1.86,5.9,2.53,7.93,2.53,2.19,0,4.22-.84,5.9-2.36.51-.51.84-.67,1.01-.67s.34.34.34.84c0,1.52-1.35,3.54-3.54,5.57-6.41,5.9-12.31,8.6-18.56,8.6-2.53,0-5.4-.67-9.78-2.36-3.37-1.35-5.23-1.86-6.75-1.86-3.2,0-5.9,1.69-7.76,4.72l-.34.67ZM174.04,78.54c-1.01-.34-1.86-1.86-1.86-3.37,0-2.02,1.86-3.88,3.88-3.88s3.54,1.69,3.54,3.71c0,1.69-.84,3.04-2.53,4.05v44.2h21.59v-34.07c-2.19-1.35-3.21-2.36-5.57-5.4l-5.74,3.54-1.69-2.36c9.78-5.74,14.34-8.94,20.41-14.17,5.06,7.76,8.94,10.8,13.66,10.8,1.18,0,2.36-.17,3.37-.67.34-.17.67-.17.84-.17s.34.17.34.51c0,2.87-3.88,6.58-9.28,8.94v87.04c2.36.84,3.71,1.86,6.24,4.72l.67.67,5.4-3.37.51,3.37c-7.08,4.22-12.15,7.93-19.74,14.17-5.06-6.07-6.58-7.59-9.62-9.61-1.52-1.01-2.87-1.35-5.4-1.52-1.35,0-1.86,0-3.54.34,1.69-4.05,3.88-6.24,8.94-8.94v-39.14h-21.59v41.83l6.92-5.23,1.69,2.19c-10.46,7.25-16.53,12.48-22.6,19.74-7.25-4.72-14-6.92-21.25-6.92-6.07,0-12.48,2.02-17.21,5.4-1.01.67-1.86,1.18-2.36,1.18-.34,0-.51-.17-.51-.51,0-1.35,3.04-5.23,6.07-7.76,11.13-9.62,19.74-13.33,30.7-13.33,6.07,0,10.29,1.35,15.01,4.89l.67-100.87ZM148.4,104.69c0-4.22,1.69-8.27,4.55-10.96,4.22-4.05,10.29-6.75,15.86-7.08.51,0,.84.17.84.34s-.17.51-.51.84c-2.7,2.53-4.39,7.93-4.39,13.83v55.33c-.34,3.88-1.18,5.9-3.37,7.93-4.05,3.88-9.95,6.07-18.05,6.41-.67,0-1.18-.17-1.18-.34,0-.34.34-.84,1.01-1.35,3.21-2.7,5.23-6.75,5.23-10.8v-20.92h-4.55c-5.57,0-8.77,2.19-9.62,6.58-.17.84-.34,1.35-.67,1.35-1.69,0-3.37-4.55-3.37-8.77,0-8.6,4.22-14.17,10.63-14.17h7.76l-.17-18.22Z"/>
  <path d="M167.47.16c4.41-.64,8.48.65,12.22,3.88,4,3.35,6.41,7.83,7.22,13.44.91,6.25-.72,11.83-4.88,16.73-4.16,4.9-9.85,7.87-17.06,8.92-5.77.84-12.44,0-20-2.5-2.67-.92-10.37-4.06-23.09-9.42-7.5-3.17-13.05-5.31-16.64-6.43-11.91-3.68-20.29-5.36-25.16-5.07-2.76.15-4.31.22-4.64.18-1.08-.09-1.69-.65-1.84-1.7-.21-1.44.57-2.29,2.33-2.55.8-.12,7.38.65,19.73,2.3.59.08,1.08.09,1.48.03.88-.13,1.28-.51,1.18-1.15-.07-.48-.33-1.16-.79-2.03-.45-.87-.71-1.51-.77-1.91-.15-1.04.42-1.66,1.7-1.84,3.21-.46,6.5,1.11,9.89,4.71,5.12,5.4,8.2,8.02,9.24,7.87s1.46-.91,1.27-2.27c-.08-.56-.38-1.34-.89-2.33-.51-.99-.8-1.72-.87-2.21-.26-1.76.62-2.79,2.62-3.08s4.36,1.01,6.83,3.92c4.9,5.59,7.63,8.63,8.2,9.12,2.64,2.4,6.53,4.7,11.68,6.9,8.12,3.49,14.26,4.93,18.43,4.33,6.89-1,11.97-3.27,15.22-6.81,3.25-3.54,4.49-7.96,3.73-13.25-.7-4.81-2.52-8.51-5.48-11.11-2.96-2.6-6.44-3.61-10.44-3.03-8.57,1.24-12.38,5.23-11.4,11.96l.1.72c.14.39.41.55.81.5.32-.05,1.24-1.08,2.74-3.1,1.51-2.02,3.42-3.2,5.75-3.53s4.38.31,6.17,1.93c1.79,1.62,2.89,3.84,3.29,6.64.31,2.16-.5,4.21-2.43,6.12-1.93,1.92-4.42,3.1-7.47,3.54-3.05.44-5.96-.47-8.74-2.72-2.78-2.25-4.41-4.99-4.87-8.19-.63-4.33.56-8.14,3.56-11.44,3-3.3,7.02-5.31,12.07-6.05Z"/>
  <path d="M56.01,244.45c-4.41.64-8.48-.65-12.22-3.88-4-3.35-6.41-7.83-7.22-13.44-.91-6.25.72-11.83,4.88-16.73,4.16-4.9,9.85-7.87,17.06-8.92,5.77-.84,12.44,0,20,2.5,2.67.92,10.37,4.06,23.09,9.42,7.5,3.17,13.05,5.31,16.64,6.43,11.91,3.68,20.29,5.36,25.16,5.07,2.76-.15,4.31-.22,4.64-.18,1.08.09,1.69.65,1.84,1.7.21,1.44-.57,2.29-2.33,2.55-.8.12-7.38-.65-19.73-2.3-.59-.08-1.08-.09-1.48-.03-.88.13-1.28.51-1.18,1.15.07.48.33,1.16.79,2.03.45.87.71,1.51.77,1.91.15,1.04-.42,1.66-1.7,1.84-3.21.46-6.5-1.11-9.89-4.71-5.12-5.4-8.2-8.02-9.24-7.87s-1.46.91-1.27,2.27c.08.56.38,1.34.89,2.33.51.99.8,1.72.87,2.21.26,1.76-.62,2.79-2.62,3.08s-4.36-1.01-6.83-3.92c-4.9-5.59-7.63-8.63-8.2-9.12-2.64-2.4-6.53-4.7-11.68-6.9-8.12-3.49-14.26-4.93-18.43-4.33-6.89,1-11.97,3.27-15.22,6.81-3.25,3.54-4.49,7.96-3.73,13.25.7,4.81,2.52,8.51,5.48,11.11,2.96,2.6,6.44,3.61,10.44,3.03,8.57-1.24,12.38-5.23,11.4-11.96l-.1-.72c-.14-.39-.41-.55-.81-.5-.32.05-1.24,1.08-2.74,3.1-1.51,2.02-3.42,3.2-5.75,3.53s-4.38-.31-6.17-1.93c-1.79-1.62-2.89-3.84-3.29-6.64-.31-2.16.5-4.21,2.43-6.12,1.93-1.92,4.42-3.1,7.47-3.54,3.05-.44,5.96.47,8.74,2.72,2.78,2.25,4.41,4.99,4.87,8.19.63,4.33-.56,8.14-3.56,11.44-3,3.3-7.02,5.31-12.07,6.05Z"/>
</svg>