<?xml version="1.0" encoding="UTF-8"?>
<svg id="Layer_1" xmlns="http://www.w3.org/2000/svg" version="1.1" viewBox="0 0 512 512">
  <!-- Generator: Adobe Illustrator 30.0.0, SVG Export Plug-In . SVG Version: 2.1.1 Build 123)  -->
  <path d="M0,256c0,141.2,114.8,256,256,256s256-114.8,256-256S397.2,0,256,0C114.8,0,0,114.8,0,256ZM323.1,384c-79.2,0-195.1-109.7-195.1-195.1,0-15.4,5.6-30.9,17.3-42.7l12.8-11.1c9.5-9.5,25-9.5,34.5,0l21.3,27.8c9.5,9.5,9.5,25,0,34.5l-18.2,22.8c19.2,47.9,51.8,79.1,96,96l22.8-18.2c9.5-9.5,25-9.5,34.5,0l27.8,21.3c9.5,9.5,9.5,25,0,34.5l-11.1,12.8c-11.8,11.8-27.2,17.3-42.7,17.3h0Z"/>
</svg>