<?xml version="1.0" encoding="UTF-8"?>
<svg id="Layer_1" data-name="Layer 1" xmlns="http://www.w3.org/2000/svg" viewBox="0 0 384 384">
  <path d="M384,333.85v11.23c-2.2,9.74-7.48,17.17-14.62,24.3-7.14,7.13-14.57,12.37-24.3,14.62h-11.23c-4-1.73-8.94-2.28-12.56-5.39-20.63-17.72-34.49-40.49-49.57-62.61l-8.7-12.75c-50.98,35.55-117.03,40.58-173.33,11.15C31.06,283.76-3.27,220.78,1.06,156.23,6.66,72.91,72.92,6.7,156.23,1.06c64.48-4.36,127.5,29.95,158.14,88.54,29.37,56.17,24.6,122.17-11.11,173.38,26.75,19.21,52.16,32.56,74.7,57.49,3.85,4.26,4.3,9.78,6.04,13.38ZM158.7,44.45c-68.39,4.72-119.11,64.14-114.24,131.45,4.9,67.68,63.47,118.48,131.11,113.93,67.81-4.56,119.05-63.58,114.24-131.49-4.75-67.04-62.96-118.6-131.1-113.9Z"/>
  <path d="M247.78,229.74c-19.63,25.08-49.14,39.41-80.48,39.43-31.51.02-61.3-14.42-80.9-39.67-1.61-17.92,11.49-32.97,29.71-33.9,33.85-1.74,67.05-1.74,100.91-.17,18.87.88,32.39,15.78,30.76,34.31Z"/>
  <path d="M162.42,85.08c27.43-2.69,50.75,17.52,53.34,43.89,2.62,26.71-17.06,50.53-43.55,53.27-26.65,2.76-50.57-16.57-53.58-42.96s16.11-51.48,43.79-54.2Z"/>
</svg>