<?xml version="1.0" encoding="UTF-8"?>
<svg id="Layer_1" xmlns="http://www.w3.org/2000/svg" version="1.1" viewBox="0 0 688 688">
  <!-- Generator: Adobe Illustrator 30.0.0, SVG Export Plug-In . SVG Version: 2.1.1 Build 123)  -->
  <defs>
    <style>
      .st0 {
        fill: #d3dff4;
      }

      .st1 {
        fill: #0062cc;
      }
    </style>
  </defs>
  <path class="st0" d="M472,0h-64c-25.2,0-48,10.6-64,27.6C328,10.6,305.2,0,280,0h-64c-32.7,0-61.2,17.8-76.4,44.3C60.8,55.5,0,123.5,0,205.3v394.7c0,48.6,39.4,88,88,88h512c48.6,0,88-39.4,88-88V205.3c0-81.9-60.8-149.8-139.6-161C533.2,17.8,504.7,0,472,0h0Z"/>
  <g>
    <rect class="st1" x="194.7" y="322.7" width="106.7" height="106.7"/>
    <path class="st1" d="M525.3,130.7h-53.3v-42.7h-64v42.7h-128v-42.7h-64v42.7h-53.3c-41.2,0-74.7,33.5-74.7,74.7v394.7h512V205.3c0-41.2-33.5-74.7-74.7-74.7h0ZM536,536H152v-256h384v256Z"/>
  </g>
</svg>