<?xml version="1.0" encoding="UTF-8"?>
<svg id="Layer_1" xmlns="http://www.w3.org/2000/svg" version="1.1" viewBox="0 0 688 688.3">
  <!-- Generator: Adobe Illustrator 30.0.0, SVG Export Plug-In . SVG Version: 2.1.1 Build 123)  -->
  <defs>
    <style>
      .st0 {
        fill: #fdc;
      }

      .st1 {
        fill: #ff3d10;
      }
    </style>
  </defs>
  <path class="st0" d="M245.3,0c-21.3,0-42.3,5.8-60.6,16.8-18.9,11.4-34.2,27.8-44.2,47.5-9.5,18.7-13.8,39.3-12.5,60.1v138c-2.8,1.5-5.6,3-8.3,4.6-22.5,12.8-42.4,27.8-59,44.4-18.7,18.7-33.4,39.5-43.6,61.9C5.7,398,0,424.1,0,451c0,38.7,12.2,76.7,35.4,109.7,19.9,28.4,47.3,52.9,81.5,72.9,30.6,17.9,66,31.7,105.1,41,38.3,9.1,79.4,13.8,122,13.8s83.6-4.6,122-13.8c39.1-9.3,74.5-23.1,105.1-41,34.2-20,61.7-44.5,81.5-72.9,23.2-33.1,35.4-71,35.4-109.7s-12.2-76.7-35.4-109.7c-19.9-28.4-47.3-52.9-81.5-72.9-30.6-17.9-66-31.6-105.1-41-.8-.2-1.5-.4-2.3-.5,5.9-10.8,9.7-22.8,10.7-35.4,2.5-30.6-11.1-60.2-35.9-78.3L310.4,20c-3.8-2.8-7.8-5.2-11.9-7.3C282.1,4.4,263.7,0,245.3,0h0Z"/>
  <g>
    <path class="st1" d="M344,301.7c-21.4,0-42.8,1.5-64,4.5v-68l106.7-53.8-128-93.1c-14.5-7.4-32.3-1.6-39.7,12.9-2.6,5.2-3.7,11-3,16.8v199.6c-77.6,25.1-128,72.9-128,130.5,0,85.1,110.1,149.3,256,149.3s256-64.2,256-149.3-110.1-149.3-256-149.3h0ZM344,536.3c-109.9,0-192-45.1-192-85.3s24.3-45.1,64-61.9v61.9h64v-79.9c21.1-3.6,42.5-5.4,64-5.4,109.9,0,192,45.1,192,85.3s-82.1,85.3-192,85.3Z"/>
    <circle class="st1" cx="408" cy="451" r="42.7"/>
  </g>
</svg>