<?xml version="1.0" encoding="UTF-8"?>
<svg id="Layer_1" xmlns="http://www.w3.org/2000/svg" version="1.1" viewBox="0 0 648 648">
  <!-- Generator: Adobe Illustrator 30.0.0, SVG Export Plug-In . SVG Version: 2.1.1 Build 123)  -->
  <defs>
    <style>
      .st0 {
        fill: #005920;
      }

      .st1 {
        fill: #dce8bf;
      }
    </style>
  </defs>
  <path class="st1" d="M512.4,0H135.6C97.4,0,63.5,24.6,51.8,61L4.2,208.5c-2.8,8.7-4.2,17.8-4.2,27,0,41,14.2,80,39.3,111v41.8C15.6,404.1,0,431,0,461.6v39.3c0,19.8,3.9,39.1,11.6,57.2,7.4,17.5,18,33.2,31.5,46.7,13.5,13.5,29.2,24.1,46.7,31.5,18.2,7.7,37.4,11.6,57.2,11.6h354c19.8,0,39.1-3.9,57.2-11.6,17.5-7.4,33.2-18,46.7-31.5,13.5-13.5,24.1-29.2,31.5-46.7,7.7-18.2,11.6-37.4,11.6-57.2v-39.3c0-30.6-15.6-57.6-39.3-73.3v-41.8c25.2-31,39.3-70,39.3-111s-1.4-18.3-4.2-27l-47.6-147.5C584.4,24.6,550.6,0,512.4,0h0Z"/>
  <path class="st0" d="M520.6,309c23.7-15.9,39.3-42.9,39.3-73.5l-47.6-147.5H135.6l-47.6,147.5c0,30.6,15.6,57.6,39.3,73.5v152.6h-39.3v39.3c0,32.6,26.4,59,59,59h354c32.6,0,59-26.4,59-59v-39.3h-39.3v-152.6h0ZM396.6,461.6l-18.1,19.7h-108.9l-18.1-19.7h-65.1v-137.6h9.8c22.8,0,43.3-8.9,59-23,15.7,14.2,36.2,23,59,23h19.7c22.8,0,43.3-8.9,59-23,15.7,14.2,36.2,23,59,23h9.8v137.6h-65.1ZM471.5,265h-19.7c-16.3,0-29.5-13.2-29.5-29.5v-9.8h-59v9.8c0,16.3-13.2,29.5-29.5,29.5h-19.7c-16.3,0-29.5-13.2-29.5-29.5v-9.8h-59v9.8c0,16.3-13.2,29.5-29.5,29.5h-19.7c-14.9,0-27.3-11.1-29.2-25.5l30.8-92.5h47.6v39.3h59v-39.3h78.7v39.3h59v-39.3h47.6l30.8,92.5c-2,14.4-14.3,25.5-29.2,25.5h0Z"/>
</svg>