<?xml version="1.0" encoding="UTF-8"?>
<svg id="Layer_1" data-name="Layer 1" xmlns="http://www.w3.org/2000/svg" viewBox="0 0 1092.17 1390.09">
  <path d="M309.97,1390.09h-2.71c-18.9-22.39-40.63-42.34-62.38-64.91l101.82-101.99c20.56-20.6,19.7-52.58-.18-71.78-20.27-19.57-51.28-18.19-71.72,2.19l-34.28,34.17c-55.05,54.88-146.06,53.52-200.54-2.6-52.61-54.2-53.68-142.29-.84-195.98l40.77-41.42c-12.62-37.42-5.29-74.93,19.46-105.66l348.07-445.85c38.72,119.81,128.59,210.03,248.98,248.91l-452.27,352.93c-30.13,21.31-64.95,25.85-99.51,14.64l-40.49,41.17c-19.16,19.48-15.54,50.87,2.62,68.52,18.54,18.02,49.33,19.45,68.8.46l38.63-37.69c55.8-54.44,144.74-51.84,198.5,2.73,52.39,53.19,55.19,142.58,1.31,197.04l-104.02,105.12Z"/>
  <path d="M778.62,1.62c171.67-18.49,323.66,124.15,313.02,301.04-9.03,150.18-134.97,268.15-286.01,267.2-150.23-.95-275-119.71-282.49-270.38-7.45-150.11,103.1-281.45,255.47-297.86Z"/>
</svg>