<?xml version="1.0" encoding="UTF-8"?>
<svg id="Layer_1" data-name="Layer 1" xmlns="http://www.w3.org/2000/svg" viewBox="0 0 511 429.3">
  <path d="M511,108.91v211.51l-68.21.16c-30.85,52.63-82.13,91.58-142.37,104.11-92.58,19.26-185.49-22.89-232.06-104.27H0V108.91h68.37C117.8,22.06,220.49-19.56,317.14,8.87c53.24,15.66,97.68,52.39,125.65,99.88l68.21.16ZM104.8,108.91h69.36l18.29-37.58,24.61-37.25c-44.95,9.95-86.86,36.32-112.27,74.84ZM406.21,108.91c-25.41-38.52-67.32-64.89-112.27-74.84l24.61,37.25,18.29,37.58h69.36ZM303.41,108.91c-6.79-15.99-15.59-31.5-25.73-45.62-2.58-3.59-20.31-26.52-22.54-26.14-19.83,20.9-36.26,45.21-47.55,71.76h95.81ZM481.06,138.84H29.94v151.65h451.12v-151.65ZM174.16,320.42h-69.36c25.41,38.52,67.32,64.89,112.27,74.84l-24.61-37.25-18.29-37.58ZM303.41,320.42h-95.81c6.79,15.99,15.59,31.5,25.73,45.62,2.58,3.59,20.31,26.52,22.54,26.14,19.83-20.9,36.26-45.21,47.55-71.76ZM406.21,320.42h-69.36l-18.29,37.58-24.61,37.25c44.94-9.95,86.86-36.32,112.27-74.84Z"/>
  <polygon points="260.47 161.8 269.48 211.67 284.58 163.91 303.27 163.92 317.88 211.66 327.36 161.78 348.33 165.79 329.26 260.45 309.49 260.46 293.93 206.67 278.36 260.45 258.59 260.45 239.76 166.23 260.47 161.8"/>
  <polygon points="112.78 162.78 147.71 218.65 147.71 162.78 167.67 162.78 167.67 259.56 147.71 259.56 113.78 204.69 113.78 260.56 92.82 260.56 92.82 162.78 112.78 162.78"/>
  <polygon points="233.54 183.73 200.61 183.73 200.61 201.69 230.55 201.69 230.55 222.64 200.61 222.64 200.61 239.6 232.05 239.6 233.54 241.1 233.54 260.56 179.65 260.56 179.65 164.28 181.15 162.78 232.05 162.78 233.54 164.28 233.54 183.73"/>
  <path d="M377.02,163.04c12.79-1.75,25.08,2.48,35.16,10.22l-12.94,15c-6.72-2.68-10.77-5.3-18.49-4.51-4.52.46-10.57,3.81-8.02,8.97,1.39,2.81,28.2,11.75,34.38,16.55,16.3,12.64,14.1,35.06-2.58,46.14-15.68,10.42-42.48,5.27-54.21-9.31l14.6-13.39c7.43,5.53,17.83,10.55,27.01,6.12,10.24-4.95,4.87-12.58-3.01-16.37-13.63-6.55-31.23-7.41-36.34-24.53-4.95-16.6,7.95-32.62,24.43-34.88Z"/>
</svg>