<?xml version="1.0" encoding="UTF-8"?>
<svg id="Layer_1" xmlns="http://www.w3.org/2000/svg" version="1.1" viewBox="0 0 383.3 338.8">
  <!-- Generator: Adobe Illustrator 30.0.0, SVG Export Plug-In . SVG Version: 2.1.1 Build 123)  -->
  <defs>
    <style>
      .st0 {
        fill: #de8a26;
      }
    </style>
  </defs>
  <path class="st0" d="M285.2,17.6C171.3-30,16.1,19.9,0,154.2v21.7l.7,1.2c2.4,33.3,20.1,65,44.6,87.2,2.8,2.6,20.1,15,20.5,16.2,1.1,3.4-2.5,13.8-4,17.4-6.7,16.5-20.7,26.8-32.5,39.3-.3,1.7.7,1,1.8,1.1,18.8,1.4,43.4-.3,61-7.1,14-5.4,25-14.1,36.4-23.6,8.8,1.8,17.4,3.9,26.3,5.1,42.8,6.1,92.2,2.1,132-15.2,129.4-56.4,128.8-225.4-1.5-279.9ZM195.3,224.8h-93.9c-6.2,0-11.3-5.1-11.3-11.3s5.1-11.3,11.3-11.3h93.9c6.2,0,11.3,5.1,11.3,11.3s-5.1,11.3-11.3,11.3ZM289.2,172.5H101.4c-6.2,0-11.3-5.1-11.3-11.3s5.1-11.3,11.3-11.3h187.8c6.2,0,11.3,5.1,11.3,11.3s-5.1,11.3-11.3,11.3ZM289.2,119.3H101.4c-6.2,0-11.3-5.1-11.3-11.3s5.1-11.3,11.3-11.3h187.8c6.2,0,11.3,5.1,11.3,11.3s-5.1,11.3-11.3,11.3Z"/>
</svg>