<?xml version="1.0" encoding="UTF-8"?>
<svg id="Layer_1" data-name="Layer 1" xmlns="http://www.w3.org/2000/svg" viewBox="0 0 433.36 453.28">
  <defs>
    <style>
      .cls-1 {
        fill: #e2cd65;
      }

      .cls-2 {
        fill: #fff2a2;
      }
    </style>
  </defs>
  <path class="cls-1" d="M80.09,0c43.06,15.29,72.88,58.34,85.07,101.01,1.16,4.06,4.32,13.5,3.74,17.17-.54,3.43-11.89,11.08-15,14.01-47.57,44.79-83.67,99.51-100.76,163.15C-2.32,238.67-13.47,157.38,15.49,84.56,28.2,52.63,48.13,22.55,74.11,0h5.99Z"/>
  <path class="cls-2" d="M223.64,272.75s-88.79,91.12-142.84,94.39c-5.66.34-11.15.2-11.8-5.43-.4-3.45.45-7.56.91-11.47C89.64,182.16,242.93,65.32,407.5,63.29c4.47-.06,7.93-2.7,11.91,1.98,3.32,3.9,7.11,26.36,8.19,32.71,13.55,79.51,4.72,168.86-43.19,235.55-58.78,81.82-174.64,127.41-269.48,81.91-2.28-1.09-4.95-.96-7.14.32-18.28,10.69-37.29,20.35-57,28.12-6.05,2.39-25.01,10.41-30.19,9.3-4.98-1.07-6.91-6.86-5.12-11.13.8-1.92,2.49-3.33,4.46-3.99,84.77-28.61,158.92-84.14,213.93-154.21,5.35-6.82-3-15.87-10.23-11.09Z"/>
</svg>