<?xml version="1.0" encoding="UTF-8"?>
<svg id="Layer_1" xmlns="http://www.w3.org/2000/svg" version="1.1" viewBox="0 0 433.4 453.3">
  <!-- Generator: Adobe Illustrator 30.0.0, SVG Export Plug-In . SVG Version: 2.1.1 Build 123)  -->
  <defs>
    <style>
      .st0 {
        fill: #d39200;
      }

      .st1 {
        fill: #fff2a2;
      }
    </style>
  </defs>
  <path class="st0" d="M80.1,0c43.1,15.3,72.9,58.3,85.1,101,1.2,4.1,4.3,13.5,3.7,17.2-.5,3.4-11.9,11.1-15,14-47.6,44.8-83.7,99.5-100.8,163.1C-2.3,238.7-13.5,157.4,15.5,84.6,28.2,52.6,48.1,22.5,74.1,0h6,0Z"/>
  <path class="st1" d="M223.6,272.8s-88.8,91.1-142.8,94.4c-5.7.3-11.2.2-11.8-5.4-.4-3.5.4-7.6.9-11.5C89.6,182.2,242.9,65.3,407.5,63.3c4.5,0,7.9-2.7,11.9,2,3.3,3.9,7.1,26.4,8.2,32.7,13.5,79.5,4.7,168.9-43.2,235.5-58.8,81.8-174.6,127.4-269.5,81.9-2.3-1.1-4.9-1-7.1.3-18.3,10.7-37.3,20.4-57,28.1-6,2.4-25,10.4-30.2,9.3-5-1.1-6.9-6.9-5.1-11.1.8-1.9,2.5-3.3,4.5-4,84.8-28.6,158.9-84.1,213.9-154.2,5.4-6.8-3-15.9-10.2-11.1h0Z"/>
</svg>