<?xml version="1.0" encoding="UTF-8"?>
<svg id="Layer_1" data-name="Layer 1" xmlns="http://www.w3.org/2000/svg" viewBox="0 0 244.19 292.24">
  <defs>
    <style>
      .cls-1 {
        fill: #e7c12c;
      }
    </style>
  </defs>
  <path class="cls-1" d="M241.46,113.9l-.1-.14-.12-.12L131,3.37l-.04-.04-.04-.04c-2.38-2.12-5.52-3.29-8.85-3.29s-6.46,1.17-8.85,3.29l-.04.04-.04.04L2.9,113.63l-.14.14-.11.16c-3.14,4.71-3.5,10.11-.99,14.82,2.47,4.63,7.18,7.5,12.28,7.5,3.06,0,6.11-1.06,8.83-3.07l.12-.09.1-.1L108.07,48.24v232.56c0,2.9,1.83,5.81,5.16,8.18,2.83,2.01,6.29,3.26,9.04,3.26.07,0,.15,0,.22,0,2.59-.06,5.9-1.38,8.63-3.45,1.85-1.39,4.94-4.28,4.94-7.99V48.24l85.46,85.11.12.12.14.1c2.54,1.78,5.4,2.72,8.26,2.72,5.17,0,10.1-3.06,12.56-7.79,2.46-4.72,2.04-10.04-1.15-14.6ZM13.94,134.25c-.31,0-.62-.02-.92-.04.31.03.63.04.95.04,0,0-.02,0-.03,0ZM122.27,290.24c-.13,0-.26-.02-.39-.02.19,0,.38.02.56.02-.06,0-.11,0-.17,0ZM122.06,2h0c.19,0,.39.02.58.02-.19,0-.39-.02-.58-.02ZM230.05,134.29c-.15,0-.31-.01-.46-.02.22,0,.45.01.67.01-.07,0-.14,0-.21,0Z"/>
</svg>