<?xml version="1.0" encoding="UTF-8"?>
<svg id="_01_Ornaments_Border" data-name="01_Ornaments_Border" xmlns="http://www.w3.org/2000/svg" viewBox="0 0 1341.31 20.99">
  <defs>
    <style>
      .cls-1 {
        fill: #f26649;
      }
    </style>
  </defs>
  <path id="Row_07" class="cls-1" d="M1332.11,5.94c0-1.25.95-2.35.95-2.35,0,0-.25-.3-.8.15-.55.45-1.15,2.6-4.45,2.6h-636.73c2.91-.22,2.89-1.45,2.89-2.4,0-2.14-4.35-.68-3.64-3.45,0,0-1.54.38-1.54,1.65s1.95,1.16,1.95,2.44c0,.64-.6.56-1.28.56-2.89,0-6.34-3.98-9.94-3.98s-5.4,2.29-5.4,5.44c0,1.8,1.22,4.03,3.04,5.56,0,0,.16-1.56.27-1.86-.6-.8-1.03-1.76-1.03-2.87,0-3.21,1.8-3.28,2.8-3.28.49,0,1.62.47,1.62,1.82,0,0,1.69-.52,1.69-1.84,0-.59-.13-.93-.27-1.13,1.04.81,4.14,3.03,7.17,3.34-4.14,0-11.36-.05-12.07,4.5-.45,2.89-.26,5.06-2.89,5.77,0,0,.98-.64.98-2.51,0-2.7-3.45-3.9-3.45-6.22s1.87-1.69,1.87-4.88S670.85,0,670.85,0c0,0-3.02-.02-3.02,3,0,3.19,1.87,2.55,1.87,4.88s-3.45,3.52-3.45,6.22c0,1.88.98,2.51.98,2.51-2.62-.71-2.44-2.89-2.89-5.77-.71-4.55-7.93-4.51-12.07-4.5,3.03-.31,6.13-2.53,7.16-3.34-.14.2-.27.54-.27,1.13,0,1.31,1.69,1.84,1.69,1.84,0-1.35,1.14-1.82,1.63-1.82,1,0,2.8.07,2.8,3.28,0,1.11-.43,2.08-1.03,2.87.11.3.27,1.86.27,1.86,1.82-1.54,3.04-3.77,3.04-5.56,0-3.15-1.8-5.44-5.4-5.44s-7.05,3.98-9.94,3.98c-.67,0-1.27.08-1.27-.56,0-1.27,1.95-1.16,1.95-2.44s-1.54-1.65-1.54-1.65c.71,2.77-3.64,1.31-3.64,3.45,0,.95-.02,2.18,2.89,2.4H13.5c-3.3,0-3.9-2.15-4.45-2.6-.55-.45-.8-.15-.8-.15,0,0,.95,1.1.95,2.35C9.2,10.44,0,15.79,0,18.59c0,1.16.62,2.4,2.1,2.4,2.5,0,2.05-1.25,5.15-1.25,0,0,.25-1.25-1.65-1.25-.65,0-2.35.75-2.45-.6s2.65-3.59,2.65-3.59h648.12c.94,0,4.16-.46,4.16.89s-1.39,1.69-1.39,1.69c3.64.45,3.71-.68,3.71-1.54s-.86-1.27-.86-1.27c.96,0,1.89-.28,2.73-.62,1.86,2.06,2.2,4.6,4.99,4.6,2.18,0,2.51-1.5,2.51-1.5-.98-.26-1.95-.67-1.95-2.44s1.86-2.4,3.02-2.4,3.02.64,3.02,2.4-.98,2.18-1.95,2.44c0,0,.34,1.5,2.51,1.5,2.79,0,3.14-2.54,4.99-4.6.84.34,1.78.62,2.73.62,0,0-.86.41-.86,1.27s.07,1.99,3.71,1.54c0,0-1.39-.34-1.39-1.69s3.22-.89,4.16-.89h647.72s2.75,2.24,2.65,3.59c-.1,1.35-1.8.6-2.45.6-1.9,0-1.65,1.25-1.65,1.25,3.1,0,2.65,1.25,5.15,1.25,1.48,0,2.1-1.24,2.1-2.4,0-2.8-9.2-8.15-9.2-12.65ZM659.32,13.09H7l1.85-2.22h646.31c3,0,4.85.69,6.12,1.65-.58.35-1.49.57-1.95.57ZM670.85,5.1s-1.27-.25-1.27-1.46,1.27-2.37,1.27-2.37c0,0,1.27,1.16,1.27,2.37s-1.27,1.46-1.27,1.46ZM682.39,13.09c-.47,0-1.37-.22-1.95-.57,1.27-.96,3.12-1.65,6.12-1.65h645.91l1.85,2.22h-651.92Z"/>
</svg>