<?xml version="1.0" encoding="UTF-8"?>
<svg id="_01_Ornaments_Border" xmlns="http://www.w3.org/2000/svg" version="1.1" viewBox="0 0 1036.2 19.9">
  <!-- Generator: Adobe Illustrator 30.1.0, SVG Export Plug-In . SVG Version: 2.1.1 Build 136)  -->
  <defs>
    <style>
      .st0 {
        fill: #48785d;
      }
    </style>
  </defs>
  <g id="Row_06">
    <path class="st0" d="M1034.4,15.1c-1.7,0-1.9,1-1.9,1.9s1.1,1,1.1,1c0,0-.2.8-1.3.8s-5-1.7-6.1-7.4c-.5-2.7-2.6-3.6-3.5-3.6s-2.8.5-1.9,3.7c0,0-3.8-7.3-11.4-7.3s-6.1,3.7-6.1,3.7h-464.3c-4.2,0-9.8.6-19.5-3.4,0,0,2.8-2.5,8.2-2.8,0,0-2,.7-2,2.4s.5,2.8,3.2,2.8,2.4-1.5,6.2-1.5,5.3,1.7,8.5,2c2.6.2,2.6-1.3,2.6-2s-.8-1.4-1.7-1.6c0,0-1.2,0-1.7.4,0,0,1.8.2,1.8,1.2s-1.2,1.1-3.5,0c-1.7-.8-6.9-5.3-13.3-5.3s-9.7,3.5-9.7,3.5c0,0-3.3-3.5-9.7-3.5s-11.6,4.6-13.3,5.3c-2.3,1-3.5.9-3.5,0s1.8-1.2,1.8-1.2c-.5-.4-1.7-.5-1.7-.5-.8.2-1.7.9-1.7,1.6s0,2.2,2.6,2c3.3-.3,4.8-2,8.5-2s3.4,1.5,6.2,1.5,3.2-1.1,3.2-2.8-2-2.4-2-2.4c5.4.3,8.2,2.8,8.2,2.8-9.7,4-15.3,3.4-19.5,3.4H33s-1.1-3.7-6.1-3.7c-7.6,0-11.4,7.3-11.4,7.3.8-3.2-1.1-3.7-1.9-3.7s-3,.9-3.5,3.6c-1.1,5.7-4.9,7.4-6.1,7.4s-1.3-.8-1.3-.8c0,0,1-.1,1-1s-.2-1.9-1.9-1.9S-.1,16.5,0,17.4c.1.9,1.3,2.5,3.4,2.5,11.3,0,14.4-13.9,22-13.9s3.8,1.6,3.8,1.6c0,0-7.1-.8-9.8,3.8-2.6,4.6-8.5,7.9-8.5,7.9,0,0,1.6.4,2.2,0s3.8-2.5,5.2-3.8h999.5c1.3,1.2,4.6,3.5,5.2,3.8.6.3,2.2,0,2.2,0,0,0-5.8-3.3-8.5-7.9s-9.8-3.8-9.8-3.8c0,0-.5-1.6,3.8-1.6,7.7,0,10.7,13.9,22.1,13.9s3.2-1.7,3.4-2.5c.2-.9-.1-2.3-1.8-2.3h0ZM1015.6,12.8l1.3,1.5H19.3l1.3-1.5h474.2c3.5,0,12.5-.8,23.3-7.7,10.8,7,19.8,7.7,23.3,7.7h474.2,0Z"/>
    <path class="st0" d="M505.8,13h24.7s-8.2-3.4-12.3-6.8c-4.1,3.4-12.3,6.8-12.3,6.8h0Z"/>
  </g>
</svg>