<?xml version="1.0" encoding="UTF-8"?>
<svg id="_01_Ornaments_Border" data-name="01_Ornaments_Border" xmlns="http://www.w3.org/2000/svg" viewBox="0 0 1342.31 20.29">
  <defs>
    <style>
      .cls-1 {
        fill: #95a5a5;
      }
    </style>
  </defs>
  <g id="Row_08">
    <path class="cls-1" d="M651.56,0c-7.72,0-9.63,5.1-9.63,5.1H30.47s-3.68-2.74-8.72-2.74c-13.52,0-15.83,11.71-17.59,14.9-1.44,2.61-2.16,1.71-2.16,1.71,0,0,.15-1.1-1.03-1.1-.79,0-.97.74-.97,1.25s.48,1.18,1.78,1.18c3.6,0,4.7-4.41,7.13-4.41,1.32,0,2.06.59,2.06.59,0,0-.44-1.08-.44-2.55s1.18-10.39,11.91-10.39c3.48,0,4.85,1.42,4.85,1.42h-6.62c-.93,0-8.82,1.37-8.43,10.53,0,0,.34,0,.83.34v-1.81c0-.69.49-1.77,1.96-1.77h650.19s1.25.84,1.25,2.97-.73,2.72-.73,2.72c0-.44-.37-.96-1.03-.96s-1.03.44-1.03,1.03.22,1.25,1.25,1.25c2.21,0,3.38-3.16,3.82-5,.44-1.84,2.65-2.57,2.65-2.57-2.94,0-6.32-11.69-19.84-11.69ZM13.96,11.02s.2-1.51,1.37-1.66h646.25c-2.06-3.33-5.19-4.36-5.19-4.36h-12.54s1.64-3.33,5.68-3.33c9.78,0,14.99,9.35,14.99,9.35H13.96Z"/>
    <path class="cls-1" d="M1341.34,17.86c-1.18,0-1.03,1.1-1.03,1.1,0,0-.71.89-2.16-1.71-1.76-3.19-4.07-14.9-17.59-14.9-5.05,0-8.72,2.74-8.72,2.74h-610.12s-1.91-5.1-9.63-5.1c-13.52,0-16.9,11.69-19.84,11.69,0,0,2.2.73,2.65,2.57.44,1.84,1.62,5,3.82,5,1.03,0,1.25-.66,1.25-1.25s-.37-1.03-1.03-1.03-1.03.51-1.03.96c0,0-.73-.59-.73-2.72s1.25-2.97,1.25-2.97h648.85c1.47,0,1.96,1.08,1.96,1.77v1.81c.49-.34.83-.34.83-.34.39-9.16-7.5-10.53-8.43-10.53h-6.62s1.37-1.42,4.85-1.42c10.73,0,11.91,8.92,11.91,10.39s-.44,2.55-.44,2.55c0,0,.73-.59,2.06-.59,2.43,0,3.53,4.41,7.13,4.41,1.3,0,1.78-.66,1.78-1.18s-.18-1.25-.97-1.25ZM1326.98,9.36c1.18.15,1.37,1.66,1.37,1.66h-649.22s5.21-9.35,14.99-9.35c4.04,0,5.68,3.33,5.68,3.33h-12.54s-3.14,1.03-5.19,4.36h644.91Z"/>
  </g>
</svg>