<?xml version="1.0" encoding="UTF-8"?>
<svg id="_01_Ornaments_Border" data-name="01_Ornaments_Border" xmlns="http://www.w3.org/2000/svg" viewBox="0 0 1302.5 22.29">
  <defs>
    <style>
      .cls-1 {
        fill: #c3b48b;
      }
    </style>
  </defs>
  <path id="Row_01" class="cls-1" d="M1287.16,4.49s-.78.9-3.73.9h-610.77l-2.8,2.8-5.5-5.5-5.21,5.5-7.57-8.19-7.57,8.19-5.21-5.5-5.5,5.5-2.8-2.8H19.06c-2.95,0-3.73-.9-3.73-.9C15.33,10.39,0,15.2,0,20.37c0,1.8,1.32,1.92,1.74,1.92s1.5-.06,1.5-1.38-1.62-1.08-1.62-1.08c0,0-.84-.72,2.35-3.13,3.19-2.41,7.16-4.15,7.16-4.15h622.45l1.16-1.16,5.43,5.4,5.18-5.46,6.24,6.54,6.24-6.54,5.18,5.46,5.43-5.4,1.16,1.16h621.78s3.97,1.74,7.16,4.15c3.19,2.41,2.35,3.13,2.35,3.13,0,0-1.62-.3-1.62,1.08s1.08,1.38,1.5,1.38,1.74-.12,1.74-1.92c0-5.17-15.33-9.98-15.33-15.87ZM13.47,11.47s2.95-2.59,9.8-2.59h609.32s.09-.06.09-.06l-2.65,2.65H13.47ZM638.87,13.75l-3.14-3.35h0s4.47-4.46,4.47-4.46l3,3.14-4.32,4.67ZM651.59,16.18l-5.41-5.71,5.41-5.7,5.41,5.7-5.41,5.71ZM667.45,10.4l-3.14,3.35-4.32-4.67,3-3.14,4.47,4.47h0ZM673.14,11.47l-2.65-2.65.09.07h608.64c6.86-.01,9.8,2.57,9.8,2.57h-615.88Z"/>
</svg>