<?xml version="1.0" encoding="UTF-8"?>
<svg id="_01_Ornaments_Border" data-name="01_Ornaments_Border" xmlns="http://www.w3.org/2000/svg" viewBox="0 0 1538.9 27.78">
  <defs>
    <style>
      .cls-1 {
        fill: #ee2927;
      }
    </style>
  </defs>
  <g id="Row_04">
    <path class="cls-1" d="M34.95,11.06c2.31,0,722.58.28,727.9.28s5.81-2.1,5.81-3.29-.42-2.87-2.52-2.87c-1.68,0-2.31,1.47-2.31,2.1s.07,1.4.56,1.75c0,0-721.95-.3-724.05-.28-16.95.14-14.57-3.85-14.57-3.85,1.19-.28,1.68-1.54,1.68-1.96S27.87,0,24.65,0s-3.15,3.43-3.15,3.43c0,6.44,8.61,7.63,13.45,7.63Z"/>
    <path class="cls-1" d="M762.85,16.43c-5.32,0-725.59.28-727.9.28-4.83,0-13.45,1.19-13.45,7.63,0,0-.07,3.43,3.15,3.43s2.8-2.52,2.8-2.94-.49-1.68-1.68-1.96c0,0-2.38-3.99,14.57-3.85,2.11.02,724.05-.28,724.05-.28-.49.35-.56,1.12-.56,1.75s.63,2.1,2.31,2.1c2.1,0,2.52-1.68,2.52-2.87s-.49-3.29-5.81-3.29Z"/>
    <path class="cls-1" d="M777.99,11.35c5.32,0,723.65-.28,725.97-.28,4.83,0,13.45-1.19,13.45-7.63,0,0,.07-3.43-3.15-3.43s-2.8,2.52-2.8,2.94.49,1.68,1.68,1.96c0,0,2.38,3.99-14.57,3.85-2.11-.02-722.11.28-722.11.28.49-.35.56-1.12.56-1.75s-.63-2.1-2.31-2.1c-2.1,0-2.52,1.68-2.52,2.87s.49,3.29,5.81,3.29Z"/>
    <path class="cls-1" d="M1503.95,16.71c-2.31,0-720.64-.28-725.97-.28s-5.81,2.1-5.81,3.29.42,2.87,2.52,2.87c1.68,0,2.31-1.47,2.31-2.1s-.07-1.4-.56-1.75c0,0,720.01.3,722.11.28,16.95-.14,14.57,3.85,14.57,3.85-1.19.28-1.68,1.54-1.68,1.96s-.42,2.94,2.8,2.94,3.15-3.43,3.15-3.43c0-6.44-8.61-7.63-13.45-7.63Z"/>
    <path class="cls-1" d="M1537.5,13.07c-1.76,0-6.23-.77-7.7-2.59,0,0-.77,1.54-3.08,2.1-.58.14-2.31.19-2.31.19v-2.22s-.42-2.03,1.05-2.7c0,0-1.4-3.26-1.61-5.22,0,0-.21-1.26-1.12-1.26-.7,0-1.19.84-1.19,1.4s-.84,3.57-1.75,5.08c0,0,1.4.31,1.4,2.56v2.36h-748.55c-.23-.68-.7-1.1-1.44-1.28-.07-.02-.14-.04-.22-.05-.06,0-.13-.01-.19-.02-.1-.01-.18-.03-.29-.03-.03,0-.05,0-.08,0-.03,0-.05,0-.08,0-.1,0-.19.02-.28.03-.07,0-.14.01-.2.02-.08.01-.15.03-.22.05-.74.18-1.22.6-1.44,1.28H17.72v-2.36c0-2.24,1.4-2.56,1.4-2.56-.91-1.51-1.75-4.52-1.75-5.08s-.49-1.4-1.19-1.4c-.91,0-1.12,1.26-1.12,1.26-.21,1.96-1.61,5.22-1.61,5.22,1.47.67,1.05,2.7,1.05,2.7v2.22s-1.73-.05-2.31-.19c-2.31-.56-3.08-2.1-3.08-2.1-1.47,1.82-5.95,2.59-7.7,2.59-1.4,0-1.4.82-1.4.82,0,0,.03.82,1.4.82,1.76,0,6.23.77,7.7,2.59,0,0,.77-1.54,3.08-2.1.58-.14,2.31-.19,2.31-.19v2.22s.42,2.03-1.05,2.7c0,0,1.4,3.26,1.61,5.22,0,0,.21,1.26,1.12,1.26.7,0,1.19-.84,1.19-1.4s.84-3.57,1.75-5.08c0,0-1.4-.32-1.4-2.56v-2.36h750.52s.42,1.38,2.1,1.38c.03,0,.05,0,.08,0,.03,0,.05,0,.08,0,1.68,0,2.1-1.38,2.1-1.38h748.59v2.36c0,2.24-1.4,2.56-1.4,2.56.91,1.51,1.75,4.52,1.75,5.08s.49,1.4,1.19,1.4c.91,0,1.12-1.26,1.12-1.26.21-1.96,1.61-5.22,1.61-5.22-1.47-.67-1.05-2.7-1.05-2.7v-2.22s1.73.05,2.31.19c2.31.56,3.08,2.1,3.08,2.1,1.47-1.82,5.95-2.59,7.7-2.59,1.37,0,1.4-.82,1.4-.82,0,0,0-.82-1.4-.82Z"/>
  </g>
</svg>