<?xml version="1.0" encoding="UTF-8"?>
<svg id="Layer_1" data-name="Layer 1" xmlns="http://www.w3.org/2000/svg" viewBox="0 0 814 16.18">
  <defs>
    <style>
      .cls-1 {
        fill: #231f20;
      }
    </style>
  </defs>
  <path class="cls-1" d="M49.23,15.87c1.43-.58,2.57-2.33,4.13-2.95,1.34-.53,3.13-.4,4.82-.02,2.21.5,4.29,1.49,6.48,2.09-2.43.52-3.99-.31-6.73.04-1.95.25-2.28.57-4.03.92-1.51.3-3.18.26-4.68-.07M37.7,4.79s-.06,1.24.29,2.49c1,3.53,4.62,3.49,7.15,1.63,2.89-2.12,5.68-1.57,8.35-.29-2.39-2.15-7.77-5.63-10.97-3.32-1.86,1.34-3.1,1.3-4.82-.51ZM34.71,16.09s1.97-1.13,2.14-3.41c.12-1.66-.82-3.13-1.37-4.62-.79-2.14,0-3.93,1.43-5.65-2.34.78-4.21,2.77-4.77,5.18-.55,2.35.1,3.99,1.33,5.88.53.82,1.11,1.62,1.24,2.62ZM25.35,15.61c1.46.62,3.83,1.01,5.07-.26,1.21-1.23.9-2.73.54-4.19-.83-3.35.31-5.97,2.79-8.4-7.29,2.78-4.35,6.36-7.03,11.06-.61,1.07-1.37,1.78-1.37,1.78ZM17.47,15.47s1.87.9,3.94.67c2.48-.29,3.98-2.29,4.71-4.55,1.11-3.42.97-6.01,4.19-8.34-4.64,1.6-8.39,5.46-10.41,9.88-.47,1.03-.97,1.91-2.43,2.35ZM10.35,15.3c1.52.87,3.57.94,5.17.24,1.14-.5,2.45-2.24,3.51-3.83,1.07-1.6,2.05-3.06,3.41-4.45-3.05,1.18-5.04,4.41-7.74,6.14-1.3.84-2.73,1.45-4.36,1.91ZM37.92,13.36c.78,1.57,2.45,2.36,4.23,2.64,4.4.69,6.16-1.74,9.66-3.73,2.02-1.15,4.16-.96,6.3-.23-2.9-2.76-6.53-3.61-9.87-2.8-2.28.55-4.08,1.86-5.92,3.24-1.44,1.08-2.59,1.46-4.39.88ZM71.71.09s1.97,1.13,2.14,3.41c.12,1.66-.82,3.13-1.37,4.62-.79,2.14,0,3.93,1.43,5.65-2.34-.78-4.21-2.77-4.77-5.18-.55-2.35.1-3.99,1.33-5.88.53-.82,1.11-1.62,1.24-2.62ZM62.35.58c1.46-.62,3.83-1.01,5.07.26,1.21,1.23.9,2.73.54,4.19-.83,3.35.31,5.97,2.79,8.4-7.29-2.78-4.35-6.36-7.03-11.06-.61-1.07-1.37-1.78-1.37-1.78ZM54.47.71s1.87-.9,3.94-.67c2.48.29,3.98,2.29,4.71,4.55,1.11,3.42.97,6.01,4.19,8.34-4.64-1.6-8.39-5.46-10.41-9.88-.47-1.03-.97-1.91-2.43-2.35ZM47.35.89c1.52-.87,3.57-.94,5.17-.24,1.14.5,2.45,2.24,3.51,3.83,1.07,1.6,2.05,3.06,3.41,4.45-3.05-1.18-5.04-4.41-7.74-6.14-1.3-.84-2.73-1.45-4.36-1.91ZM12.23.31c1.43.58,2.57,2.33,4.13,2.95,1.34.53,3.13.4,4.82.02,2.21-.5,4.29-1.49,6.48-2.09-2.43-.52-3.99.31-6.73-.04-1.95-.25-2.28-.57-4.03-.92-1.51-.3-3.18-.26-4.68.07ZM.7,11.4s-.06-1.24.29-2.49c1-3.53,4.62-3.49,7.15-1.63,2.89,2.12,5.68,1.57,8.35.29-2.39,2.15-7.77,5.63-10.97,3.32-1.86-1.34-3.1-1.3-4.82.51ZM.92,2.82C1.71,1.25,3.38.46,5.15.18c4.4-.69,6.16,1.74,9.66,3.73,2.02,1.15,4.16.96,6.3.23-2.9,2.76-6.53,3.61-9.87,2.8-2.28-.55-4.08-1.86-5.92-3.24-1.44-1.08-2.59-1.46-4.39-.88ZM74,15.65h0c-7.2,0-13.69-1.97-18.88-6.93-5.01-4.8-11.13-6.71-18.11-6.71h0s0,0,0,0h0c-6.98,0-13.1,1.91-18.11,6.71C13.69,13.69,7.2,15.65,0,15.65H0s0,0,0,0v-1.48h0c6.98,0,13.1-1.91,18.11-6.71C23.31,2.5,29.8.53,37,.53h0s0,0,0,0h0c7.2,0,13.69,1.97,18.88,6.93,5.01,4.8,11.13,6.71,18.11,6.71h0s0,0,0,0v1.48Z"/>
  <path class="cls-1" d="M123.23,15.87c1.43-.58,2.57-2.33,4.13-2.95,1.34-.53,3.13-.4,4.82-.02,2.21.5,4.29,1.49,6.48,2.09-2.43.52-3.99-.31-6.73.04-1.95.25-2.28.57-4.03.92-1.51.3-3.18.26-4.68-.07M111.7,4.79s-.06,1.24.29,2.49c1,3.53,4.62,3.49,7.15,1.63,2.89-2.12,5.68-1.57,8.35-.29-2.39-2.15-7.77-5.63-10.97-3.32-1.86,1.34-3.1,1.3-4.82-.51ZM108.71,16.09s1.97-1.13,2.14-3.41c.12-1.66-.82-3.13-1.37-4.62-.79-2.14,0-3.93,1.43-5.65-2.34.78-4.21,2.77-4.77,5.18-.55,2.35.1,3.99,1.33,5.88.53.82,1.11,1.62,1.24,2.62ZM99.35,15.61c1.46.62,3.83,1.01,5.07-.26,1.21-1.23.9-2.73.54-4.19-.83-3.35.31-5.97,2.79-8.4-7.29,2.78-4.35,6.36-7.03,11.06-.61,1.07-1.37,1.78-1.37,1.78ZM91.47,15.47s1.87.9,3.94.67c2.48-.29,3.98-2.29,4.71-4.55,1.11-3.42.97-6.01,4.19-8.34-4.64,1.6-8.39,5.46-10.41,9.88-.47,1.03-.97,1.91-2.43,2.35ZM84.35,15.3c1.52.87,3.57.94,5.17.24,1.14-.5,2.45-2.24,3.51-3.83,1.07-1.6,2.05-3.06,3.41-4.45-3.05,1.18-5.04,4.41-7.74,6.14-1.3.84-2.73,1.45-4.36,1.91ZM111.92,13.36c.78,1.57,2.45,2.36,4.22,2.64,4.4.69,6.16-1.74,9.66-3.73,2.02-1.15,4.16-.96,6.3-.23-2.9-2.76-6.53-3.61-9.87-2.8-2.28.55-4.08,1.86-5.92,3.24-1.44,1.08-2.59,1.46-4.39.88ZM145.71.09s1.97,1.13,2.14,3.41c.12,1.66-.82,3.13-1.37,4.62-.79,2.14,0,3.93,1.43,5.65-2.34-.78-4.21-2.77-4.77-5.18-.55-2.35.1-3.99,1.33-5.88.53-.82,1.11-1.62,1.24-2.62ZM136.35.58c1.46-.62,3.83-1.01,5.07.26,1.21,1.23.9,2.73.54,4.19-.83,3.35.31,5.97,2.79,8.4-7.29-2.78-4.35-6.36-7.03-11.06-.61-1.07-1.37-1.78-1.37-1.78ZM128.47.71s1.87-.9,3.94-.67c2.48.29,3.98,2.29,4.71,4.55,1.11,3.42.97,6.01,4.19,8.34-4.64-1.6-8.39-5.46-10.41-9.88-.47-1.03-.97-1.91-2.43-2.35ZM121.35.89c1.52-.87,3.57-.94,5.17-.24,1.14.5,2.45,2.24,3.51,3.83,1.07,1.6,2.05,3.06,3.41,4.45-3.05-1.18-5.04-4.41-7.74-6.14-1.3-.84-2.73-1.45-4.36-1.91ZM86.23.31c1.43.58,2.57,2.33,4.13,2.95,1.34.53,3.13.4,4.82.02,2.21-.5,4.29-1.49,6.48-2.09-2.43-.52-3.99.31-6.73-.04-1.95-.25-2.28-.57-4.03-.92-1.51-.3-3.18-.26-4.68.07ZM74.7,11.4s-.06-1.24.29-2.49c1-3.53,4.62-3.49,7.15-1.63,2.89,2.12,5.68,1.57,8.35.29-2.39,2.15-7.77,5.63-10.97,3.32-1.86-1.34-3.1-1.3-4.82.51ZM74.92,2.82c.78-1.57,2.45-2.36,4.22-2.64,4.4-.69,6.16,1.74,9.66,3.73,2.02,1.15,4.16.96,6.3.23-2.9,2.76-6.53,3.61-9.87,2.8-2.28-.55-4.08-1.86-5.92-3.24-1.44-1.08-2.59-1.46-4.39-.88ZM148,15.65h0c-7.2,0-13.69-1.97-18.88-6.93-5.01-4.8-11.13-6.71-18.11-6.71h0s0,0,0,0h0c-6.98,0-13.1,1.91-18.11,6.71-5.19,4.97-11.68,6.93-18.88,6.93h0s0,0,0,0v-1.48h0c6.98,0,13.1-1.91,18.11-6.71,5.19-4.97,11.68-6.93,18.88-6.93h0s0,0,0,0h0c7.2,0,13.69,1.97,18.88,6.93,5.01,4.8,11.13,6.71,18.11,6.71h0s0,0,0,0v1.48Z"/>
  <path class="cls-1" d="M197.23,15.87c1.43-.58,2.57-2.33,4.13-2.95,1.34-.53,3.13-.4,4.82-.02,2.21.5,4.29,1.49,6.48,2.09-2.43.52-3.99-.31-6.73.04-1.95.25-2.28.57-4.03.92-1.51.3-3.18.26-4.68-.07M185.7,4.79s-.06,1.24.29,2.49c1,3.53,4.62,3.49,7.15,1.63,2.89-2.12,5.68-1.57,8.35-.29-2.39-2.15-7.77-5.63-10.97-3.32-1.86,1.34-3.1,1.3-4.82-.51ZM182.71,16.09s1.97-1.13,2.14-3.41c.12-1.66-.82-3.13-1.37-4.62-.79-2.14,0-3.93,1.43-5.65-2.34.78-4.21,2.77-4.77,5.18-.55,2.35.1,3.99,1.33,5.88.53.82,1.11,1.62,1.24,2.62ZM173.35,15.61c1.46.62,3.83,1.01,5.07-.26,1.21-1.23.9-2.73.54-4.19-.83-3.35.31-5.97,2.79-8.4-7.29,2.78-4.35,6.36-7.03,11.06-.61,1.07-1.37,1.78-1.37,1.78ZM165.47,15.47s1.87.9,3.94.67c2.48-.29,3.98-2.29,4.71-4.55,1.11-3.42.97-6.01,4.19-8.34-4.64,1.6-8.39,5.46-10.41,9.88-.47,1.03-.97,1.91-2.43,2.35ZM158.35,15.3c1.52.87,3.57.94,5.17.24,1.14-.5,2.45-2.24,3.51-3.83,1.07-1.6,2.05-3.06,3.41-4.45-3.05,1.18-5.04,4.41-7.74,6.14-1.3.84-2.73,1.45-4.36,1.91ZM185.92,13.36c.78,1.57,2.45,2.36,4.22,2.64,4.4.69,6.16-1.74,9.66-3.73,2.02-1.15,4.16-.96,6.3-.23-2.9-2.76-6.53-3.61-9.87-2.8-2.28.55-4.08,1.86-5.92,3.24-1.44,1.08-2.59,1.46-4.39.88ZM219.71.09s1.97,1.13,2.14,3.41c.12,1.66-.82,3.13-1.37,4.62-.79,2.14,0,3.93,1.43,5.65-2.34-.78-4.21-2.77-4.77-5.18-.55-2.35.1-3.99,1.33-5.88.53-.82,1.11-1.62,1.24-2.62ZM210.35.58c1.46-.62,3.83-1.01,5.07.26,1.21,1.23.9,2.73.54,4.19-.83,3.35.31,5.97,2.79,8.4-7.29-2.78-4.35-6.36-7.03-11.06-.61-1.07-1.37-1.78-1.37-1.78ZM202.47.71s1.87-.9,3.94-.67c2.48.29,3.98,2.29,4.71,4.55,1.11,3.42.97,6.01,4.19,8.34-4.64-1.6-8.39-5.46-10.41-9.88-.47-1.03-.97-1.91-2.43-2.35ZM195.35.89c1.52-.87,3.57-.94,5.17-.24,1.14.5,2.45,2.24,3.51,3.83,1.07,1.6,2.05,3.06,3.41,4.45-3.05-1.18-5.04-4.41-7.74-6.14-1.3-.84-2.73-1.45-4.36-1.91ZM160.23.31c1.43.58,2.57,2.33,4.13,2.95,1.34.53,3.13.4,4.82.02,2.21-.5,4.29-1.49,6.48-2.09-2.43-.52-3.99.31-6.73-.04-1.95-.25-2.28-.57-4.03-.92-1.51-.3-3.18-.26-4.68.07ZM148.7,11.4s-.06-1.24.29-2.49c1-3.53,4.62-3.49,7.15-1.63,2.89,2.12,5.68,1.57,8.35.29-2.39,2.15-7.77,5.63-10.97,3.32-1.86-1.34-3.1-1.3-4.81.51ZM148.92,2.82c.78-1.57,2.45-2.36,4.23-2.64,4.4-.69,6.16,1.74,9.66,3.73,2.02,1.15,4.16.96,6.3.23-2.9,2.76-6.53,3.61-9.87,2.8-2.28-.55-4.08-1.86-5.92-3.24-1.44-1.08-2.59-1.46-4.39-.88ZM222,15.65h0c-7.2,0-13.69-1.97-18.88-6.93-5.01-4.8-11.13-6.71-18.11-6.71h0s0,0,0,0h0c-6.98,0-13.1,1.91-18.11,6.71-5.19,4.97-11.68,6.93-18.88,6.93h0s0,0,0,0v-1.48h0c6.98,0,13.1-1.91,18.11-6.71,5.19-4.97,11.68-6.93,18.88-6.93h0s0,0,0,0h0c7.2,0,13.69,1.97,18.88,6.93,5.01,4.8,11.13,6.71,18.11,6.71h0s0,0,0,0v1.48Z"/>
  <path class="cls-1" d="M271.23,15.87c1.43-.58,2.57-2.33,4.13-2.95,1.34-.53,3.13-.4,4.82-.02,2.21.5,4.29,1.49,6.48,2.09-2.43.52-3.99-.31-6.73.04-1.95.25-2.28.57-4.03.92-1.51.3-3.18.26-4.68-.07M259.7,4.79s-.06,1.24.29,2.49c1,3.53,4.62,3.49,7.15,1.63,2.89-2.12,5.68-1.57,8.35-.29-2.39-2.15-7.77-5.63-10.97-3.32-1.86,1.34-3.1,1.3-4.82-.51ZM256.71,16.09s1.97-1.13,2.14-3.41c.12-1.66-.82-3.13-1.37-4.62-.79-2.14,0-3.93,1.43-5.65-2.34.78-4.21,2.77-4.77,5.18-.55,2.35.1,3.99,1.33,5.88.53.82,1.11,1.62,1.24,2.62ZM247.35,15.61c1.46.62,3.83,1.01,5.07-.26,1.21-1.23.9-2.73.54-4.19-.83-3.35.31-5.97,2.79-8.4-7.29,2.78-4.35,6.36-7.03,11.06-.61,1.07-1.37,1.78-1.37,1.78ZM239.47,15.47s1.87.9,3.94.67c2.48-.29,3.98-2.29,4.71-4.55,1.11-3.42.97-6.01,4.19-8.34-4.64,1.6-8.39,5.46-10.41,9.88-.47,1.03-.97,1.91-2.43,2.35ZM232.35,15.3c1.52.87,3.57.94,5.17.24,1.14-.5,2.45-2.24,3.51-3.83,1.07-1.6,2.05-3.06,3.41-4.45-3.05,1.18-5.04,4.41-7.74,6.14-1.3.84-2.73,1.45-4.36,1.91ZM259.92,13.36c.78,1.57,2.45,2.36,4.23,2.64,4.4.69,6.16-1.74,9.66-3.73,2.02-1.15,4.16-.96,6.3-.23-2.9-2.76-6.53-3.61-9.87-2.8-2.28.55-4.08,1.86-5.92,3.24-1.44,1.08-2.59,1.46-4.39.88ZM293.71.09s1.97,1.13,2.14,3.41c.12,1.66-.82,3.13-1.37,4.62-.79,2.14,0,3.93,1.43,5.65-2.34-.78-4.21-2.77-4.77-5.18-.55-2.35.1-3.99,1.33-5.88.53-.82,1.11-1.62,1.24-2.62ZM284.35.58c1.46-.62,3.83-1.01,5.07.26,1.21,1.23.9,2.73.54,4.19-.83,3.35.31,5.97,2.79,8.4-7.29-2.78-4.35-6.36-7.03-11.06-.61-1.07-1.37-1.78-1.37-1.78ZM276.47.71s1.87-.9,3.94-.67c2.48.29,3.98,2.29,4.71,4.55,1.11,3.42.97,6.01,4.19,8.34-4.64-1.6-8.39-5.46-10.41-9.88-.47-1.03-.97-1.91-2.43-2.35ZM269.35.89c1.52-.87,3.57-.94,5.17-.24,1.14.5,2.45,2.24,3.51,3.83,1.07,1.6,2.05,3.06,3.41,4.45-3.05-1.18-5.04-4.41-7.74-6.14-1.3-.84-2.73-1.45-4.36-1.91ZM234.23.31c1.43.58,2.57,2.33,4.13,2.95,1.34.53,3.13.4,4.82.02,2.21-.5,4.29-1.49,6.48-2.09-2.43-.52-3.99.31-6.73-.04-1.95-.25-2.28-.57-4.03-.92-1.51-.3-3.18-.26-4.68.07ZM222.7,11.4s-.06-1.24.29-2.49c1-3.53,4.62-3.49,7.15-1.63,2.89,2.12,5.68,1.57,8.35.29-2.39,2.15-7.77,5.63-10.97,3.32-1.86-1.34-3.1-1.3-4.81.51ZM222.92,2.82c.78-1.57,2.45-2.36,4.22-2.64,4.4-.69,6.16,1.74,9.66,3.73,2.02,1.15,4.16.96,6.3.23-2.9,2.76-6.53,3.61-9.87,2.8-2.28-.55-4.08-1.86-5.92-3.24-1.44-1.08-2.59-1.46-4.39-.88ZM296,15.65h0c-7.2,0-13.69-1.97-18.88-6.93-5.01-4.8-11.13-6.71-18.11-6.71h0s0,0,0,0h0c-6.98,0-13.1,1.91-18.11,6.71-5.19,4.97-11.68,6.93-18.88,6.93h0s0,0,0,0v-1.48h0c6.98,0,13.1-1.91,18.11-6.71,5.19-4.97,11.68-6.93,18.88-6.93h0s0,0,0,0h0c7.2,0,13.69,1.97,18.88,6.93,5.01,4.8,11.13,6.71,18.11,6.71h0s0,0,0,0v1.48Z"/>
  <path class="cls-1" d="M345.23,15.87c1.43-.58,2.57-2.33,4.13-2.95,1.34-.53,3.13-.4,4.82-.02,2.21.5,4.29,1.49,6.48,2.09-2.43.52-3.99-.31-6.73.04-1.95.25-2.28.57-4.03.92-1.51.3-3.18.26-4.68-.07M333.7,4.79s-.06,1.24.29,2.49c1,3.53,4.62,3.49,7.15,1.63,2.89-2.12,5.69-1.57,8.35-.29-2.39-2.15-7.77-5.63-10.97-3.32-1.86,1.34-3.1,1.3-4.82-.51ZM330.71,16.09s1.97-1.13,2.14-3.41c.12-1.66-.82-3.13-1.37-4.62-.79-2.14,0-3.93,1.43-5.65-2.34.78-4.21,2.77-4.77,5.18-.55,2.35.1,3.99,1.33,5.88.53.82,1.11,1.62,1.24,2.62ZM321.35,15.61c1.46.62,3.83,1.01,5.07-.26,1.21-1.23.9-2.73.54-4.19-.83-3.35.31-5.97,2.79-8.4-7.29,2.78-4.35,6.36-7.03,11.06-.61,1.07-1.37,1.78-1.37,1.78ZM313.47,15.47s1.87.9,3.94.67c2.48-.29,3.98-2.29,4.71-4.55,1.11-3.42.97-6.01,4.19-8.34-4.64,1.6-8.39,5.46-10.41,9.88-.47,1.03-.97,1.91-2.43,2.35ZM306.35,15.3c1.52.87,3.57.94,5.17.24,1.14-.5,2.45-2.24,3.51-3.83,1.07-1.6,2.05-3.06,3.41-4.45-3.05,1.18-5.04,4.41-7.74,6.14-1.3.84-2.73,1.45-4.36,1.91ZM333.92,13.36c.78,1.57,2.45,2.36,4.22,2.64,4.4.69,6.16-1.74,9.66-3.73,2.02-1.15,4.16-.96,6.3-.23-2.9-2.76-6.53-3.61-9.87-2.8-2.28.55-4.08,1.86-5.92,3.24-1.44,1.08-2.59,1.46-4.39.88ZM367.71.09s1.97,1.13,2.14,3.41c.12,1.66-.82,3.13-1.37,4.62-.79,2.14,0,3.93,1.43,5.65-2.34-.78-4.21-2.77-4.77-5.18-.55-2.35.1-3.99,1.33-5.88.53-.82,1.11-1.62,1.24-2.62ZM358.35.58c1.46-.62,3.83-1.01,5.07.26,1.21,1.23.9,2.73.54,4.19-.83,3.35.31,5.97,2.79,8.4-7.29-2.78-4.35-6.36-7.03-11.06-.61-1.07-1.37-1.78-1.37-1.78ZM350.47.71s1.87-.9,3.94-.67c2.48.29,3.98,2.29,4.71,4.55,1.11,3.42.97,6.01,4.19,8.34-4.64-1.6-8.39-5.46-10.41-9.88-.47-1.03-.97-1.91-2.43-2.35ZM343.35.89c1.52-.87,3.57-.94,5.17-.24,1.14.5,2.45,2.24,3.51,3.83,1.07,1.6,2.05,3.06,3.41,4.45-3.05-1.18-5.04-4.41-7.74-6.14-1.3-.84-2.73-1.45-4.36-1.91ZM308.23.31c1.43.58,2.57,2.33,4.13,2.95,1.34.53,3.13.4,4.82.02,2.21-.5,4.29-1.49,6.48-2.09-2.43-.52-3.99.31-6.73-.04-1.95-.25-2.28-.57-4.03-.92-1.51-.3-3.18-.26-4.68.07ZM296.7,11.4s-.06-1.24.29-2.49c1-3.53,4.62-3.49,7.15-1.63,2.89,2.12,5.68,1.57,8.35.29-2.39,2.15-7.77,5.63-10.97,3.32-1.86-1.34-3.1-1.3-4.82.51ZM296.92,2.82c.78-1.57,2.45-2.36,4.22-2.64,4.4-.69,6.16,1.74,9.66,3.73,2.02,1.15,4.16.96,6.3.23-2.9,2.76-6.53,3.61-9.87,2.8-2.28-.55-4.08-1.86-5.92-3.24-1.44-1.08-2.59-1.46-4.39-.88ZM370,15.65h0c-7.2,0-13.69-1.97-18.88-6.93-5.01-4.8-11.13-6.71-18.11-6.71h0s0,0,0,0h0c-6.98,0-13.1,1.91-18.11,6.71-5.19,4.97-11.68,6.93-18.88,6.93h0s0,0,0,0v-1.48h0c6.98,0,13.1-1.91,18.11-6.71,5.19-4.97,11.68-6.93,18.88-6.93h0s0,0,0,0h0c7.2,0,13.69,1.97,18.88,6.93,5.01,4.8,11.13,6.71,18.11,6.71h0s0,0,0,0v1.48Z"/>
  <path class="cls-1" d="M419.23,15.87c1.43-.58,2.57-2.33,4.13-2.95,1.34-.53,3.13-.4,4.82-.02,2.21.5,4.29,1.49,6.48,2.09-2.43.52-3.99-.31-6.73.04-1.95.25-2.28.57-4.03.92-1.51.3-3.18.26-4.68-.07M407.7,4.79s-.06,1.24.29,2.49c1,3.53,4.62,3.49,7.15,1.63,2.89-2.12,5.68-1.57,8.35-.29-2.39-2.15-7.77-5.63-10.97-3.32-1.86,1.34-3.1,1.3-4.81-.51ZM404.71,16.09s1.97-1.13,2.14-3.41c.12-1.66-.82-3.13-1.37-4.62-.79-2.14,0-3.93,1.43-5.65-2.34.78-4.21,2.77-4.77,5.18-.55,2.35.1,3.99,1.33,5.88.53.82,1.11,1.62,1.24,2.62ZM395.35,15.61c1.46.62,3.83,1.01,5.07-.26,1.21-1.23.9-2.73.54-4.19-.83-3.35.31-5.97,2.79-8.4-7.29,2.78-4.35,6.36-7.03,11.06-.61,1.07-1.37,1.78-1.37,1.78ZM387.47,15.47s1.87.9,3.94.67c2.48-.29,3.98-2.29,4.71-4.55,1.11-3.42.97-6.01,4.19-8.34-4.64,1.6-8.39,5.46-10.41,9.88-.47,1.03-.97,1.91-2.43,2.35ZM380.35,15.3c1.52.87,3.57.94,5.17.24,1.14-.5,2.45-2.24,3.51-3.83,1.07-1.6,2.05-3.06,3.41-4.45-3.05,1.18-5.04,4.41-7.74,6.14-1.3.84-2.73,1.45-4.36,1.91ZM407.92,13.36c.78,1.57,2.45,2.36,4.22,2.64,4.4.69,6.16-1.74,9.66-3.73,2.02-1.15,4.16-.96,6.3-.23-2.9-2.76-6.53-3.61-9.87-2.8-2.28.55-4.08,1.86-5.92,3.24-1.44,1.08-2.59,1.46-4.39.88ZM441.71.09s1.97,1.13,2.14,3.41c.12,1.66-.82,3.13-1.37,4.62-.79,2.14,0,3.93,1.43,5.65-2.34-.78-4.21-2.77-4.77-5.18-.55-2.35.1-3.99,1.33-5.88.53-.82,1.11-1.62,1.24-2.62ZM432.35.58c1.46-.62,3.83-1.01,5.07.26,1.21,1.23.9,2.73.54,4.19-.83,3.35.31,5.97,2.79,8.4-7.29-2.78-4.35-6.36-7.03-11.06-.61-1.07-1.37-1.78-1.37-1.78ZM424.47.71s1.87-.9,3.94-.67c2.48.29,3.98,2.29,4.71,4.55,1.11,3.42.97,6.01,4.19,8.34-4.64-1.6-8.39-5.46-10.41-9.88-.47-1.03-.97-1.91-2.43-2.35ZM417.35.89c1.52-.87,3.57-.94,5.17-.24,1.14.5,2.45,2.24,3.51,3.83,1.07,1.6,2.05,3.06,3.41,4.45-3.05-1.18-5.04-4.41-7.74-6.14-1.3-.84-2.73-1.45-4.36-1.91ZM382.23.31c1.43.58,2.57,2.33,4.13,2.95,1.34.53,3.13.4,4.82.02,2.21-.5,4.29-1.49,6.48-2.09-2.43-.52-3.99.31-6.73-.04-1.95-.25-2.28-.57-4.03-.92-1.51-.3-3.18-.26-4.68.07ZM370.7,11.4s-.06-1.24.29-2.49c1-3.53,4.62-3.49,7.15-1.63,2.89,2.12,5.68,1.57,8.35.29-2.39,2.15-7.77,5.63-10.97,3.32-1.86-1.34-3.1-1.3-4.82.51ZM370.92,2.82c.78-1.57,2.45-2.36,4.23-2.64,4.4-.69,6.16,1.74,9.66,3.73,2.02,1.15,4.16.96,6.3.23-2.9,2.76-6.53,3.61-9.87,2.8-2.28-.55-4.08-1.86-5.92-3.24-1.44-1.08-2.59-1.46-4.39-.88ZM444,15.65h0c-7.2,0-13.69-1.97-18.88-6.93-5.01-4.8-11.13-6.71-18.11-6.71h0s0,0,0,0h0c-6.98,0-13.1,1.91-18.11,6.71-5.19,4.97-11.68,6.93-18.88,6.93h0s0,0,0,0v-1.48h0c6.98,0,13.1-1.91,18.11-6.71,5.19-4.97,11.68-6.93,18.88-6.93h0s0,0,0,0h0c7.2,0,13.69,1.97,18.88,6.93,5.01,4.8,11.13,6.71,18.11,6.71h0s0,0,0,0v1.48Z"/>
  <path class="cls-1" d="M493.23,15.87c1.43-.58,2.57-2.33,4.13-2.95,1.34-.53,3.13-.4,4.82-.02,2.21.5,4.29,1.49,6.48,2.09-2.43.52-3.99-.31-6.73.04-1.95.25-2.28.57-4.03.92-1.51.3-3.18.26-4.68-.07M481.7,4.79s-.06,1.24.29,2.49c1,3.53,4.62,3.49,7.15,1.63,2.89-2.12,5.68-1.57,8.35-.29-2.39-2.15-7.77-5.63-10.97-3.32-1.86,1.34-3.1,1.3-4.81-.51ZM478.71,16.09s1.97-1.13,2.14-3.41c.12-1.66-.82-3.13-1.37-4.62-.79-2.14,0-3.93,1.43-5.65-2.34.78-4.21,2.77-4.77,5.18-.55,2.35.1,3.99,1.33,5.88.53.82,1.11,1.62,1.24,2.62ZM469.35,15.61c1.46.62,3.83,1.01,5.07-.26,1.21-1.23.9-2.73.54-4.19-.83-3.35.31-5.97,2.79-8.4-7.29,2.78-4.35,6.36-7.03,11.06-.61,1.07-1.37,1.78-1.37,1.78ZM461.47,15.47s1.87.9,3.94.67c2.48-.29,3.98-2.29,4.71-4.55,1.11-3.42.97-6.01,4.19-8.34-4.64,1.6-8.39,5.46-10.41,9.88-.47,1.03-.97,1.91-2.43,2.35ZM454.35,15.3c1.52.87,3.57.94,5.17.24,1.14-.5,2.45-2.24,3.51-3.83,1.07-1.6,2.05-3.06,3.41-4.45-3.05,1.18-5.04,4.41-7.74,6.14-1.3.84-2.73,1.45-4.36,1.91ZM481.92,13.36c.78,1.57,2.45,2.36,4.22,2.64,4.4.69,6.16-1.74,9.66-3.73,2.02-1.15,4.16-.96,6.3-.23-2.9-2.76-6.53-3.61-9.87-2.8-2.28.55-4.08,1.86-5.92,3.24-1.44,1.08-2.59,1.46-4.39.88ZM515.71.09s1.97,1.13,2.14,3.41c.12,1.66-.82,3.13-1.37,4.62-.79,2.14,0,3.93,1.43,5.65-2.34-.78-4.21-2.77-4.77-5.18-.55-2.35.1-3.99,1.33-5.88.53-.82,1.11-1.62,1.24-2.62ZM506.35.58c1.46-.62,3.83-1.01,5.07.26,1.21,1.23.9,2.73.54,4.19-.83,3.35.31,5.97,2.79,8.4-7.29-2.78-4.35-6.36-7.03-11.06-.61-1.07-1.37-1.78-1.37-1.78ZM498.47.71s1.87-.9,3.94-.67c2.48.29,3.98,2.29,4.71,4.55,1.11,3.42.97,6.01,4.19,8.34-4.64-1.6-8.39-5.46-10.41-9.88-.47-1.03-.97-1.91-2.43-2.35ZM491.35.89c1.52-.87,3.57-.94,5.17-.24,1.14.5,2.45,2.24,3.51,3.83,1.07,1.6,2.05,3.06,3.41,4.45-3.05-1.18-5.04-4.41-7.74-6.14-1.3-.84-2.73-1.45-4.36-1.91ZM456.23.31c1.43.58,2.57,2.33,4.13,2.95,1.34.53,3.13.4,4.82.02,2.21-.5,4.29-1.49,6.48-2.09-2.43-.52-3.99.31-6.73-.04-1.95-.25-2.28-.57-4.03-.92-1.51-.3-3.18-.26-4.68.07ZM444.7,11.4s-.06-1.24.29-2.49c1-3.53,4.62-3.49,7.15-1.63,2.89,2.12,5.68,1.57,8.35.29-2.39,2.15-7.77,5.63-10.97,3.32-1.86-1.34-3.1-1.3-4.82.51ZM444.92,2.82c.78-1.57,2.45-2.36,4.23-2.64,4.4-.69,6.16,1.74,9.66,3.73,2.02,1.15,4.16.96,6.3.23-2.9,2.76-6.53,3.61-9.87,2.8-2.28-.55-4.08-1.86-5.92-3.24-1.44-1.08-2.59-1.46-4.39-.88ZM518,15.65h0c-7.2,0-13.69-1.97-18.88-6.93-5.01-4.8-11.13-6.71-18.11-6.71h0s0,0,0,0h0c-6.98,0-13.1,1.91-18.11,6.71-5.19,4.97-11.68,6.93-18.88,6.93h0s0,0,0,0v-1.48h0c6.98,0,13.1-1.91,18.11-6.71,5.19-4.97,11.68-6.93,18.88-6.93h0s0,0,0,0h0c7.2,0,13.69,1.97,18.88,6.93,5.01,4.8,11.13,6.71,18.11,6.71h0s0,0,0,0v1.48Z"/>
  <path class="cls-1" d="M567.23,15.87c1.43-.58,2.57-2.33,4.13-2.95,1.34-.53,3.13-.4,4.82-.02,2.21.5,4.29,1.49,6.48,2.09-2.43.52-3.99-.31-6.73.04-1.95.25-2.28.57-4.03.92-1.51.3-3.18.26-4.68-.07M555.7,4.79s-.06,1.24.29,2.49c1,3.53,4.62,3.49,7.15,1.63,2.89-2.12,5.68-1.57,8.35-.29-2.39-2.15-7.77-5.63-10.97-3.32-1.86,1.34-3.1,1.3-4.82-.51ZM552.71,16.09s1.97-1.13,2.14-3.41c.12-1.66-.82-3.13-1.37-4.62-.79-2.14,0-3.93,1.43-5.65-2.34.78-4.21,2.77-4.77,5.18-.55,2.35.1,3.99,1.33,5.88.53.82,1.11,1.62,1.24,2.62ZM543.35,15.61c1.46.62,3.83,1.01,5.07-.26,1.21-1.23.9-2.73.54-4.19-.83-3.35.31-5.97,2.79-8.4-7.29,2.78-4.35,6.36-7.03,11.06-.61,1.07-1.37,1.78-1.37,1.78ZM535.47,15.47s1.87.9,3.94.67c2.48-.29,3.98-2.29,4.71-4.55,1.11-3.42.97-6.01,4.19-8.34-4.64,1.6-8.39,5.46-10.41,9.88-.47,1.03-.97,1.91-2.43,2.35ZM528.35,15.3c1.52.87,3.57.94,5.17.24,1.14-.5,2.45-2.24,3.51-3.83,1.07-1.6,2.05-3.06,3.41-4.45-3.05,1.18-5.04,4.41-7.74,6.14-1.3.84-2.73,1.45-4.36,1.91ZM555.92,13.36c.78,1.57,2.45,2.36,4.22,2.64,4.4.69,6.16-1.74,9.66-3.73,2.02-1.15,4.16-.96,6.3-.23-2.9-2.76-6.53-3.61-9.87-2.8-2.28.55-4.08,1.86-5.92,3.24-1.44,1.08-2.59,1.46-4.39.88ZM589.71.09s1.97,1.13,2.14,3.41c.12,1.66-.82,3.13-1.37,4.62-.79,2.14,0,3.93,1.43,5.65-2.34-.78-4.21-2.77-4.77-5.18-.55-2.35.1-3.99,1.33-5.88.53-.82,1.11-1.62,1.24-2.62ZM580.35.58c1.46-.62,3.83-1.01,5.07.26,1.21,1.23.9,2.73.54,4.19-.83,3.35.31,5.97,2.79,8.4-7.29-2.78-4.35-6.36-7.03-11.06-.61-1.07-1.37-1.78-1.37-1.78ZM572.47.71s1.87-.9,3.94-.67c2.48.29,3.98,2.29,4.71,4.55,1.11,3.42.97,6.01,4.19,8.34-4.64-1.6-8.39-5.46-10.41-9.88-.47-1.03-.97-1.91-2.43-2.35ZM565.35.89c1.52-.87,3.57-.94,5.17-.24,1.14.5,2.45,2.24,3.51,3.83,1.07,1.6,2.05,3.06,3.41,4.45-3.05-1.18-5.04-4.41-7.74-6.14-1.3-.84-2.73-1.45-4.36-1.91ZM530.23.31c1.43.58,2.57,2.33,4.13,2.95,1.34.53,3.13.4,4.82.02,2.21-.5,4.29-1.49,6.48-2.09-2.43-.52-3.99.31-6.73-.04-1.95-.25-2.28-.57-4.03-.92-1.51-.3-3.18-.26-4.68.07ZM518.7,11.4s-.06-1.24.29-2.49c1-3.53,4.62-3.49,7.15-1.63,2.89,2.12,5.68,1.57,8.35.29-2.39,2.15-7.77,5.63-10.97,3.32-1.86-1.34-3.1-1.3-4.82.51ZM518.92,2.82c.78-1.57,2.45-2.36,4.23-2.64,4.4-.69,6.16,1.74,9.66,3.73,2.02,1.15,4.16.96,6.3.23-2.9,2.76-6.53,3.61-9.87,2.8-2.28-.55-4.08-1.86-5.92-3.24-1.44-1.08-2.59-1.46-4.39-.88ZM592,15.65h0c-7.2,0-13.69-1.97-18.88-6.93-5.01-4.8-11.13-6.71-18.11-6.71h0s0,0,0,0h0c-6.98,0-13.1,1.91-18.11,6.71-5.19,4.97-11.68,6.93-18.88,6.93h0s0,0,0,0v-1.48h0c6.98,0,13.1-1.91,18.11-6.71,5.19-4.97,11.68-6.93,18.88-6.93h0s0,0,0,0h0c7.2,0,13.69,1.97,18.88,6.93,5.01,4.8,11.13,6.71,18.11,6.71h0s0,0,0,0v1.48Z"/>
  <path class="cls-1" d="M641.23,15.87c1.43-.58,2.57-2.33,4.13-2.95,1.34-.53,3.13-.4,4.82-.02,2.21.5,4.29,1.49,6.48,2.09-2.43.52-3.99-.31-6.73.04-1.95.25-2.28.57-4.03.92-1.51.3-3.18.26-4.68-.07M629.7,4.79s-.06,1.24.29,2.49c1,3.53,4.62,3.49,7.15,1.63,2.89-2.12,5.68-1.57,8.35-.29-2.39-2.15-7.77-5.63-10.97-3.32-1.86,1.34-3.1,1.3-4.82-.51ZM626.71,16.09s1.97-1.13,2.14-3.41c.12-1.66-.82-3.13-1.37-4.62-.79-2.14,0-3.93,1.43-5.65-2.34.78-4.21,2.77-4.77,5.18-.55,2.35.1,3.99,1.33,5.88.53.82,1.11,1.62,1.24,2.62ZM617.35,15.61c1.46.62,3.83,1.01,5.07-.26,1.21-1.23.9-2.73.54-4.19-.83-3.35.31-5.97,2.79-8.4-7.29,2.78-4.35,6.36-7.03,11.06-.61,1.07-1.37,1.78-1.37,1.78ZM609.47,15.47s1.87.9,3.94.67c2.48-.29,3.98-2.29,4.71-4.55,1.11-3.42.97-6.01,4.19-8.34-4.64,1.6-8.39,5.46-10.41,9.88-.47,1.03-.97,1.91-2.43,2.35ZM602.35,15.3c1.52.87,3.57.94,5.17.24,1.14-.5,2.45-2.24,3.51-3.83,1.07-1.6,2.05-3.06,3.41-4.45-3.05,1.18-5.04,4.41-7.74,6.14-1.3.84-2.73,1.45-4.36,1.91ZM629.92,13.36c.78,1.57,2.45,2.36,4.22,2.64,4.4.69,6.16-1.74,9.66-3.73,2.02-1.15,4.16-.96,6.3-.23-2.9-2.76-6.53-3.61-9.87-2.8-2.28.55-4.08,1.86-5.92,3.24-1.44,1.08-2.59,1.46-4.39.88ZM663.71.09s1.97,1.13,2.14,3.41c.12,1.66-.82,3.13-1.37,4.62-.79,2.14,0,3.93,1.43,5.65-2.34-.78-4.21-2.77-4.77-5.18-.55-2.35.1-3.99,1.33-5.88.53-.82,1.11-1.62,1.24-2.62ZM654.35.58c1.46-.62,3.83-1.01,5.07.26,1.21,1.23.9,2.73.54,4.19-.83,3.35.31,5.97,2.79,8.4-7.29-2.78-4.35-6.36-7.03-11.06-.61-1.07-1.37-1.78-1.37-1.78ZM646.47.71s1.87-.9,3.94-.67c2.48.29,3.98,2.29,4.71,4.55,1.11,3.42.97,6.01,4.19,8.34-4.64-1.6-8.39-5.46-10.41-9.88-.47-1.03-.97-1.91-2.43-2.35ZM639.35.89c1.52-.87,3.57-.94,5.17-.24,1.14.5,2.45,2.24,3.51,3.83,1.07,1.6,2.05,3.06,3.41,4.45-3.05-1.18-5.04-4.41-7.74-6.14-1.3-.84-2.73-1.45-4.36-1.91ZM604.23.31c1.43.58,2.57,2.33,4.13,2.95,1.34.53,3.13.4,4.82.02,2.21-.5,4.29-1.49,6.48-2.09-2.43-.52-3.99.31-6.73-.04-1.95-.25-2.28-.57-4.03-.92-1.51-.3-3.18-.26-4.68.07ZM592.7,11.4s-.06-1.24.29-2.49c1-3.53,4.62-3.49,7.15-1.63,2.89,2.12,5.68,1.57,8.35.29-2.39,2.15-7.77,5.63-10.97,3.32-1.86-1.34-3.1-1.3-4.82.51ZM592.92,2.82c.78-1.57,2.45-2.36,4.23-2.64,4.4-.69,6.16,1.74,9.66,3.73,2.02,1.15,4.16.96,6.3.23-2.9,2.76-6.53,3.61-9.87,2.8-2.28-.55-4.08-1.86-5.92-3.24-1.44-1.08-2.59-1.46-4.39-.88ZM666,15.65h0c-7.2,0-13.69-1.97-18.88-6.93-5.01-4.8-11.13-6.71-18.11-6.71h0s0,0,0,0h0c-6.98,0-13.1,1.91-18.11,6.71-5.19,4.97-11.68,6.93-18.88,6.93h0s0,0,0,0v-1.48h0c6.98,0,13.1-1.91,18.11-6.71,5.19-4.97,11.68-6.93,18.88-6.93h0s0,0,0,0h0c7.2,0,13.69,1.97,18.88,6.93,5.01,4.8,11.13,6.71,18.11,6.71h0s0,0,0,0v1.48Z"/>
  <path class="cls-1" d="M715.23,15.87c1.43-.58,2.57-2.33,4.13-2.95,1.34-.53,3.13-.4,4.82-.02,2.21.5,4.29,1.49,6.48,2.09-2.43.52-3.99-.31-6.73.04-1.95.25-2.28.57-4.03.92-1.51.3-3.18.26-4.68-.07M703.7,4.79s-.06,1.24.29,2.49c1,3.53,4.62,3.49,7.15,1.63,2.89-2.12,5.68-1.57,8.35-.29-2.39-2.15-7.77-5.63-10.97-3.32-1.86,1.34-3.1,1.3-4.82-.51ZM700.71,16.09s1.97-1.13,2.14-3.41c.12-1.66-.82-3.13-1.37-4.62-.79-2.14,0-3.93,1.43-5.65-2.34.78-4.21,2.77-4.77,5.18-.55,2.35.1,3.99,1.33,5.88.53.82,1.11,1.62,1.24,2.62ZM691.35,15.61c1.46.62,3.83,1.01,5.07-.26,1.21-1.23.9-2.73.54-4.19-.83-3.35.31-5.97,2.79-8.4-7.29,2.78-4.35,6.36-7.03,11.06-.61,1.07-1.37,1.78-1.37,1.78ZM683.47,15.47s1.87.9,3.94.67c2.48-.29,3.98-2.29,4.71-4.55,1.11-3.42.97-6.01,4.19-8.34-4.64,1.6-8.39,5.46-10.41,9.88-.47,1.03-.97,1.91-2.43,2.35ZM676.35,15.3c1.52.87,3.57.94,5.17.24,1.14-.5,2.45-2.24,3.51-3.83,1.07-1.6,2.05-3.06,3.41-4.45-3.05,1.18-5.04,4.41-7.74,6.14-1.3.84-2.73,1.45-4.36,1.91ZM703.92,13.36c.78,1.57,2.45,2.36,4.22,2.64,4.4.69,6.16-1.74,9.66-3.73,2.02-1.15,4.16-.96,6.3-.23-2.9-2.76-6.53-3.61-9.87-2.8-2.28.55-4.08,1.86-5.92,3.24-1.44,1.08-2.59,1.46-4.39.88ZM737.71.09s1.97,1.13,2.14,3.41c.12,1.66-.82,3.13-1.37,4.62-.79,2.14,0,3.93,1.43,5.65-2.34-.78-4.21-2.77-4.77-5.18-.55-2.35.1-3.99,1.33-5.88.53-.82,1.11-1.62,1.24-2.62ZM728.35.58c1.46-.62,3.83-1.01,5.07.26,1.21,1.23.9,2.73.54,4.19-.83,3.35.31,5.97,2.79,8.4-7.29-2.78-4.35-6.36-7.03-11.06-.61-1.07-1.37-1.78-1.37-1.78ZM720.47.71s1.87-.9,3.94-.67c2.48.29,3.98,2.29,4.71,4.55,1.11,3.42.97,6.01,4.19,8.34-4.64-1.6-8.39-5.46-10.41-9.88-.47-1.03-.97-1.91-2.43-2.35ZM713.35.89c1.52-.87,3.57-.94,5.17-.24,1.14.5,2.45,2.24,3.51,3.83,1.07,1.6,2.05,3.06,3.41,4.45-3.05-1.18-5.04-4.41-7.74-6.14-1.3-.84-2.73-1.45-4.36-1.91ZM678.23.31c1.43.58,2.57,2.33,4.13,2.95,1.34.53,3.13.4,4.82.02,2.21-.5,4.29-1.49,6.48-2.09-2.43-.52-3.99.31-6.73-.04-1.95-.25-2.28-.57-4.03-.92-1.51-.3-3.18-.26-4.68.07ZM666.7,11.4s-.06-1.24.29-2.49c1-3.53,4.62-3.49,7.15-1.63,2.89,2.12,5.68,1.57,8.35.29-2.39,2.15-7.77,5.63-10.97,3.32-1.86-1.34-3.1-1.3-4.81.51ZM666.92,2.82c.78-1.57,2.45-2.36,4.23-2.64,4.4-.69,6.16,1.74,9.66,3.73,2.02,1.15,4.16.96,6.3.23-2.9,2.76-6.53,3.61-9.87,2.8-2.28-.55-4.08-1.86-5.92-3.24-1.44-1.08-2.59-1.46-4.39-.88ZM740,15.65h0c-7.2,0-13.69-1.97-18.88-6.93-5.01-4.8-11.13-6.71-18.11-6.71h0s0,0,0,0h0c-6.98,0-13.1,1.91-18.11,6.71-5.19,4.97-11.68,6.93-18.88,6.93h0s0,0,0,0v-1.48h0c6.98,0,13.1-1.91,18.11-6.71,5.19-4.97,11.68-6.93,18.88-6.93h0s0,0,0,0h0c7.2,0,13.69,1.97,18.88,6.93,5.01,4.8,11.13,6.71,18.11,6.71h0s0,0,0,0v1.48Z"/>
  <path class="cls-1" d="M789.23,15.87c1.43-.58,2.57-2.33,4.13-2.95,1.34-.53,3.13-.4,4.82-.02,2.21.5,4.29,1.49,6.48,2.09-2.43.52-3.99-.31-6.73.04-1.95.25-2.28.57-4.03.92-1.51.3-3.18.26-4.68-.07M777.7,4.79s-.06,1.24.29,2.49c1,3.53,4.62,3.49,7.15,1.63,2.89-2.12,5.68-1.57,8.35-.29-2.39-2.15-7.77-5.63-10.97-3.32-1.86,1.34-3.1,1.3-4.82-.51ZM774.71,16.09s1.97-1.13,2.14-3.41c.12-1.66-.82-3.13-1.37-4.62-.79-2.14,0-3.93,1.43-5.65-2.34.78-4.21,2.77-4.77,5.18-.55,2.35.1,3.99,1.33,5.88.53.82,1.11,1.62,1.24,2.62ZM765.35,15.61c1.46.62,3.83,1.01,5.07-.26,1.21-1.23.9-2.73.54-4.19-.83-3.35.31-5.97,2.79-8.4-7.29,2.78-4.35,6.36-7.03,11.06-.61,1.07-1.37,1.78-1.37,1.78ZM757.47,15.47s1.87.9,3.94.67c2.48-.29,3.98-2.29,4.71-4.55,1.11-3.42.97-6.01,4.19-8.34-4.64,1.6-8.39,5.46-10.41,9.88-.47,1.03-.97,1.91-2.43,2.35ZM750.35,15.3c1.52.87,3.57.94,5.17.24,1.14-.5,2.45-2.24,3.51-3.83,1.07-1.6,2.05-3.06,3.41-4.45-3.05,1.18-5.04,4.41-7.74,6.14-1.3.84-2.73,1.45-4.36,1.91ZM777.92,13.36c.78,1.57,2.45,2.36,4.22,2.64,4.4.69,6.16-1.74,9.66-3.73,2.02-1.15,4.16-.96,6.3-.23-2.9-2.76-6.53-3.61-9.87-2.8-2.28.55-4.08,1.86-5.92,3.24-1.44,1.08-2.59,1.46-4.39.88ZM811.71.09s1.97,1.13,2.14,3.41c.12,1.66-.82,3.13-1.37,4.62-.79,2.14,0,3.93,1.43,5.65-2.34-.78-4.21-2.77-4.77-5.18-.55-2.35.1-3.99,1.33-5.88.53-.82,1.11-1.62,1.24-2.62ZM802.35.58c1.46-.62,3.83-1.01,5.07.26,1.21,1.23.9,2.73.54,4.19-.83,3.35.31,5.97,2.79,8.4-7.29-2.78-4.35-6.36-7.03-11.06-.61-1.07-1.37-1.78-1.37-1.78ZM794.47.71s1.87-.9,3.94-.67c2.48.29,3.98,2.29,4.71,4.55,1.11,3.42.97,6.01,4.19,8.34-4.64-1.6-8.39-5.46-10.41-9.88-.47-1.03-.97-1.91-2.43-2.35ZM787.35.89c1.52-.87,3.57-.94,5.17-.24,1.14.5,2.45,2.24,3.51,3.83,1.07,1.6,2.05,3.06,3.41,4.45-3.05-1.18-5.04-4.41-7.74-6.14-1.3-.84-2.73-1.45-4.36-1.91ZM752.23.31c1.43.58,2.57,2.33,4.13,2.95,1.34.53,3.13.4,4.82.02,2.21-.5,4.29-1.49,6.48-2.09-2.43-.52-3.99.31-6.73-.04-1.95-.25-2.28-.57-4.03-.92-1.51-.3-3.18-.26-4.68.07ZM740.7,11.4s-.06-1.24.29-2.49c1-3.53,4.62-3.49,7.15-1.63,2.89,2.12,5.68,1.57,8.35.29-2.39,2.15-7.77,5.63-10.97,3.32-1.86-1.34-3.1-1.3-4.81.51ZM740.92,2.82c.78-1.57,2.45-2.36,4.23-2.64,4.4-.69,6.16,1.74,9.66,3.73,2.02,1.15,4.16.96,6.3.23-2.9,2.76-6.53,3.61-9.87,2.8-2.28-.55-4.08-1.86-5.92-3.24-1.44-1.08-2.59-1.46-4.39-.88ZM814,15.65h0c-7.2,0-13.69-1.97-18.88-6.93-5.01-4.8-11.13-6.71-18.11-6.71h0s0,0,0,0h0c-6.98,0-13.1,1.91-18.11,6.71-5.19,4.97-11.68,6.93-18.88,6.93h0s0,0,0,0v-1.48h0c6.98,0,13.1-1.91,18.11-6.71,5.19-4.97,11.68-6.93,18.88-6.93h0s0,0,0,0h0c7.2,0,13.69,1.97,18.88,6.93,5.01,4.8,11.13,6.71,18.11,6.71h0s0,0,0,0v1.48Z"/>
</svg>