<?xml version="1.0" encoding="UTF-8"?>
<svg id="Layer_1" xmlns="http://www.w3.org/2000/svg" version="1.1" viewBox="0 0 918.5 34.3">
  <!-- Generator: Adobe Illustrator 30.1.0, SVG Export Plug-In . SVG Version: 2.1.1 Build 136)  -->
  <defs>
    <style>
      .st0 {
        fill: #fff;
      }
    </style>
  </defs>
  <path class="st0" d="M891.7,15v3.6c8.3,2.4,13.8,12.2,12.6,15.8,5.1-2.4,5.1-8.3,1.6-13.4,2,2.8,6.7,5.5,12.6-4.4-5.9-2-4.3-8.7-12.2-4.4,3.1-3.6,1.6-11.8-2.4-12.2-2.4,9-4.7,12.2-12.2,15h0Z"/>
  <rect class="st0" x="480" y="15" width="413.7" height="3.6"/>
  <rect class="st0" x="453.1" y="10.6" width="12.3" height="12.3" transform="translate(122.7 329.7) rotate(-45)"/>
  <path class="st0" d="M14.6,0c-4,.4-5.5,8.6-2.4,12.2-7.9-4.3-6.3,2.4-12.2,4.3,5.9,9.9,10.6,7.1,12.6,4.4-3.5,5.1-3.5,11.1,1.6,13.4-1.2-3.6,4.3-13.4,12.6-15.8v-3.6c-7.5-2.8-9.9-5.9-12.2-15h0Z"/>
  <rect class="st0" x="24.8" y="15" width="413.7" height="3.6"/>
</svg>